<svg xmlns="http://www.w3.org/2000/svg" width="30" height="30" viewBox="0 0 30 30">
    <g fill="none" fill-rule="evenodd" stroke-linecap="round" stroke-linejoin="round" stroke-width="1.867">
        <path stroke="#21409A" d="M24.962 19.667h-1.755M13.376 25.267h-1.755"/>
        <path stroke="#D0021B" d="M5.616 21.678l-3.16 1.527A2.54 2.54 0 0 0 1 25.482V29h15.8v-3.518c0-.963-.564-1.845-1.457-2.277l-3.174-1.533"/>
        <path stroke="#D0021B" d="M15.834 29H29V17.8c0-.94-.536-1.803-1.394-2.246l-5.276-2.737"/>
        <path stroke="#21409A" d="M19.125 13.727c-3.271 0-5.924-2.564-5.924-5.727V6.727C13.2 3.565 15.854 1 19.125 1c3.272 0 5.925 2.565 5.925 5.727V8c0 3.163-2.653 5.727-5.925 5.727zM2.975 16.91v-1.274c0-3.162 2.653-5.727 5.925-5.727 3.271 0 5.924 2.565 5.924 5.727v1.273c0 3.163-2.653 5.727-5.924 5.727-3.272 0-5.925-2.564-5.925-5.727z"/>
    </g>
</svg>
