<?xml version="1.0" encoding="UTF-8"?>
<svg width="21px" height="15px" viewBox="0 0 21 15" version="1.1" xmlns="http://www.w3.org/2000/svg" xmlns:xlink="http://www.w3.org/1999/xlink">
    <!-- Generator: sketchtool 46.2 (44496) - http://www.bohemiancoding.com/sketch -->
    <title>072B5F23-8215-49DE-9677-46DAC96E3135</title>
    <desc>Created with sketchtool.</desc>
    <defs>
        <rect id="path-1" x="0" y="0" width="21" height="15" rx="2"></rect>
        <filter x="-2.4%" y="-3.3%" width="104.8%" height="106.7%" filterUnits="objectBoundingBox" id="filter-3">
            <feMorphology radius="1" operator="erode" in="SourceAlpha" result="shadowSpreadInner1"></feMorphology>
            <feOffset dx="0" dy="0" in="shadowSpreadInner1" result="shadowOffsetInner1"></feOffset>
            <feComposite in="shadowOffsetInner1" in2="SourceAlpha" operator="arithmetic" k2="-1" k3="1" result="shadowInnerInner1"></feComposite>
            <feColorMatrix values="0 0 0 0 0   0 0 0 0 0   0 0 0 0 0  0 0 0 0.121659873 0" type="matrix" in="shadowInnerInner1"></feColorMatrix>
        </filter>
    </defs>
    <g id="01.-Homepage" stroke="none" stroke-width="1" fill="none" fill-rule="evenodd">
        <g id="101_Homepage_ExpandedFooter" transform="translate(-130.000000, -2336.000000)">
            <g id="Group-16" transform="translate(130.000000, 2251.000000)">
                <g id="Group-14" transform="translate(0.000000, 46.000000)">
                    <g id="AU" transform="translate(0.000000, 39.000000)">
                        <mask id="mask-2" fill="white">
                            <use xlink:href="#path-1"></use>
                        </mask>
                        <g id="background">
                            <use fill="#1C36AD" fill-rule="evenodd" xlink:href="#path-1"></use>
                            <use fill="black" fill-opacity="1" filter="url(#filter-3)" xlink:href="#path-1"></use>
                        </g>
                        <polygon id="cross" fill="#BDC4E7" mask="url(#mask-2)" points="5 11 5 10 6 10 6 11 7 11 7 12 6 12 6 13 5 13 5 12 4 12 4 11"></polygon>
                        <path d="M14,3 L14,4 L15,4 L15,3 L14,3 L14,3 Z M17,4 L17,5 L18,5 L18,4 L17,4 L17,4 Z M13,6 L13,7 L14,7 L14,6 L13,6 L13,6 Z M16,7 L16,8 L17,8 L17,7 L16,7 L16,7 Z M15,10 L15,11 L16,11 L16,10 L15,10 L15,10 Z" id="circles" fill="#BDC4E7" mask="url(#mask-2)"></path>
                        <rect id="top-left" fill="#FFFFFF" mask="url(#mask-2)" x="1" y="1" width="9" height="7" rx="1"></rect>
                        <path d="M5,5 L2,5 L2,4 L5,4 L5,2 L6,2 L6,4 L9,4 L9,5 L6,5 L6,7 L5,7 L5,5 L5,5 Z M7.5,6 L7.5,7 L9,7 L9,6 L7.5,6 L7.5,6 Z M7.5,2 L7.5,3 L9,3 L9,2 L7.5,2 L7.5,2 Z M2,6 L2,7 L3.5,7 L3.5,6 L2,6 L2,6 Z M2,2 L2,3 L3.5,3 L3.5,2 L2,2 L2,2 Z" id="cross" fill="#D72342" mask="url(#mask-2)"></path>
                    </g>
                </g>
            </g>
        </g>
    </g>
</svg>