<?xml version="1.0" encoding="UTF-8"?>
<svg width="24px" height="18px" viewBox="0 0 24 18" version="1.1" xmlns="http://www.w3.org/2000/svg" xmlns:xlink="http://www.w3.org/1999/xlink">
    <!-- Generator: Sketch 47.1 (45422) - http://www.bohemiancoding.com/sketch -->
    <title>Group 6</title>
    <desc>Created with Sketch.</desc>
    <defs>
        <rect id="path-1" x="0" y="0" width="24" height="17.5539692" rx="2"></rect>
        <polygon id="path-3" points="0.00304093567 17.4045776 0.00304093567 0.0285465329 25.9494191 0.0285465329 25.9494191 17.4045776"></polygon>
    </defs>
    <g id="Icon" stroke="none" stroke-width="1" fill="none" fill-rule="evenodd">
        <g id="Icon_24x24-Copy-3" transform="translate(-72.000000, -52.000000)">
            <g id="Group-6" transform="translate(72.000000, 48.000000)">
                <g id="united-kingdom-copy" transform="translate(0.000000, 4.000000)">
                    <mask id="mask-2" fill="white">
                        <use xlink:href="#path-1"></use>
                    </mask>
                    <use id="Mask" fill="#FFFFFF" xlink:href="#path-1"></use>
                    <g mask="url(#mask-2)">
                        <g transform="translate(-1.000000, 0.000000)">
                            <g id="Group-8" stroke-width="1" fill="none">
                                <mask id="mask-4" fill="white">
                                    <use xlink:href="#path-3"></use>
                                </mask>
                                <g id="Clip-2"></g>
                                <path d="M25.5018947,17.4076861 L0.447423002,17.4076861 C0.200346979,17.4076861 0,17.2028868 0,16.9503199 L0,0.485912763 C0,0.233345888 0.200346979,0.0285465329 0.447423002,0.0285465329 L25.5019454,0.0285465329 C25.7490214,0.0285465329 25.9493684,0.233345888 25.9493684,0.485912763 L25.9493684,16.9503199 C25.9493177,17.2028868 25.7489708,17.4076861 25.5018947,17.4076861" id="Fill-1" fill="#394084" mask="url(#mask-4)"></path>
                                <path d="M25.9493177,0.485912763 C25.9493177,0.233345888 25.7489708,0.0285465329 25.5018947,0.0285465329 L23.5001988,0.0285465329 L15.2116218,5.57968149 L15.2116218,0.0285465329 L10.7375945,0.0285465329 L10.7375945,5.57968149 L2.44906823,0.0285465329 L0.447423002,0.0285465329 C0.200346979,0.0285465329 0,0.233345888 0,0.485912763 L0,1.66875467 L7.11117739,6.4313629 L0,6.4313629 L0,11.004818 L7.11117739,11.004818 L0,15.767478 L0,16.9503199 C0,17.2028868 0.200346979,17.4076861 0.447423002,17.4076861 L2.44911891,17.4076861 L10.7376959,11.8565512 L10.7376959,17.4076861 L15.2117232,17.4076861 L15.2117232,11.8565512 L23.5003002,17.4076861 L25.5019961,17.4076861 C25.7490721,17.4076861 25.9494191,17.2028868 25.9494191,16.9503199 L25.9494191,15.767478 L18.8382417,11.0048698 L25.9493177,11.0048698 L25.9493177,6.43141471 L18.8381404,6.43141471 L25.9493177,1.66875467 L25.9493177,0.485912763" id="Fill-3" fill="#F8F7F5" mask="url(#mask-4)"></path>
                                <polyline id="Fill-4" fill="#ED1B2D" mask="url(#mask-4)" points="25.9493177 7.34609536 14.3168772 7.34609536 14.3168772 0.0285465329 11.6324405 0.0285465329 11.6324405 7.34609536 0 7.34609536 0 10.0901373 11.6324405 10.0901373 11.6324405 17.4076861 14.3168772 17.4076861 14.3168772 10.0901373 25.9493177 10.0901373 25.9493177 7.34609536"></polyline>
                                <path d="M9.06948928,11.004818 L0.0126705653,17.0144589 C0.0443469786,17.235319 0.222495127,17.4076861 0.44737232,17.4076861 L1.06361793,17.4076861 L10.7130136,11.0048698 L9.06948928,11.0048698 L9.06948928,11.004818" id="Fill-5" fill="#ED1B2D" mask="url(#mask-4)"></path>
                                <path d="M17.5557271,11.004818 L15.9122027,11.004818 L25.5475595,17.3982052 C25.7721326,17.3737515 25.9493684,17.186308 25.9493684,16.9502681 L25.9493684,16.5742414 L17.5557271,11.004818" id="Fill-6" fill="#ED1B2D" mask="url(#mask-4)"></path>
                                <path d="M0,0.990787469 L8.19932554,6.43141471 L9.8428499,6.43141471 L0.260658869,0.0731537286 C0.107598441,0.14584118 0,0.302044078 0,0.485912763 L0,0.990787469" id="Fill-7" fill="#ED1B2D" mask="url(#mask-4)"></path>
                            </g>
                            <path d="M16.6861242,7.16787076 L26,0.423915066 C25.961315,0.184842977 25.782449,0 25.5569426,0 L24.8993501,0 L15,7.16787076 L16.6861242,7.16787076" id="Fill-9" fill="#DE4A53"></path>
                        </g>
                    </g>
                </g>
            </g>
        </g>
    </g>
</svg>