<?xml version="1.0" encoding="UTF-8"?>
<svg width="24px" height="24px" viewBox="0 0 24 24" version="1.1" xmlns="http://www.w3.org/2000/svg" xmlns:xlink="http://www.w3.org/1999/xlink">
    <!-- Generator: Sketch 46.2 (44496) - http://www.bohemiancoding.com/sketch -->
    <title>Group 11</title>
    <desc>Created with Sketch.</desc>
    <defs></defs>
    <g id="08.-Treasury" stroke="none" stroke-width="1" fill="none" fill-rule="evenodd" stroke-linecap="round" stroke-linejoin="round">
        <g id="100_Treasury_Services" transform="translate(-159.000000, -752.000000)" stroke="#212121" stroke-width="2">
            <g id="Group-28" transform="translate(129.000000, 728.000000)">
                <g id="Group-22" transform="translate(30.000000, 24.000000)">
                    <g id="Group-11" transform="translate(1.000000, 1.000000)">
                        <path d="M22,9.45454545 C22,11.8181818 20.79,13 19.25,13 C17.71,13 16.5,11.7 16.5,10.0454545 C16.5,11.7 15.29,13 13.75,13 C12.21,13 11,11.7 11,10.0454545 C11,11.7 9.79,13 8.25,13 C6.71,13 5.5,11.7 5.5,10.0454545 C5.5,11.7 4.29,13 2.75,13 C1.21,13 0,11.8181818 0,9.45454545 L4.4,0 L17.6,0 L22,9.45454545 L22,9.45454545 Z" id="Stroke-261"></path>
                        <polyline id="Stroke-262" points="2 13 2 22 8.75 22 8.75 17 13.25 17 13.25 22 20 22 20 13"></polyline>
                    </g>
                </g>
            </g>
        </g>
    </g>
</svg>