<svg xmlns="http://www.w3.org/2000/svg" width="30" height="30" viewBox="0 0 30 30">
    <g fill="none" fill-rule="evenodd">
        <path fill="#21409A" d="M-1278-20H162v68h-1440z"/>
        <g fill="#FFF">
            <path d="M0 15C0 6.716 6.716 0 15 0c8.284 0 15 6.716 15 15 0 8.284-6.716 15-15 15-8.284 0-15-6.716-15-15zm22.84-2.411s-.157-1.176-.636-1.694c-.608-.68-1.29-.683-1.603-.722C18.362 10 15.004 10 15.004 10h-.008s-3.358 0-5.597.173c-.313.04-.994.042-1.603.722-.48.518-.636 1.694-.636 1.694S7 13.969 7 15.349v1.295c0 1.381.16 2.762.16 2.762s.156 1.175.635 1.693c.61.68 1.409.658 1.765.73C10.84 21.958 15 22 15 22s3.362-.005 5.601-.178c.313-.04.995-.043 1.603-.723.48-.518.636-1.693.636-1.693s.16-1.38.16-2.762V15.35c0-1.38-.16-2.761-.16-2.761z"/>
            <path d="M12 20v-8l8 4.014z"/>
        </g>
    </g>
</svg>
