<?xml version="1.0" encoding="UTF-8"?>
<svg width="24px" height="24px" viewBox="0 0 24 24" version="1.1" xmlns="http://www.w3.org/2000/svg" xmlns:xlink="http://www.w3.org/1999/xlink">
    <!-- Generator: Sketch 46.2 (44496) - http://www.bohemiancoding.com/sketch -->
    <title>Group 21</title>
    <desc>Created with Sketch.</desc>
    <defs></defs>
    <g id="10.-JointStock" stroke="none" stroke-width="1" fill="none" fill-rule="evenodd" stroke-linecap="round" stroke-linejoin="round">
        <g id="100_Joint_Stock" transform="translate(-160.000000, -1712.000000)" stroke="#212121" stroke-width="2">
            <g id="Group-26-Copy-2" transform="translate(130.000000, 1688.000000)">
                <g id="Group-21" transform="translate(30.000000, 24.000000)">
                    <g id="Group-30" transform="translate(1.000000, 1.000000)">
                        <path d="M7.719,14 L7,14 C3.134,14 0,17.134 0,21 L0,22 L22,22 L22,21 C22,17.134 18.866,14 15,14 L14.281,14" id="Stroke-803"></path>
                        <path d="M5.0128,6.7523 C5.9618,7.5313 7.1768,8.0003 8.4998,8.0003 C10.7228,8.0003 12.6328,6.6793 13.4998,4.7813 C14.1638,6.2343 15.4418,7.3433 16.9998,7.7853" id="Stroke-805"></path>
                        <path d="M11.0003,15 L11.0003,15 C7.6863,15 5.0003,12.314 5.0003,9 L5.0003,6 C5.0003,2.686 7.6863,0 11.0003,0 C14.3143,0 17.0003,2.686 17.0003,6 L17.0003,9 C17.0003,12.314 14.3143,15 11.0003,15 L11.0003,15 Z" id="Stroke-807"></path>
                        <path d="M17.0003,18 L15.0003,18" id="Stroke-827"></path>
                    </g>
                </g>
            </g>
        </g>
    </g>
</svg>