<?xml version="1.0" encoding="UTF-8"?>
<svg width="80px" height="80px" viewBox="0 0 80 80" version="1.1" xmlns="http://www.w3.org/2000/svg" xmlns:xlink="http://www.w3.org/1999/xlink">
    <!-- Generator: Sketch 46.2 (44496) - http://www.bohemiancoding.com/sketch -->
    <title>Approval</title>
    <desc>Created with Sketch.</desc>
    <defs></defs>
    <g id="03.-Cards" stroke="none" stroke-width="1" fill="none" fill-rule="evenodd">
        <g id="105_Cards_Detail" transform="translate(-680.000000, -670.000000)" fill-rule="nonzero" fill="#ED1D24">
            <g id="Group-23" transform="translate(130.000000, 620.000000)">
                <g id="Approval" transform="translate(550.000000, 50.000000)">
                    <path d="M40,0.204200023 L38.0276134,1.6892911 L29.1518738,8.37220095 L17.7120316,7.90810999 L15.147929,7.7224736 L14.556213,10.0429284 L11.6962525,20.3457478 L2.22879684,26.1932939 L0.157790927,27.4927486 L1.04536489,29.7203852 L5.0887574,39.6519318 L1.04536489,49.5834784 L0.157790927,51.811115 L2.22879684,53.1105697 L11.6962525,58.9581158 L14.556213,69.2609351 L15.147929,71.58139 L17.7120316,71.3957536 L29.1518738,70.9316626 L38.0276134,77.6145725 L40,79.0996635 L41.9723866,77.6145725 L50.8481262,70.9316626 L62.2879684,71.3957536 L64.852071,71.58139 L65.443787,69.2609351 L68.3037475,58.9581158 L77.7712032,53.1105697 L79.8422091,51.811115 L78.9546351,49.5834784 L74.9112426,39.6519318 L78.9546351,29.7203852 L79.8422091,27.4927486 L77.7712032,26.1932939 L68.3037475,20.3457478 L65.443787,10.0429284 L64.852071,7.7224736 L62.2879684,7.90810999 L50.8481262,8.37220095 L41.9723866,1.6892911 L40,0.204200023 Z M40,7.8152918 L47.790927,13.7556561 L48.7771203,14.4982016 L49.9605523,14.4053835 L60.0197239,13.9412925 L62.4852071,22.851839 L62.7810651,23.9656573 L63.7672584,24.6153846 L72.1499014,29.8132034 L68.5996055,38.6309317 L68.2051282,39.6519318 L68.5996055,40.6729319 L72.1499014,49.4906602 L63.7672584,54.6884789 L62.7810651,55.3382063 L62.4852071,56.4520246 L60.0197239,65.3625711 L49.9605523,64.8984801 L48.7771203,64.8056619 L47.790927,65.5482074 L40,71.4885718 L32.209073,65.5482074 L31.2228797,64.8056619 L30.0394477,64.8984801 L19.9802761,65.3625711 L17.5147929,56.4520246 L17.2189349,55.3382063 L16.2327416,54.6884789 L7.85009862,49.4906602 L11.4003945,40.6729319 L11.7948718,39.6519318 L11.4003945,38.6309317 L7.85009862,29.8132034 L16.2327416,24.6153846 L17.2189349,23.9656573 L17.5147929,22.851839 L19.9802761,13.9412925 L30.0394477,14.4053835 L31.2228797,14.4982016 L32.209073,13.7556561 L40,7.8152918 Z M56.6666667,28.6065669 L36.8441815,47.2630236 L26.4891519,37.5171134 L21.9526627,41.7867502 L34.5759369,53.6674788 L36.8441815,55.7094791 L39.112426,53.6674788 L61.2031558,32.8762037 L56.6666667,28.6065669 Z" id="Shape"></path>
                </g>
            </g>
        </g>
    </g>
</svg>