<?xml version="1.0" encoding="UTF-8"?>
<svg width="30px" height="30px" viewBox="0 0 30 30" version="1.1" xmlns="http://www.w3.org/2000/svg" xmlns:xlink="http://www.w3.org/1999/xlink">
    <!-- Generator: Sketch 46.2 (44496) - http://www.bohemiancoding.com/sketch -->
    <title>Group 10 Copy</title>
    <desc>Created with Sketch.</desc>
    <defs></defs>
    <g id="02.-News-Promotions" stroke="none" stroke-width="1" fill="none" fill-rule="evenodd">
        <g id="103_News_Article_Option2" transform="translate(-130.000000, -374.000000)" fill="#FFFFFF">
            <g id="1stBanner">
                <g id="Group-7" transform="translate(130.000000, 344.000000)">
                    <g id="Group-5" transform="translate(0.000000, 30.000000)">
                        <g id="Group-10-Copy">
                            <g id="Icn_facebook">
                                <path d="M0,15 C0,6.71572834 6.71572834,0 15,0 C23.2842717,0 30,6.71572834 30,15 C30,23.2842717 23.2842717,30 15,30 C6.71572834,30 0,23.2842717 0,15 Z M15.6546943,24 L15.6546943,15.4990047 L17.7255649,15.4990047 L18,12.5695146 L15.6546943,12.5695146 L15.6582127,11.1032767 C15.6582127,10.3392205 15.7222769,9.92982182 16.690716,9.92982182 L17.98534,9.92982182 L17.98534,7 L15.9141762,7 C13.4263754,7 12.550734,8.42111785 12.550734,10.8109912 L12.550734,12.5698464 L11,12.5698464 L11,15.4993365 L12.550734,15.4993365 L12.550734,24 L15.6546943,24 Z"></path>
                            </g>
                        </g>
                    </g>
                </g>
            </g>
        </g>
    </g>
</svg>