<?xml version="1.0" encoding="UTF-8"?>
<svg width="23px" height="32px" viewBox="0 0 23 32" version="1.1" xmlns="http://www.w3.org/2000/svg" xmlns:xlink="http://www.w3.org/1999/xlink">
    <!-- Generator: Sketch 46.2 (44496) - http://www.bohemiancoding.com/sketch -->
    <title>Group 29</title>
    <desc>Created with Sketch.</desc>
    <defs></defs>
    <g id="07.-DigitalBanking" stroke="none" stroke-width="1" fill="none" fill-rule="evenodd" stroke-linecap="round" stroke-linejoin="round">
        <g id="0700_SmartBanking_VER.3" transform="translate(-1023.000000, -1715.000000)" stroke-width="2">
            <g id="Group-42" transform="translate(1000.000000, 1696.000000)">
                <g id="Group-40" transform="translate(20.000000, 20.000000)">
                    <g id="Group-29">
                        <g id="Group-28" transform="translate(4.687500, 0.937500)">
                            <g id="Group-26">
                                <path d="M8.7890625,24.609375 C8.7890625,25.0945313 8.3953125,25.4882812 7.91015625,25.4882812 C7.425,25.4882812 7.03125,25.0945313 7.03125,24.609375 C7.03125,24.1242187 7.425,23.7304688 7.91015625,23.7304688 C8.3953125,23.7304688 8.7890625,24.1242187 8.7890625,24.609375 Z" id="Stroke-4324" stroke="#21409A"></path>
                                <path d="M0,8.8317715 L10.3580563,8.8317715" id="Stroke-4325" stroke="#21409A"></path>
                                <path d="M0,21.09375 L16.112532,21.09375" id="Stroke-4326" stroke="#21409A"></path>
                                <path d="M16.112532,13.1627877 L16.112532,15.464578 L16.112532,25.8226343 C16.112532,27.0886189 15.0767263,28.1244246 13.8107417,28.1244246 L2.30179028,28.1244246 C1.03580563,28.1244246 0,27.0886189 0,25.8226343 L0,6.25741688 C0,4.99143223 1.03580563,3.9556266 2.30179028,3.9556266 L10.3580563,3.9556266" id="Stroke-4327" stroke="#21409A"></path>
                                <g id="Group-6" transform="translate(13.235294, 0.000000)" stroke="#ED1D24">
                                    <path d="M0,7.6171875 L0,7.6171875 C0,8.85475643 1.23419118,9.85753676 2.75735294,9.85753676 L3.86029412,9.85753676 C5.38345588,9.85753676 6.61764706,8.85475643 6.61764706,7.6171875 C6.61764706,4.48069853 0,6.27297794 0,3.13648897 C0,1.89892004 1.23419118,0.896139706 2.75735294,0.896139706 L3.86029412,0.896139706 C5.38345588,0.896139706 6.61764706,1.89892004 6.61764706,3.13648897" id="Stroke-852"></path>
                                    <path d="M3.30882353,0 L3.30882353,10.7536765" id="Stroke-853"></path>
                                </g>
                            </g>
                        </g>
                    </g>
                </g>
            </g>
        </g>
    </g>
</svg>