<svg xmlns="http://www.w3.org/2000/svg" width="40" height="40" viewBox="0 0 40 40">
    <path fill="#345DD4" fill-rule="nonzero" stroke="#345DD4" stroke-width=".5" d="M18.03.456a.654.654 0 0 0-.454 1.125l1.573 1.575C10.165 3.604 3 11.03 3 20.134a16.924 16.924 0 0 0 2.904 9.518 17.081 17.081 0 0 0 4.59 4.596 16.97 16.97 0 0 0 2.888 1.57.653.653 0 0 0 .926-.68.655.655 0 0 0-.415-.525 15.762 15.762 0 0 1-8.352-8.362 15.604 15.604 0 0 1-.914-2.949 15.817 15.817 0 0 1-.32-3.168c0-8.346 6.486-15.144 14.69-15.663l-1.42 1.421a.655.655 0 1 0 .924.926L21.116 4.2a.655.655 0 0 0 0-.929L18.501.655a.654.654 0 0 0-.47-.2zm8.268 3.94a.654.654 0 0 0-.191 1.261 15.66 15.66 0 0 1 4.988 3.368 15.682 15.682 0 0 1 4.597 11.109c0 8.37-6.521 15.178-14.757 15.663l1.489-1.49a.655.655 0 1 0-.925-.926l-2.615 2.618a.655.655 0 0 0 0 .926l2.615 2.619a.653.653 0 1 0 .925-.926l-1.507-1.509C29.87 36.63 37 29.217 37 20.134a16.924 16.924 0 0 0-2.904-9.516 17.081 17.081 0 0 0-7.478-6.168.653.653 0 0 0-.253-.054.653.653 0 0 0-.067 0zM20 9.66c-5.77 0-10.462 4.698-10.462 10.475 0 5.777 4.692 10.475 10.462 10.475s10.462-4.698 10.462-10.475c0-5.777-4.692-10.475-10.462-10.475zm0 1.31c5.063 0 9.154 4.095 9.154 9.165 0 5.07-4.09 9.165-9.154 9.165-5.063 0-9.154-4.095-9.154-9.165 0-5.07 4.09-9.165 9.154-9.165zm-.462 2.583v1.516c-.411.05-.784.15-1.116.297a2.86 2.86 0 0 0-.85.565c-.23.23-.41.5-.537.813-.121.312-.182.657-.182 1.033 0 .41.07.77.21 1.082.145.312.35.587.615.826.272.239.6.447.981.626.387.175.822.33 1.305.463.363.12.67.245.925.374.26.128.468.267.626.42.163.15.28.313.352.488.073.174.11.366.11.572 0 .248-.045.473-.136.675a1.41 1.41 0 0 1-.4.51c-.17.137-.38.246-.634.324-.248.074-.533.11-.853.11-.23 0-.46-.03-.69-.09a1.64 1.64 0 0 1-.625-.316 1.62 1.62 0 0 1-.452-.614c-.115-.258-.172-.581-.172-.972H16.42c0 .52.082.965.245 1.337.164.368.38.675.652.919.278.243.596.428.952.557.357.129.725.215 1.106.256v1.322h1.262v-1.322c.453-.046.86-.139 1.223-.276.363-.138.671-.323.925-.553.254-.23.45-.5.59-.813.139-.317.207-.671.207-1.066 0-.405-.066-.762-.2-1.07a2.333 2.333 0 0 0-.59-.813c-.26-.234-.579-.439-.96-.613-.38-.18-.82-.341-1.315-.484a7.62 7.62 0 0 1-.978-.378 2.985 2.985 0 0 1-.636-.42 1.348 1.348 0 0 1-.353-.483c-.066-.179-.1-.378-.1-.598 0-.24.034-.457.1-.655.073-.197.178-.366.317-.504.145-.142.325-.252.536-.33.212-.078.461-.117.751-.117.278 0 .526.053.743.158.218.106.4.252.545.44.145.189.254.413.326.67.079.257.118.539.118.847h1.589c0-.933-.235-1.667-.7-2.205-.46-.542-1.11-.87-1.957-.984v-1.524h-1.28z"/>
</svg>
