<?xml version="1.0" encoding="UTF-8"?>
<svg width="25px" height="16px" viewBox="0 0 25 16" version="1.1" xmlns="http://www.w3.org/2000/svg" xmlns:xlink="http://www.w3.org/1999/xlink">
    <!-- Generator: Sketch 46.2 (44496) - http://www.bohemiancoding.com/sketch -->
    <title>Group 10</title>
    <desc>Created with Sketch.</desc>
    <defs></defs>
    <g id="08.-Treasury" stroke="none" stroke-width="1" fill="none" fill-rule="evenodd">
        <g id="100_Treasury_Services" transform="translate(-460.000000, -1716.000000)">
            <g id="Group-26-Copy-2" transform="translate(430.000000, 1688.000000)">
                <g id="Group-10" transform="translate(30.000000, 24.000000)">
                    <g id="Group-15">
                        <g id="Group-34" transform="translate(1.000000, 5.000000)">
                            <polygon id="Stroke-1168" stroke="#212121" stroke-width="2" stroke-linecap="round" stroke-linejoin="round" points="22 14 4 14 4 0 22.0693363 0"></polygon>
                            <path d="M11.5,7 C11.5,6.17125 12.17125,5.5 13,5.5 C13.82875,5.5 14.5,6.17125 14.5,7 C14.5,7.82875 13.82875,8.5 13,8.5 C12.17125,8.5 11.5,7.82875 11.5,7 L11.5,7 Z" id="Stroke-1169" fill="#212121"></path>
                            <path d="M9.25,3 C9.25,4.3256 8.24275,5.4 7,5.4 L7,8.6 C8.24275,8.6 9.25,9.6744 9.25,11 L16.75,11 C16.75,9.6744 17.75725,8.6 19,8.6 L19,5.4 C17.75725,5.4 16.75,4.3256 16.75,3 L9.25,3 Z" id="Stroke-1170" stroke="#212121" stroke-width="2" stroke-linecap="round" stroke-linejoin="round"></path>
                            <path d="M2,3 L3.5,3" id="Line-2" stroke="#212121" stroke-width="2" stroke-linecap="round" stroke-linejoin="round"></path>
                            <path d="M0,7 L3.5,7" id="Line-2-Copy" stroke="#212121" stroke-width="2" stroke-linecap="round" stroke-linejoin="round"></path>
                            <path d="M2,11 L3.5,11" id="Line-2-Copy-2" stroke="#212121" stroke-width="2" stroke-linecap="round" stroke-linejoin="round"></path>
                        </g>
                    </g>
                </g>
            </g>
        </g>
    </g>
</svg>