<?xml version="1.0" encoding="UTF-8"?>
<svg width="50px" height="30px" viewBox="0 0 50 30" version="1.1" xmlns="http://www.w3.org/2000/svg" xmlns:xlink="http://www.w3.org/1999/xlink">
    <!-- Generator: Sketch 46.2 (44496) - http://www.bohemiancoding.com/sketch -->
    <title>MasterCard_Logo</title>
    <desc>Created with Sketch.</desc>
    <defs></defs>
    <g id="Page-1" stroke="none" stroke-width="1" fill="none" fill-rule="evenodd">
        <g id="MasterCard_Logo" fill-rule="nonzero">
            <g id="g10305">
                <path d="M49.7818994,15 C49.7842458,23.2015642 43.1373184,29.8515084 34.9357542,29.8536872 C26.7340223,29.8556983 20.0842458,23.2091061 20.082067,15.0075419 C20.082067,15.0048603 20.082067,15.0026816 20.082067,15 C20.0798883,6.79860335 26.7268156,0.148324022 34.9280447,0.146145251 C43.1297765,0.14396648 49.7797207,6.79089385 49.7818994,14.9924581 C49.7818994,14.9949721 49.7818994,14.9973184 49.7818994,15 Z" id="path2268" fill="#FF9900"></path>
                <path d="M14.9163687,0.15 C6.76340782,0.201787709 0.162067039,6.83480447 0.162067039,15 C0.162067039,23.1970391 6.81486034,29.8498324 15.012067,29.8498324 C18.8592737,29.8498324 22.3660894,28.3836872 25.0049162,25.9806704 C25.0047486,25.9806704 25.0044134,25.9803352 25.003743,25.98 L25.0069274,25.98 C25.5472626,25.4875978 26.0512291,24.9563128 26.5144693,24.3898324 L23.472067,24.3898324 C23.0658101,23.8991061 22.6965922,23.3877654 22.3649162,22.8601676 L27.612067,22.8601676 C27.9311732,22.3494972 28.2201117,21.8192179 28.4765363,21.27 L21.4986034,21.27 C21.2607821,20.7601676 21.0543017,20.2387709 20.8779888,19.7098324 L29.0978212,19.7098324 C29.5932402,18.2296089 29.862067,16.6459777 29.862067,14.9998324 C29.862067,13.9084358 29.743743,12.8443575 29.5198324,11.8198324 L20.442067,11.8198324 C20.5545251,11.2925698 20.6964804,10.771676 20.8657542,10.2598324 L29.0886034,10.2598324 C28.9047486,9.71513966 28.6912291,9.18435754 28.4483799,8.6698324 L21.4977654,8.6698324 C21.7484916,8.13418994 22.0325698,7.61312849 22.3498324,7.11 L27.5931285,7.11 C27.2441899,6.55407821 26.8580447,6.02296089 26.4405587,5.5198324 L23.5171508,5.5198324 C23.969162,4.98787709 24.4667598,4.48692737 25.0069274,4.0198324 C22.367933,1.61648045 18.8601117,0.15 15.012067,0.15 C14.9800559,0.15 14.9483799,0.149832402 14.9163687,0.15 Z" id="path1350" fill="#CC0000"></path>
                <path d="M48.2921229,22.7631285 C48.372905,22.7631285 48.4515084,22.7840782 48.5282682,22.8253073 C48.6053631,22.8665363 48.6646927,22.9260335 48.7075978,23.0032961 C48.7505028,23.0797207 48.7719553,23.1603352 48.7719553,23.2437989 C48.7719553,23.326257 48.7506704,23.4060335 48.7084358,23.4824581 C48.6663687,23.5587151 48.6070391,23.6182123 48.5306145,23.6606145 C48.4550279,23.7023464 48.3750838,23.7234637 48.2919553,23.7234637 C48.2088268,23.7234637 48.1290503,23.7023464 48.0529609,23.6606145 C47.9767039,23.6180447 47.9177095,23.5588827 47.8748045,23.4824581 C47.8325698,23.4060335 47.8116201,23.326257 47.8116201,23.2437989 C47.8116201,23.1603352 47.832905,23.0797207 47.8759777,23.0032961 C47.9192179,22.9260335 47.9788827,22.8670391 48.0554749,22.8253073 C48.132905,22.7840782 48.2115084,22.7631285 48.2921229,22.7631285 M48.2921229,22.8427374 C48.2249162,22.8427374 48.1592179,22.8601676 48.0950279,22.8948603 C48.0313408,22.9295531 47.9815642,22.9786592 47.9456983,23.0436872 C47.9093296,23.1077095 47.8912291,23.1740782 47.8912291,23.2437989 C47.8912291,23.3128492 47.9089944,23.3795531 47.9440223,23.442905 C47.9798883,23.5060894 48.0294972,23.5556983 48.0928492,23.5912291 C48.1567039,23.6265922 48.222905,23.6440223 48.2919553,23.6440223 C48.3613408,23.6440223 48.4277095,23.6265922 48.4912291,23.5912291 C48.554581,23.5556983 48.6040223,23.5060894 48.6393855,23.442905 C48.6744134,23.3795531 48.6918436,23.3130168 48.6918436,23.2437989 C48.6918436,23.1740782 48.6740782,23.1075419 48.6380447,23.0436872 C48.6023464,22.9786592 48.5524022,22.9295531 48.4882123,22.8948603 C48.4246927,22.86 48.3593296,22.8427374 48.2921229,22.8427374 M48.0816201,23.5089385 L48.0816201,22.9924022 L48.2596089,22.9924022 C48.3199441,22.9924022 48.3638547,22.997095 48.3910056,23.0071508 C48.4181564,23.0167039 48.4397765,23.0329609 48.4560335,23.0569274 C48.4719553,23.0805587 48.4801676,23.1056983 48.4801676,23.132514 C48.4801676,23.1703911 48.4667598,23.2032402 48.4396089,23.2310615 C48.4131285,23.2588827 48.377095,23.2748045 48.332514,23.2781564 C48.3507821,23.2856983 48.3653631,23.2952514 48.3767598,23.3056425 C48.3977095,23.3257542 48.4228492,23.3597765 48.4530168,23.4078771 L48.5158659,23.5089385 L48.4143017,23.5089385 L48.3687151,23.4276536 C48.3326816,23.3636313 48.3036872,23.323743 48.2813966,23.3073184 C48.2661453,23.2957542 48.2438547,23.2897207 48.2148603,23.2897207 L48.1657542,23.2897207 L48.1657542,23.5094413 L48.0819553,23.5094413 M48.1650838,23.2181564 L48.2663128,23.2181564 C48.314581,23.2181564 48.3472626,23.2107821 48.3648603,23.1965363 C48.3826257,23.1817877 48.3915084,23.1630168 48.3915084,23.1392179 C48.3915084,23.1237989 48.387486,23.1100559 48.3789385,23.098324 C48.3702235,23.0860894 48.3584916,23.0773743 48.3432402,23.0711732 C48.328324,23.0653073 48.3005028,23.0619553 48.2599441,23.0619553 L48.165419,23.0619553 L48.165419,23.2181564" id="use9412" fill="#FCB340"></path>
            </g>
            <g id="g16480" transform="translate(1.005587, 11.061453)">
                <g id="g13802" transform="translate(0.042897, 0.334173)" fill="#000066">
                    <path d="M18.8914525,7.86469274 L19.0892179,6.52055866 C18.9811173,6.52055866 18.8222346,6.56731844 18.6817877,6.56731844 C18.1313966,6.56731844 18.0626816,6.27318436 18.1059218,6.05832402 L18.6482682,3.35497207 L19.4849162,3.35497207 L19.6573743,1.82932961 L18.8688268,1.82932961 L19.0293855,0.904860335 L17.3798883,0.904860335 C17.3450279,0.93972067 16.4467039,6.10407821 16.4467039,6.73324022 C16.4467039,7.66424581 16.9692737,8.07854749 17.7063687,8.07201117 C18.2832402,8.06715084 18.732905,7.90743017 18.8914525,7.86469274 Z" id="path13804"></path>
                    <path d="M19.392067,5.3024581 C19.392067,7.53687151 20.8667598,8.06765363 22.1234078,8.06765363 C23.283352,8.06765363 23.8915642,7.79882682 23.8915642,7.79882682 L24.1701117,6.27368715 C24.1701117,6.27368715 23.19,6.67223464 22.3934078,6.67223464 C20.6954749,6.67223464 20.9931285,5.40620112 20.9931285,5.40620112 L24.2550838,5.41608939 C24.2550838,5.41608939 24.4627374,4.39189944 24.4627374,3.97441341 C24.4627374,2.9324581 23.8950838,1.65335196 22.1591061,1.65335196 C20.5692737,1.65368715 19.392067,3.36670391 19.392067,5.3024581 Z M22.1651397,3.06921788 C23.0574302,3.06921788 22.8928492,4.07212291 22.8928492,4.15340782 L21.1374302,4.15340782 C21.1374302,4.04949721 21.3031844,3.06921788 22.1651397,3.06921788 Z" id="path13806"></path>
                    <path d="M32.177095,7.86418994 L32.4601676,6.14061453 C32.4601676,6.14061453 31.6838547,6.52960894 31.1517318,6.52960894 C30.03,6.52960894 29.58,5.67318436 29.58,4.75290503 C29.58,2.88636872 30.5450279,1.85932961 31.6193296,1.85932961 C32.4251397,1.85932961 33.0715642,2.31167598 33.0715642,2.31167598 L33.3296648,0.636871508 C33.3296648,0.636871508 32.5664246,0.0856424581 31.7448603,0.0824581006 C29.2736313,0.0727374302 27.8596089,1.79329609 27.8596089,4.76765363 C27.8596089,6.73910615 28.9067598,8.08072626 30.7935754,8.08072626 C31.3270391,8.08072626 32.177095,7.86418994 32.177095,7.86418994 Z" id="path13808"></path>
                    <path d="M10.1949721,1.67798883 C9.11078212,1.67798883 8.2798324,2.02642458 8.2798324,2.02642458 L8.05022346,3.38849162 C8.05022346,3.38849162 8.73620112,3.10977654 9.77329609,3.10977654 C10.362067,3.10977654 10.7927933,3.17597765 10.7927933,3.65446927 C10.7927933,3.9450838 10.7401676,4.05234637 10.7401676,4.05234637 C10.7401676,4.05234637 10.2755866,4.01363128 10.0603911,4.01363128 C8.51681564,4.01363128 7.25664804,4.5972067 7.25664804,6.35664804 C7.25664804,7.74318436 8.19905028,8.06111732 8.78312849,8.06111732 C9.89882682,8.06111732 10.3404469,7.35670391 10.3659218,7.35469274 L10.3530168,7.93927374 C10.3530168,7.93927374 11.7450838,7.93927374 11.7452514,7.93927374 L12.3663687,3.5850838 C12.3663687,1.73731844 10.7547486,1.67798883 10.1949721,1.67798883 Z M10.4359777,5.21363128 C10.4663128,5.47944134 10.3672626,6.73642458 9.41497207,6.73642458 C8.92391061,6.73642458 8.79636872,6.36100559 8.79636872,6.13944134 C8.79636872,5.70636872 9.03150838,5.18698324 10.1899441,5.18698324 C10.4597765,5.18698324 10.3905587,5.20642458 10.4359777,5.21363128 Z" id="path13810"></path>
                    <path d="M13.8460894,8.02893855 C14.2022346,8.02893855 16.2380447,8.11960894 16.2380447,6.01877095 C16.2380447,4.05435754 14.3535754,4.44268156 14.3535754,3.65329609 C14.3535754,3.26078212 14.6607821,3.13709497 15.2224022,3.13709497 C15.4451397,3.13709497 16.302905,3.20798883 16.302905,3.20798883 L16.5021788,1.81189944 C16.5021788,1.81206704 15.947095,1.6877095 15.0434078,1.6877095 C13.873743,1.6877095 12.6864804,2.15463687 12.6864804,3.75217877 C12.6864804,5.56256983 14.6661453,5.38072626 14.6661453,6.14329609 C14.6661453,6.6522905 14.1130726,6.69418994 13.6867039,6.69418994 C12.9491061,6.69418994 12.2850838,6.44094972 12.2827374,6.45318436 L12.0717318,7.83502793 C12.1101117,7.84675978 12.5198883,8.02893855 13.8460894,8.02893855 Z" id="path13812"></path>
                    <path d="M45.2190503,0.411452514 L44.9332961,2.54145251 C44.9332961,2.54145251 44.3378212,1.71938547 43.4061453,1.71938547 C41.6532402,1.71938547 40.7498883,3.46625698 40.7498883,5.47290503 C40.7498883,6.76843575 41.3941341,8.03832402 42.7106145,8.03832402 C43.6577095,8.03832402 44.1827933,7.37782123 44.1827933,7.37782123 L44.1132402,7.94178771 L45.6514525,7.94178771 L46.8593296,0.42301676 L45.2190503,0.411452514 Z M44.5399441,4.55128492 C44.5399441,5.38642458 44.1263128,6.50212291 43.2693855,6.50212291 C42.7002235,6.50212291 42.4334078,6.02430168 42.4334078,5.27463687 C42.4334078,4.04865922 42.9839665,3.24 43.6789944,3.24 C44.2478212,3.24 44.5399441,3.63050279 44.5399441,4.55128492 Z" id="path13814"></path>
                    <polygon id="path13816" points="1.63391061 7.94798883 2.59642458 2.27145251 2.73787709 7.94798883 3.82709497 7.94798883 5.85921788 2.27145251 4.95905028 7.94798883 6.5777095 7.94798883 7.82413408 0.419162011 5.25284916 0.399553073 3.72335196 5.00916201 3.68145251 0.419162011 1.32502793 0.419162011 0.0606703911 7.94798883"></polygon>
                    <path d="M25.994581,7.95871508 C26.4548045,5.34167598 26.6187151,3.27486034 27.960838,3.70290503 C28.1535754,2.68994413 28.6129609,1.80905028 28.8227933,1.3803352 C28.8227933,1.3803352 28.7564246,1.28162011 28.3416201,1.28162011 C27.6335196,1.28162011 26.6881006,2.71860335 26.6881006,2.71860335 L26.8293855,1.8301676 L25.3568715,1.8301676 L24.3707263,7.95854749 L25.994581,7.95854749 L25.994581,7.95871508 Z" id="path13818"></path>
                    <g id="use14699" transform="translate(32.396665, 1.675978)">
                        <path d="M3.09217877,0.00201117318 C2.00748603,0.00201117318 1.17653631,0.350446927 1.17653631,0.350446927 L0.947094972,1.71251397 C0.947094972,1.71251397 1.63340782,1.43379888 2.67,1.43379888 C3.25893855,1.43379888 3.68949721,1.5 3.68949721,1.97849162 C3.68949721,2.26910615 3.63703911,2.37636872 3.63703911,2.37636872 C3.63703911,2.37636872 3.1726257,2.33765363 2.95743017,2.33765363 C1.41368715,2.33765363 0.153687151,2.92122905 0.153687151,4.68067039 C0.153687151,6.0672067 1.09592179,6.38513966 1.68,6.38513966 C2.79536313,6.38513966 3.23731844,5.68072626 3.2626257,5.67871508 L3.24955307,6.26329609 L4.64212291,6.26329609 L5.26307263,1.90910615 C5.26324022,0.0613407821 3.65162011,0.00201117318 3.09217877,0.00201117318 Z M3.33284916,3.53765363 C3.36301676,3.80346369 3.26396648,5.06044693 2.31184358,5.06044693 C1.82044693,5.06044693 1.69307263,4.68502793 1.69307263,4.46346369 C1.69307263,4.03039106 1.92804469,3.51100559 3.08664804,3.51100559 C3.35664804,3.51100559 3.28759777,3.53044693 3.33284916,3.53765363 Z" id="path13810_1_"></path>
                    </g>
                    <path d="M39.2624581,7.95871508 C39.5151955,6.03335196 39.9829609,3.3303352 41.2285475,3.70290503 C41.4211173,2.68994413 41.235419,2.6926257 40.8207821,2.6926257 C40.1121788,2.6926257 39.9553073,2.71843575 39.9553073,2.71843575 L40.0967598,1.83 L38.6244134,1.83 L37.6382682,7.95854749 L39.2624581,7.95854749 L39.2624581,7.95871508 Z" id="use14701"></path>
                </g>
                <g id="g10289" transform="translate(0.502793, 0.000000)" fill="#FFFFFF">
                    <path d="M18.8436872,7.71938547 L19.0416201,6.37541899 C18.9335196,6.37541899 18.7744693,6.42167598 18.6341899,6.42167598 C18.0837989,6.42167598 18.0231285,6.12905028 18.0581564,5.91268156 L18.5027933,3.17044693 L19.3392737,3.17044693 L19.5412291,1.68385475 L18.752514,1.68385475 L18.9130726,0.759385475 L17.3319553,0.759385475 C17.297095,0.79424581 16.3986034,5.95877095 16.3986034,6.58759777 C16.3986034,7.51860335 16.9213408,7.93324022 17.6584358,7.92653631 C18.2356425,7.92167598 18.6851397,7.76195531 18.8436872,7.71938547 Z" id="path4157"></path>
                    <path d="M19.3446369,5.15698324 C19.3446369,7.39139665 20.8194972,7.92234637 22.0759777,7.92234637 C23.2357542,7.92234637 23.7460894,7.66307263 23.7460894,7.66307263 L24.0246369,6.13810056 C24.0246369,6.13810056 23.1424022,6.52675978 22.3456425,6.52675978 C20.6478771,6.52675978 20.9451955,5.26089385 20.9451955,5.26089385 L24.1583799,5.26089385 C24.1583799,5.26089385 24.3658659,4.23636872 24.3658659,3.81888268 C24.3658659,2.77709497 23.8473184,1.5077095 22.1113408,1.5077095 C20.5215084,1.50804469 19.3446369,3.22106145 19.3446369,5.15698324 Z M22.1173743,2.92374302 C23.0096648,2.92374302 22.8450838,3.92648045 22.8450838,4.00759777 L21.0896648,4.00759777 C21.0896648,3.90402235 21.2555866,2.92374302 22.1173743,2.92374302 Z" id="path4155"></path>
                    <path d="M32.1296648,7.71871508 L32.4125698,5.99497207 C32.4125698,5.99497207 31.6367598,6.38396648 31.1043017,6.38396648 C29.9827374,6.38396648 29.532905,5.5275419 29.532905,4.60743017 C29.532905,2.74089385 30.497933,1.71402235 31.5722346,1.71402235 C32.3778771,1.71402235 33.0244693,2.16636872 33.0244693,2.16636872 L33.2825698,0.491564246 C33.2825698,0.491564246 32.323743,0.103575419 31.5018436,0.103575419 C29.6765363,0.103575419 27.900838,1.68703911 27.900838,4.66089385 C27.900838,6.63284916 28.8596648,7.9352514 30.7464804,7.9352514 C31.2799441,7.93541899 32.1296648,7.71871508 32.1296648,7.71871508 Z" id="path4151"></path>
                    <path d="M10.1475419,1.53234637 C9.06335196,1.53234637 8.23223464,1.88078212 8.23223464,1.88078212 L8.0027933,3.24284916 C8.0027933,3.24284916 8.68877095,2.96413408 9.72569832,2.96413408 C10.3144693,2.96413408 10.7451955,3.0303352 10.7451955,3.50882682 C10.7451955,3.79944134 10.6924022,3.90670391 10.6924022,3.90670391 C10.6924022,3.90670391 10.2279888,3.86782123 10.0129609,3.86782123 C8.64553073,3.86782123 7.20905028,4.45139665 7.20905028,6.21083799 C7.20905028,7.5972067 8.15145251,7.91530726 8.73553073,7.91530726 C9.85106145,7.91530726 10.3318994,7.19145251 10.3575419,7.18927374 L10.305419,7.79346369 L11.6976536,7.79346369 L12.3187709,3.43910615 C12.3187709,1.59184358 10.7073184,1.53234637 10.1475419,1.53234637 Z M10.486257,5.0777095 C10.5164246,5.34368715 10.3194972,6.59044693 9.3675419,6.59044693 C8.87648045,6.59044693 8.74877095,6.21536313 8.74877095,5.99346369 C8.74877095,5.56072626 8.98391061,5.04117318 10.142514,5.04117318 C10.4120112,5.04150838 10.440838,5.0703352 10.486257,5.0777095 Z" id="path4149"></path>
                    <path d="M13.7984916,7.88346369 C14.1546369,7.88346369 16.1906145,7.97396648 16.1906145,5.87312849 C16.1906145,3.90905028 14.3059777,4.29703911 14.3059777,3.50798883 C14.3059777,3.11513966 14.6131844,2.99145251 15.1746369,2.99145251 C15.3975419,2.99145251 16.2551397,3.06234637 16.2551397,3.06234637 L16.454581,1.66625698 C16.454581,1.66642458 15.8994972,1.54206704 14.9958101,1.54206704 C13.8261453,1.54206704 12.6388827,2.00899441 12.6388827,3.60653631 C12.6388827,5.41675978 14.6185475,5.2350838 14.6185475,5.99765363 C14.6185475,6.50664804 14.0654749,6.54804469 13.6392737,6.54804469 C12.901676,6.54804469 12.237486,6.29497207 12.2351397,6.30703911 L12.0243017,7.68905028 C12.062514,7.70078212 12.4721229,7.88346369 13.7984916,7.88346369 Z" id="path4145"></path>
                    <path d="M45.2265922,0.279553073 L44.8855307,2.39581006 C44.8855307,2.39581006 44.2903911,1.57374302 43.3587151,1.57374302 C41.91,1.57374302 40.7024581,3.32044693 40.7024581,5.32743017 C40.7024581,6.62296089 41.3465363,7.89234637 42.6631844,7.89234637 C43.6102793,7.89234637 44.1353631,7.23201117 44.1353631,7.23201117 L44.0658101,7.79597765 L45.6036872,7.79597765 L46.8115642,0.277039106 L45.2265922,0.279553073 Z M44.4923464,4.40581006 C44.4923464,5.24094972 44.0788827,6.35648045 43.2216201,6.35648045 C42.6526257,6.35648045 42.3859777,5.87882682 42.3859777,5.12916201 C42.3859777,3.90335196 42.9365363,3.09452514 43.6312291,3.09452514 C44.2003911,3.09435754 44.4923464,3.48536313 44.4923464,4.40581006 Z" id="path4139"></path>
                    <polygon id="path4133" points="1.58648045 7.80251397 2.54899441 2.12597765 2.69027933 7.80251397 3.7796648 7.80251397 5.81178771 2.12597765 4.91162011 7.80251397 6.53027933 7.80251397 7.77687151 0.273519553 5.27379888 0.273519553 3.71497207 4.89301676 3.63385475 0.273519553 1.32653631 0.273519553 0.0620111732 7.80251397"></polygon>
                    <path d="M25.9471508,7.81290503 C26.4073743,5.19569832 26.4926816,3.07055866 27.5909497,3.45955307 C27.7831844,2.44659218 27.9687151,2.0547486 28.1785475,1.62603352 C28.1785475,1.62603352 28.0801676,1.60541899 27.8736872,1.60541899 C27.1655866,1.60541899 26.6410056,2.5727933 26.6410056,2.5727933 L26.7819553,1.68435754 L25.3097765,1.68435754 L24.3234637,7.81290503 L25.9471508,7.81290503 L25.9471508,7.81290503 Z" id="path4131"></path>
                    <g id="use8523" transform="translate(32.682603, 1.508380)">
                        <path d="M3.09536313,0.0239664804 C2.01117318,0.0239664804 1.18005587,0.372402235 1.18005587,0.372402235 L0.950782123,1.73446927 C0.950782123,1.73446927 1.63675978,1.45575419 2.67368715,1.45575419 C3.2624581,1.45575419 3.69284916,1.52195531 3.69284916,2.00044693 C3.69284916,2.29106145 3.64039106,2.39832402 3.64039106,2.39832402 C3.64039106,2.39832402 3.17597765,2.35944134 2.96078212,2.35944134 C1.59351955,2.35944134 0.157039106,2.94301676 0.157039106,4.7024581 C0.157039106,6.08882682 1.09927374,6.40692737 1.68335196,6.40692737 C2.79888268,6.40692737 3.27972067,5.68307263 3.30519553,5.68089385 L3.25340782,6.2850838 C3.25340782,6.2850838 4.64513966,6.2850838 4.64564246,6.2850838 L5.26659218,1.93072626 C5.26675978,0.0834636872 3.65513966,0.0239664804 3.09536313,0.0239664804 Z M3.43458101,3.56932961 C3.4647486,3.83530726 3.26765363,5.08206704 2.31536313,5.08206704 C1.82430168,5.08206704 1.69692737,4.70698324 1.69692737,4.4850838 C1.69692737,4.05234637 1.93206704,3.5327933 3.09050279,3.5327933 C3.36,3.53312849 3.38865922,3.56195531 3.43458101,3.56932961 Z" id="path4149_1_"></path>
                    </g>
                    <g id="use8525" transform="translate(37.589782, 1.508380)">
                        <path d="M1.63189944,6.30452514 C2.0922905,3.68731844 2.17759777,1.56217877 3.27553073,1.95117318 C3.46810056,0.938212291 3.65379888,0.546368715 3.86346369,0.117653631 C3.86346369,0.117653631 3.7650838,0.0970391061 3.55860335,0.0970391061 C2.85050279,0.0970391061 2.32592179,1.06441341 2.32592179,1.06441341 L2.46687151,0.175977654 L0.994692737,0.175977654 L0.00837988827,6.30452514 L1.63189944,6.30452514 L1.63189944,6.30452514 Z" id="path4131_1_"></path>
                    </g>
                    <path d="M46.7773743,6.86731844 C46.8576536,6.86731844 46.9367598,6.88793296 47.0130168,6.9298324 C47.0899441,6.97039106 47.1497765,7.03005587 47.1926816,7.10731844 C47.2357542,7.18407821 47.2568715,7.26402235 47.2568715,7.34765363 C47.2568715,7.43027933 47.2357542,7.51005587 47.193352,7.58631285 C47.1512849,7.66256983 47.0921229,7.72240223 47.0158659,7.76446927 C46.9397765,7.80636872 46.86,7.82748603 46.7772067,7.82748603 C46.693743,7.82748603 46.6139665,7.80636872 46.5377095,7.76446927 C46.4616201,7.72206704 46.4026257,7.66256983 46.3603911,7.58631285 C46.317486,7.51005587 46.2965363,7.43027933 46.2965363,7.34765363 C46.2965363,7.26402235 46.3178212,7.18407821 46.3608939,7.10731844 C46.4041341,7.03005587 46.4641341,6.97072626 46.5407263,6.9298324 C46.6179888,6.88793296 46.697095,6.86731844 46.7773743,6.86731844 M46.7773743,6.94642458 C46.7101676,6.94642458 46.6444693,6.96385475 46.5802793,6.99888268 C46.516257,7.03307263 46.4664804,7.08251397 46.4304469,7.1472067 C46.394581,7.21106145 46.3764804,7.27793296 46.3764804,7.34731844 C46.3764804,7.41670391 46.3939106,7.48307263 46.4289385,7.54642458 C46.4646369,7.60960894 46.5142458,7.65921788 46.5782682,7.6949162 C46.6416201,7.72977654 46.7078212,7.7473743 46.7773743,7.7473743 C46.8464246,7.7473743 46.9131285,7.72977654 46.9764804,7.6949162 C47.0398324,7.65921788 47.0894413,7.60960894 47.1246369,7.54642458 C47.16,7.48256983 47.1772626,7.41670391 47.1772626,7.34731844 C47.1772626,7.27793296 47.1593296,7.21106145 47.1234637,7.1472067 C47.0877654,7.08251397 47.0379888,7.03307263 46.9736313,6.99888268 C46.9099441,6.96402235 46.8447486,6.94642458 46.7773743,6.94642458 M46.5670391,7.6127933 L46.5670391,7.09608939 L46.7448603,7.09608939 C46.8053631,7.09608939 46.8496089,7.10094972 46.8764246,7.11083799 C46.9035754,7.12005587 46.9248603,7.13664804 46.9414525,7.16061453 C46.9577095,7.18441341 46.9659218,7.20938547 46.9659218,7.23620112 C46.9659218,7.27391061 46.9521788,7.30692737 46.9250279,7.3347486 C46.8985475,7.36256983 46.8628492,7.37865922 46.8182682,7.38167598 C46.8360335,7.38938547 46.8507821,7.39860335 46.8621788,7.40899441 C46.8827933,7.42944134 46.9082682,7.46363128 46.9384358,7.51139665 L47.0016201,7.6126257 L46.8995531,7.6126257 L46.8541341,7.53134078 C46.817933,7.46715084 46.7889385,7.42726257 46.7668156,7.41100559 C46.7515642,7.39910615 46.7292737,7.39324022 46.6999441,7.39324022 L46.6511732,7.39324022 L46.6511732,7.61296089 L46.5670391,7.6127933 M46.6505028,7.32201117 L46.7517318,7.32201117 C46.8001676,7.32201117 46.8328492,7.31480447 46.8502793,7.30039106 C46.8678771,7.28631285 46.877095,7.26703911 46.877095,7.24307263 C46.877095,7.22782123 46.872905,7.21407821 46.8645251,7.20251397 C46.8559777,7.19011173 46.8440782,7.18122905 46.8288268,7.17502793 C46.8135754,7.16916201 46.786257,7.16614525 46.7453631,7.16614525 L46.6506704,7.16614525 L46.6506704,7.32201117" id="text9407"></path>
                </g>
            </g>
        </g>
    </g>
</svg>