<?xml version="1.0" encoding="UTF-8"?>
<svg width="32px" height="28px" viewBox="0 0 32 28" version="1.1" xmlns="http://www.w3.org/2000/svg" xmlns:xlink="http://www.w3.org/1999/xlink">
    <!-- Generator: Sketch 46.2 (44496) - http://www.bohemiancoding.com/sketch -->
    <title>Group 35</title>
    <desc>Created with Sketch.</desc>
    <defs></defs>
    <g id="07.-DigitalBanking" stroke="none" stroke-width="1" fill="none" fill-rule="evenodd" stroke-linecap="round" stroke-linejoin="round">
        <g id="0700_SmartBanking_VER.3" transform="translate(-514.000000, -2020.000000)" stroke-width="2">
            <g id="Group-45" transform="translate(495.000000, 1999.000000)">
                <g id="Group-35" transform="translate(20.000000, 20.000000)">
                    <g id="Group-32" transform="translate(0.937500, 2.812500)">
                        <polygon id="Stroke-843" stroke="#21409A" points="28.125 24.375 0 24.375 0 4.6875 28.125 4.6875"></polygon>
                        <path d="M11.25,14.0625 C11.25,12.5085937 12.5085937,11.25 14.0625,11.25 C15.6164063,11.25 16.875,12.5085937 16.875,14.0625 C16.875,15.6164063 15.6164063,16.875 14.0625,16.875 C12.5085937,16.875 11.25,15.6164063 11.25,14.0625 L11.25,14.0625 Z" id="Stroke-844" stroke="#ED1D24"></path>
                        <path d="M20.5078125,7.5 L7.6171875,7.5 C7.6171875,9.6748125 5.88597656,11.4375 3.75,11.4375 L3.75,16.6875 C5.88597656,16.6875 7.6171875,18.4501875 7.6171875,20.625 L20.5078125,20.625 C20.5078125,18.4501875 22.2390234,16.6875 24.375,16.6875 L24.375,11.4375 C22.2390234,11.4375 20.5078125,9.6748125 20.5078125,7.5 L20.5078125,7.5 Z" id="Stroke-845" stroke="#ED1D24"></path>
                        <path d="M3.75,0 L24.375,0" id="Stroke-1166" stroke="#21409A"></path>
                    </g>
                </g>
            </g>
        </g>
    </g>
</svg>