<svg xmlns="http://www.w3.org/2000/svg" width="24" height="24" viewBox="0 0 24 24">
    <g fill="none" fill-rule="evenodd" stroke="#212121" stroke-linecap="round" stroke-linejoin="round" stroke-width="2">
        <path d="M15.5 17H1V1h22v10.917"/>
        <path d="M10 9a2 2 0 1 1 3.999-.001A2 2 0 0 1 10 9z"/>
        <path d="M20 10V7a3 3 0 0 1-3-3H7a3 3 0 0 1-3 3v4a3 3 0 0 1 3 3h8.5M21.631 19.494c.84.367 1.37.906 1.37 1.506 0 1.105-1.792 2-4 2-2.21 0-4-.895-4-2 0-.597.522-1.133 1.353-1.5"/>
        <path d="M21.627 16.492c.84.367 1.373.906 1.373 1.508 0 1.105-1.791 2-4 2-2.21 0-4-.895-4-2 0-.591.513-1.122 1.329-1.488"/>
        <path d="M21.65 13.502c.827.365 1.35.901 1.35 1.497 0 1.105-1.79 2-4 2-2.209 0-4-.895-4-2 0-.593.516-1.126 1.336-1.492"/>
        <path d="M23 12c0 1.105-1.791 2-4 2s-4-.895-4-2 1.791-2 4-2 4 .895 4 2z"/>
    </g>
</svg>
