<?xml version="1.0" encoding="UTF-8"?>
<svg width="40" height="40" viewBox="0 0 40 40" version="1.1" xmlns="http://www.w3.org/2000/svg" xmlns:xlink="http://www.w3.org/1999/xlink">
    <g id="Icon" stroke="none" stroke-width="1" fill="none" fill-rule="evenodd" stroke-linecap="round" stroke-linejoin="round">
        <g id="Icon_24x24-Copy-3" transform="translate(-74.000000, -117.000000)" stroke="#345DD4" stroke-width="2">
            <g id="Group-29" transform="translate(72.000000, 114.000000)">
                <g id="Group-27" transform="translate(3.000000, 3.000000)">
                    <path d="M0,17 L10,17" id="Shape"></path>
                    <path d="M0,25 L10,25" id="Shape-Copy"></path>
                    <path d="M0,9 L29,9" id="Shape-Copy-3"></path>
                    <path d="M0,1 L29,1" id="Shape-Copy-4"></path>
                    <g id="Group-11" transform="translate(15.000000, 16.000000)">
                        <path d="M18,18 L15.4285714,15.4285714" id="Stroke-473"></path>
                        <path d="M7.71428571,0 C11.9751429,0 15.4285714,3.45342857 15.4285714,7.71428571 C15.4285714,11.9751429 11.9751429,15.4285714 7.71428571,15.4285714 C3.45342857,15.4285714 0,11.9751429 0,7.71428571 C0,3.45342857 3.45342857,0 7.71428571,0 L7.71428571,0 Z" id="Stroke-474"></path>
                        <path d="M3.51428571,6.85714286 C3.85714286,5.14285714 5.14285714,3.85714286 6.85714286,3.51428571" id="Stroke-475"></path>
                    </g>
                </g>
            </g>
        </g>
    </g>
</svg>