<?xml version="1.0" encoding="UTF-8"?>
<svg width="24px" height="23px" viewBox="0 0 24 23" version="1.1" xmlns="http://www.w3.org/2000/svg" xmlns:xlink="http://www.w3.org/1999/xlink">
    <!-- Generator: Sketch 46.2 (44496) - http://www.bohemiancoding.com/sketch -->
    <title>Group 19</title>
    <desc>Created with Sketch.</desc>
    <defs></defs>
    <g id="02.-News-Promotions" stroke="none" stroke-width="1" fill="none" fill-rule="evenodd" stroke-linecap="round" stroke-linejoin="round">
        <g id="110_Promotion_Detail_page" transform="translate(-1045.000000, -745.000000)" stroke="#212121" stroke-width="2">
            <g id="Group-19" transform="translate(1045.000000, 745.000000)">
                <g id="Group-9" transform="translate(1.000000, 1.000000)">
                    <path d="M13.7113429,14.725305 L18.8572476,14.725305 C21.3893429,14.725305 22.0001048,16.825305 22.0001048,16.825305 L10.8932476,20.866755 C10.0310571,21.072555 9.12800952,21.040005 8.28258095,20.772255 L3.1429619,18.322605" id="Stroke-1039"></path>
                    <path d="M3.14285714,11.575305 L4.2072381,11.575305 C5.92742857,11.575305 7.49047619,12.342855 8.38095238,13.675305 L11.5238095,13.675305 C13.046,13.675305 14.6666667,15.299655 14.6666667,16.825305 L7.33333333,16.825305" id="Stroke-1040"></path>
                    <path d="M13.6190476,7.875 C13.6190476,6.42495 14.7913333,5.25 16.2380952,5.25 C17.6848571,5.25 18.8571429,6.42495 18.8571429,7.875 C18.8571429,9.32505 17.6848571,10.5 16.2380952,10.5 C14.7913333,10.5 13.6190476,9.32505 13.6190476,7.875 L13.6190476,7.875 Z" id="Stroke-1041"></path>
                    <path d="M6.28571429,2.625 C6.28571429,1.17495 7.458,0 8.9047619,0 C10.3515238,0 11.5238095,1.17495 11.5238095,2.625 C11.5238095,4.07505 10.3515238,5.25 8.9047619,5.25 C7.458,5.25 6.28571429,4.07505 6.28571429,2.625 L6.28571429,2.625 Z" id="Stroke-1042"></path>
                    <polygon id="Stroke-1043" points="3.14285714 18.9 0 18.9 0 10.5 3.14285714 10.5"></polygon>
                </g>
            </g>
        </g>
    </g>
</svg>