<svg xmlns="http://www.w3.org/2000/svg" width="24" height="24" viewBox="0 0 24 24">
    <g fill="none" fill-rule="evenodd" stroke="#212121" stroke-linecap="round" stroke-linejoin="round" stroke-width="2">
        <path d="M7.682 13.41H2.909A1.909 1.909 0 0 1 1 11.5V2.91C1 1.853 1.854 1 2.91 1h4.772c1.055 0 1.909.854 1.909 1.91v8.59c0 1.055-.854 1.91-1.91 1.91zM1 9.59h8.59M1 3.864h8.59M20.09 22h-4.772a1.909 1.909 0 0 1-1.909-1.91V11.5c0-1.055.854-1.91 1.91-1.91h4.772c1.055 0 1.909.855 1.909 1.91v8.59c0 1.056-.854 1.91-1.91 1.91zM13.41 18.182H22M13.41 12.455H22M13.41 1a4.773 4.773 0 0 1 4.772 4.773M4.818 17.227A4.773 4.773 0 0 0 9.591 22"/>
    </g>
</svg>
