<?xml version="1.0" encoding="UTF-8"?>
<svg width="30px" height="30px" viewBox="0 0 30 30" version="1.1" xmlns="http://www.w3.org/2000/svg" xmlns:xlink="http://www.w3.org/1999/xlink">
    <!-- Generator: Sketch 46.2 (44496) - http://www.bohemiancoding.com/sketch -->
    <title>Group 27 Copy</title>
    <desc>Created with Sketch.</desc>
    <defs></defs>
    <g id="02.-News-Promotions" stroke="none" stroke-width="1" fill="none" fill-rule="evenodd">
        <g id="103_News_Article_Option2" transform="translate(-170.000000, -374.000000)" fill="#FFFFFF">
            <g id="1stBanner">
                <g id="Group-7" transform="translate(130.000000, 344.000000)">
                    <g id="Group-5" transform="translate(0.000000, 30.000000)">
                        <g id="Group-27-Copy" transform="translate(40.000000, 0.000000)">
                            <g id="Icn_linkedIN">
                                <path d="M0,15 C0,6.71572834 6.71572834,0 15,0 C23.2842717,0 30,6.71572834 30,15 C30,23.2842717 23.2842717,30 15,30 C6.71572834,30 0,23.2842717 0,15 Z M11,12 L7,12 L7,23 L11,23 L11,12 Z M11,8.9993086 C10.9769229,7.86440808 10.2278771,7 9.01153853,7 C7.79519997,7 7,7.86440808 7,8.9993086 C7,10.1107014 7.77169687,11 8.96538441,11 L8.98810644,11 C10.2278771,11 11,10.1107014 11,8.9993086 Z M23,16.8375148 C23,13.5363949 21.2224454,12 18.8513891,12 C16.9383394,12 16.0818348,13.0431422 15.6036083,13.7749253 L15.6036083,12.2526538 L12,12.2526538 C12.0474916,13.2611292 12,23 12,23 L15.6036083,23 L15.6036083,16.9977952 C15.6036083,16.6765925 15.6269944,16.3561743 15.7222655,16.1262037 C15.982678,15.4845115 16.5756039,14.820136 17.5710576,14.820136 C18.8754227,14.820136 19.3968234,15.8056429 19.3968234,17.2498784 L19.3968234,22.9997147 L22.9998561,22.9997147 L23,16.8375148 Z"></path>
                            </g>
                        </g>
                    </g>
                </g>
            </g>
        </g>
    </g>
</svg>