<?xml version="1.0" encoding="UTF-8"?>
<svg width="18px" height="24px" viewBox="0 0 18 24" version="1.1" xmlns="http://www.w3.org/2000/svg" xmlns:xlink="http://www.w3.org/1999/xlink">
    <!-- Generator: Sketch 46.2 (44496) - http://www.bohemiancoding.com/sketch -->
    <title>Group 22</title>
    <desc>Created with Sketch.</desc>
    <defs></defs>
    <g id="07.-DigitalBanking" stroke="none" stroke-width="1" fill="none" fill-rule="evenodd" stroke-linecap="round" stroke-linejoin="round">
        <g id="100_DigitalBanking" transform="translate(-763.000000, -1072.000000)" stroke="#FFFFFF" stroke-width="2">
            <g id="Group-22" transform="translate(760.000000, 1072.000000)">
                <g id="Group-11" transform="translate(4.000000, 1.000000)">
                    <path d="M7,22 L1,22 C0.448,22 0,21.552 0,21 L0,9 C0,8.448 0.448,8 1,8 L7,8 C7.552,8 8,8.448 8,9 L8,21 C8,21.552 7.552,22 7,22 L7,22 Z" id="Stroke-4659"></path>
                    <path d="M12,9 C12,6.239 9.761,4 7,4" id="Stroke-4660"></path>
                    <path d="M16,9 C16,4.029 11.971,0 7,0" id="Stroke-4661"></path>
                    <path d="M3,11 L5,11" id="Stroke-4670"></path>
                </g>
            </g>
        </g>
    </g>
</svg>