<?xml version="1.0" encoding="UTF-8"?>
<svg width="66px" height="22px" viewBox="0 0 66 22" version="1.1" xmlns="http://www.w3.org/2000/svg" xmlns:xlink="http://www.w3.org/1999/xlink">
    <!-- Generator: Sketch 46.2 (44496) - http://www.bohemiancoding.com/sketch -->
    <title>Page 1</title>
    <desc>Created with Sketch.</desc>
    <defs>
        <polygon id="path-1" points="32.9577527 21.2858413 0 21.2858413 0 -0.000168342043 32.9577527 -0.000168342043 65.9155053 -0.000168342043 65.9155053 21.2858413 32.9577527 21.2858413"></polygon>
    </defs>
    <g id="03.-Cards" stroke="none" stroke-width="1" fill="none" fill-rule="evenodd">
        <g id="102_Cards_Creditcard" transform="translate(-387.000000, -704.000000)">
            <g id="Page-1" transform="translate(387.000000, 704.000000)">
                <mask id="mask-2" fill="white">
                    <use xlink:href="#path-1"></use>
                </mask>
                <g id="Clip-2"></g>
                <path d="M32.6380711,0.375234414 L28.2346641,20.9634663 L22.907901,20.9634663 L27.3121497,0.375234414 L32.6380711,0.375234414 Z M55.0448179,13.6683638 L57.8493963,5.93851808 L59.4621131,13.6683638 L55.0448179,13.6683638 Z M60.990238,20.9634663 L65.9155053,20.9634663 L61.6122618,0.375234414 L57.0691309,0.375234414 C56.0451905,0.375234414 55.1828584,0.969481825 54.8007219,1.88484168 L46.8091043,20.9634663 L52.4018478,20.9634663 L53.5116427,17.8886988 L60.3446462,17.8886988 L60.990238,20.9634663 Z M47.0864478,14.2415685 C47.1100157,8.8079082 39.5750258,8.50783851 39.6251076,6.0807671 C39.6423627,5.34216639 40.3451907,4.5564299 41.8829953,4.35526116 C42.6468473,4.25720192 44.7519645,4.17808116 47.1365296,5.2773547 L48.0695653,0.90887869 C46.7880615,0.446358927 45.1399929,-0.000168342043 43.0874826,-0.000168342043 C37.8225852,-0.000168342043 34.1182185,2.79641385 34.0887587,6.80421703 C34.0542485,9.76872041 36.7342539,11.4218393 38.7505707,12.4083236 C40.8262281,13.4171133 41.5214807,14.0648093 41.5130636,14.966281 C41.4983337,16.3475274 39.8544736,16.9581882 38.3271905,16.9813352 C35.647606,17.0238416 34.0954923,16.2570436 32.8569158,15.6800512 L31.8902116,20.1941431 C33.1363636,20.7639809 35.4329699,21.2610108 37.8112221,21.2858413 C43.4094367,21.2858413 47.0700345,18.5216649 47.0864478,14.2415685 L47.0864478,14.2415685 Z M25.0273274,0.375234414 L16.3972725,20.9634663 L10.766652,20.9634663 L6.52022401,4.53202031 C6.26266068,3.52280976 6.03960747,3.1511947 5.25555441,2.72444762 C3.97447146,2.02877413 1.85967455,1.37771128 -8.41710215e-05,0.972848666 L0.126593216,0.375234414 L9.19054966,0.375234414 C10.3441135,0.375234414 11.3823631,1.14371584 11.6466601,2.47403883 L13.8902386,14.3871844 L19.4307961,0.375234414 L25.0273274,0.375234414 Z" id="Fill-1" fill="#0F357F" mask="url(#mask-2)"></path>
            </g>
        </g>
    </g>
</svg>