<?xml version="1.0" encoding="UTF-8"?>
<svg width="80px" height="80px" viewBox="0 0 80 80" version="1.1" xmlns="http://www.w3.org/2000/svg" xmlns:xlink="http://www.w3.org/1999/xlink">
    <!-- Generator: Sketch 46.2 (44496) - http://www.bohemiancoding.com/sketch -->
    <title>Mind Map</title>
    <desc>Created with Sketch.</desc>
    <defs></defs>
    <g id="03.-Cards" stroke="none" stroke-width="1" fill="none" fill-rule="evenodd">
        <g id="105_Cards_Detail" transform="translate(-361.000000, -702.000000)" fill-rule="nonzero" fill="#21409A">
            <g id="Group-23" transform="translate(130.000000, 620.000000)">
                <g id="Mind-Map" transform="translate(231.000000, 82.000000)">
                    <path d="M12.3076923,0 C5.54678646,0 0,5.54678646 0,12.3076923 C0,19.0685982 5.54678646,24.6153846 12.3076923,24.6153846 C14.4833166,24.6153846 16.4894302,23.9851538 18.2692308,22.9807692 L25,30.4807692 C22.8769015,33.1197385 21.5384615,36.3777662 21.5384615,40 C21.5384615,43.3582492 22.6675138,46.4024277 24.5192308,48.9423077 L19.1346154,54.4230769 C19.1110985,54.4071446 19.0620923,54.4388523 19.0384615,54.4230769 C17.0871837,53.1205292 14.8126942,52.3076923 12.3076923,52.3076923 C5.54678646,52.3076923 0,57.85448 0,64.6153846 C0,71.3762892 5.54678646,76.9230769 12.3076923,76.9230769 C19.0685969,76.9230769 24.6153846,71.3762892 24.6153846,64.6153846 C24.6153846,62.5957815 24.0474954,60.7258985 23.1730769,59.0384615 L29.0384615,53.1730769 C31.3566215,54.5779569 34.0349262,55.3846154 36.9230769,55.3846154 C39.1125908,55.3846154 41.1848431,54.8760246 43.0769231,54.0384615 L46.6346154,59.1346154 C44.4581938,61.3582985 43.0769231,64.3597938 43.0769231,67.6923077 C43.0769231,74.4532123 48.6237108,80 55.3846154,80 C62.14552,80 67.6923077,74.4532123 67.6923077,67.6923077 C67.6923077,60.9314031 62.14552,55.3846154 55.3846154,55.3846154 C54.1865846,55.3846154 53.0207569,55.6373077 51.9230769,55.9615385 L48.0769231,50.4807692 C49.9973969,48.4404554 51.4336338,45.9118123 52.0192308,43.0769231 L55.8653846,43.0769231 C57.2409723,48.3687446 61.99016,52.3076923 67.6923077,52.3076923 C74.4532123,52.3076923 80,46.7609046 80,40 C80,33.2390954 74.4532123,27.6923077 67.6923077,27.6923077 C61.99016,27.6923077 57.2409723,31.6312554 55.8653846,36.9230769 L52.0192308,36.9230769 C51.2882892,33.3845785 49.2552369,30.2835815 46.5384615,28.0769231 L47.8846154,24.4230769 C48.3286954,24.4723169 48.7742862,24.6153846 49.2307692,24.6153846 C55.9916738,24.6153846 61.5384615,19.0685982 61.5384615,12.3076923 C61.5384615,5.54678646 55.9916738,0 49.2307692,0 C42.4698646,0 36.9230769,5.54678646 36.9230769,12.3076923 C36.9230769,16.3894385 39.0253262,19.9682618 42.1153846,22.2115385 L40.9615385,25.1923077 C39.6655662,24.8337754 38.3274831,24.6153846 36.9230769,24.6153846 C34.2986277,24.6153846 31.8816831,25.3620615 29.7115385,26.5384615 L22.6923077,18.8461538 C23.9053477,16.9411105 24.6153846,14.7173486 24.6153846,12.3076923 C24.6153846,5.54678646 19.0685969,0 12.3076923,0 Z M12.3076923,6.15384615 C15.7428123,6.15384615 18.4615385,8.87257231 18.4615385,12.3076923 C18.4615385,14.0252523 17.7436868,15.525544 16.6346154,16.6346154 C15.525544,17.7436868 14.0252523,18.4615385 12.3076923,18.4615385 C8.87257231,18.4615385 6.15384615,15.7428123 6.15384615,12.3076923 C6.15384615,8.87257231 8.87257231,6.15384615 12.3076923,6.15384615 Z M49.2307692,6.15384615 C52.6658892,6.15384615 55.3846154,8.87257231 55.3846154,12.3076923 C55.3846154,15.7428123 52.6658892,18.4615385 49.2307692,18.4615385 C45.7956492,18.4615385 43.0769231,15.7428123 43.0769231,12.3076923 C43.0769231,8.87257231 45.7956492,6.15384615 49.2307692,6.15384615 Z M36.9230769,30.7692308 C42.0139846,30.7692308 46.1538462,34.9090923 46.1538462,40 C46.1458606,40.1280808 46.1458606,40.2565346 46.1538462,40.3846154 C45.9460585,45.2926985 41.8814831,49.2307692 36.9230769,49.2307692 C34.6209385,49.2307692 32.4836892,48.4174769 30.8653846,47.0192308 C28.905,45.3254185 27.6923077,42.7887692 27.6923077,40 C27.6923077,34.9090923 31.8321692,30.7692308 36.9230769,30.7692308 Z M67.6923077,33.8461538 C71.1274277,33.8461538 73.8461538,36.56488 73.8461538,40 C73.8461538,43.43512 71.1274277,46.1538462 67.6923077,46.1538462 C64.2571877,46.1538462 61.5384615,43.43512 61.5384615,40 C61.5384615,36.56488 64.2571877,33.8461538 67.6923077,33.8461538 Z M12.3076923,58.4615385 C15.7428123,58.4615385 18.4615385,61.1802646 18.4615385,64.6153846 C18.4615385,68.0505046 15.7428123,70.7692308 12.3076923,70.7692308 C8.87257231,70.7692308 6.15384615,68.0505046 6.15384615,64.6153846 C6.15384615,61.1802646 8.87257231,58.4615385 12.3076923,58.4615385 Z M55.3846154,61.5384615 C58.8197354,61.5384615 61.5384615,64.2571877 61.5384615,67.6923077 C61.5384615,71.1274277 58.8197354,73.8461538 55.3846154,73.8461538 C51.9494954,73.8461538 49.2307692,71.1274277 49.2307692,67.6923077 C49.2307692,65.6460431 50.22456,63.9030585 51.7307692,62.7884615 C52.203381,62.6366263 52.6322457,62.3727095 52.9807692,62.0192308 C53.0176677,62.0038031 53.0396492,61.9378062 53.0769231,61.9230769 C53.7851231,61.6431938 54.5687754,61.5384615 55.3846154,61.5384615 Z" id="Shape"></path>
                </g>
            </g>
        </g>
    </g>
</svg>