<svg xmlns="http://www.w3.org/2000/svg" width="24" height="24" viewBox="0 0 24 24">
    <g fill="none" fill-rule="evenodd" stroke="#212121" stroke-linecap="round" stroke-linejoin="round" stroke-width="2">
        <path d="M12.113 1.765a7.752 7.752 0 0 0-9.767 11.352l.171.186"/>
        <path d="M17.752 7.677c-2.706 2.705-7.6-.023-7.6-.023-2.844 2.842-5.48 1.096-5.48 1.096l5.48-5.48a7.75 7.75 0 0 1 10.959 0 7.75 7.75 0 0 1 0 10.96l-.371.37M7.713 22.152l-5.175-5.175a2.614 2.614 0 1 1 3.697-3.696l5.175 5.174a2.615 2.615 0 0 1-3.697 3.697z"/>
        <path d="M15.316 8.845l4.703 4.703a3.462 3.462 0 0 1 0 4.894l-3.978 3.977a3.46 3.46 0 0 1-4.894 0l-.002-.003"/>
    </g>
</svg>
