<?xml version="1.0" encoding="UTF-8"?>
<svg width="32px" height="31px" viewBox="0 0 32 31" version="1.1" xmlns="http://www.w3.org/2000/svg" xmlns:xlink="http://www.w3.org/1999/xlink">
    <!-- Generator: Sketch 46.2 (44496) - http://www.bohemiancoding.com/sketch -->
    <title>Group 31</title>
    <desc>Created with Sketch.</desc>
    <defs></defs>
    <g id="07.-DigitalBanking" stroke="none" stroke-width="1" fill="none" fill-rule="evenodd" stroke-linecap="round" stroke-linejoin="round">
        <g id="0700_SmartBanking_VER.3" transform="translate(-264.000000, -2018.000000)" stroke-width="2">
            <g id="Group-43" transform="translate(245.000000, 1999.000000)">
                <g id="Group-36" transform="translate(20.000000, 20.000000)">
                    <g id="Group-31">
                        <g id="Group-30" transform="translate(0.937500, 0.937500)">
                            <path d="M12.836327,24.3172654 C12.836327,27.1875 9.64717742,27.1785014 9.64717742,27.1785014 L24.9550953,27.1785014 C26.7167815,27.1785014 28.1442449,26.0789516 28.1442449,24.3172654 L28.1442449,23.6794355 L12.836327,23.6794355 L12.836327,24.3172654 Z" id="Stroke-2071" stroke="#21409A"></path>
                            <path d="M6.37829912,3.82697947 L0,3.82697947 L0,3.18914956 C0,1.42746334 1.42746334,0 3.18914956,0 L3.18914956,0 C4.95083578,0 6.37829912,1.42746334 6.37829912,3.18914956 L6.37829912,3.82697947 L6.37829912,3.82697947 Z" id="Stroke-2072" stroke="#21409A"></path>
                            <path d="M24.5564516,23.6046656 L24.5564516,3.18914956 C24.5564516,1.42746334 23.1289883,0 21.3673021,0 L3.50806452,0 C5.26975073,0 6.69721408,1.42746334 6.69721408,3.18914956 L6.69721408,23.9983504 C6.69721408,25.7600367 8.12467742,27.1875 9.88636364,27.1875 L24.5564516,27.1875" id="Stroke-2073" stroke="#21409A"></path>
                            <path d="M11.4012097,6.1391129 L19.0551686,6.1391129" id="Stroke-2074" stroke="#ED1D24"></path>
                            <path d="M11.4012097,11.4012097 L19.0551686,11.4012097" id="Stroke-2075" stroke="#ED1D24"></path>
                            <path d="M11.4012097,15.7862903 L19.0551686,15.7862903" id="Stroke-2076" stroke="#ED1D24"></path>
                        </g>
                    </g>
                </g>
            </g>
        </g>
    </g>
</svg>