<?xml version="1.0" encoding="UTF-8"?>
<svg width="70px" height="45px" viewBox="0 0 70 45" version="1.1" xmlns="http://www.w3.org/2000/svg" xmlns:xlink="http://www.w3.org/1999/xlink">
    <!-- Generator: Sketch 46.2 (44496) - http://www.bohemiancoding.com/sketch -->
    <title>Shape Copy</title>
    <desc>Created with Sketch.</desc>
    <defs></defs>
    <g id="12.-AboutBIDV" stroke="none" stroke-width="1" fill="none" fill-rule="evenodd">
        <g id="100_AboutBIDV" transform="translate(-363.000000, -2395.000000)" fill-rule="nonzero" fill="#C4E1F7">
            <g id="Group-11" transform="translate(363.000000, 2213.000000)">
                <path d="M69.3775117,210.173982 C68.3269255,203.252453 62.3466657,198.31987 55.5582626,198.001638 C57.2553634,191.79613 61.3768938,189.329838 66.3873818,187.897797 C66.8722677,187.738682 66.7914534,187.261335 66.7914534,187.261335 L65.9833102,182.328751 C65.9833102,182.328751 65.9024959,181.930962 65.2559813,182.01052 C47.9617163,183.919907 36.2436396,196.887829 38.4256263,212.640274 C40.4459844,223.539693 49.0931168,227.756257 57.0937347,226.642448 C65.0943527,225.369523 70.5897266,218.050205 69.3775117,210.173982 L69.3775117,210.173982 Z M17.3601359,198.001638 C18.9764223,191.79613 23.2595814,189.329838 28.189255,187.897797 C28.674141,187.738682 28.5933266,187.261335 28.5933266,187.261335 L27.8659977,182.328751 C27.8659977,182.328751 27.7851834,181.930962 27.1386688,182.01052 C9.84440388,183.84035 -1.79285852,196.808271 0.227499535,212.560716 C2.32867191,223.539693 11.0566187,227.756257 18.9764223,226.642448 C26.9770402,225.369523 32.4724141,218.050205 31.179385,210.173982 C30.1287988,203.172896 24.2293532,198.240312 17.3601359,198.001638 Z" id="Shape-Copy"></path>
            </g>
        </g>
    </g>
</svg>