<?xml version="1.0" encoding="UTF-8"?>
<svg width="32px" height="24px" viewBox="0 0 32 24" version="1.1" xmlns="http://www.w3.org/2000/svg" xmlns:xlink="http://www.w3.org/1999/xlink">
    <!-- Generator: Sketch 46.2 (44496) - http://www.bohemiancoding.com/sketch -->
    <title>Group 34</title>
    <desc>Created with Sketch.</desc>
    <defs></defs>
    <g id="07.-DigitalBanking" stroke="none" stroke-width="1" fill="none" fill-rule="evenodd" stroke-linecap="round" stroke-linejoin="round">
        <g id="0700_SmartBanking_VER.3" transform="translate(-764.000000, -2022.000000)" stroke-width="2">
            <g id="Group-51" transform="translate(745.000000, 1999.000000)">
                <g id="Group-34" transform="translate(20.000000, 20.000000)">
                    <g id="Group-33" transform="translate(0.937500, 4.687500)">
                        <g id="Group-2">
                            <path d="M0,5.11363636 L28.125,5.11363636" id="Stroke-4172" stroke="#21409A"></path>
                            <path d="M0,10.2272727 L28.125,10.2272727" id="Stroke-4174" stroke="#21409A"></path>
                            <path d="M25.5681818,20.4545455 L2.55681818,20.4545455 C1.14417614,20.4545455 0,19.3103693 0,17.8977273 L0,2.55681818 C0,1.14417614 1.14417614,0 2.55681818,0 L19.1761364,0 L25.5681818,0 C26.9808239,0 28.125,1.14417614 28.125,2.55681818 L28.125,17.8977273 C28.125,19.3103693 26.9808239,20.4545455 25.5681818,20.4545455 L25.5681818,20.4545455 Z" id="Stroke-4312" stroke="#21409A"></path>
                            <path d="M5.11363636,15.3409091 L11.5056818,15.3409091" id="Stroke-4313" stroke="#ED1D24"></path>
                            <path d="M21.7329545,15.3409091 L23.0113636,15.3409091" id="Stroke-4314" stroke="#ED1D24"></path>
                        </g>
                    </g>
                </g>
            </g>
        </g>
    </g>
</svg>