<?xml version="1.0" encoding="UTF-8"?>
<svg width="76px" height="80px" viewBox="0 0 76 80" version="1.1" xmlns="http://www.w3.org/2000/svg" xmlns:xlink="http://www.w3.org/1999/xlink">
    <!-- Generator: Sketch 46.2 (44496) - http://www.bohemiancoding.com/sketch -->
    <title>Diploma 1</title>
    <desc>Created with Sketch.</desc>
    <defs></defs>
    <g id="03.-Cards" stroke="none" stroke-width="1" fill="none" fill-rule="evenodd">
        <g id="105_Cards_Detail" transform="translate(-1002.000000, -692.000000)" fill-rule="nonzero" fill="#21409A">
            <g id="Group-23" transform="translate(130.000000, 620.000000)">
                <g id="Diploma-1" transform="translate(872.000000, 72.000000)">
                    <path d="M38,0 C36.0800554,0 34.1600708,0.654893846 32.5192308,1.82692308 L27.4230769,5.38461538 L21.5576923,6.15384615 L21.4615385,6.15384615 L21.3653846,6.25 C17.4418089,7.12190585 14.3526751,10.2110397 13.4807692,14.1346154 L13.3846154,14.2307692 L13.3846154,14.3269231 L12.6153846,20.2884615 L9.05769231,24.9038462 L8.96153846,25 L8.96153846,25.0961538 C6.81230308,28.5349292 6.71363385,32.9683169 9.05769231,36.25 L12.7115385,41.3461538 L13.6730769,46.6346154 L3.76923077,61.7307692 L0.596153846,66.4423077 L6.26923077,66.4423077 L15.3076923,66.4423077 L18.8653846,74.7115385 L21.0769231,80 L24.25,75.1923077 L33.9615385,60.5769231 C36.5660277,61.6509015 39.5202985,61.7428892 42.0384615,60.5769231 L51.75,75.1923077 L54.9230769,80 L57.1346154,74.7115385 L60.6923077,66.4423077 L69.7307692,66.4423077 L75.4038462,66.4423077 L72.2307692,61.7307692 L62.6153846,47.1153846 L63.3846154,41.3461538 L66.9423077,36.25 L67.0384615,36.1538462 L67.0384615,36.0576923 C69.1876954,32.6189169 69.2863662,28.2816831 66.9423077,25 L63.3846154,19.9038462 L62.2307692,14.1346154 L62.3269231,14.1346154 C62.3186092,14.0597831 62.2409231,14.0165874 62.2307692,13.9423077 C61.68032,9.91570954 58.4869477,6.64490338 54.4423077,6.15384615 L54.3461538,6.15384615 L48.5769231,5.38461538 L43.4807692,1.82692308 C41.8399292,0.654893846 39.9199446,0 38,0 Z M38,6.25 C38.7050369,6.25 39.4100738,6.46049077 39.9230769,6.82692308 L45.4038462,10.7692308 L46.0769231,11.25 L46.8461538,11.3461538 L53.5769231,12.3076923 L53.6730769,12.3076923 C55.05,12.4606831 56.0200862,13.4307689 56.1730769,14.8076923 L56.1730769,14.9038462 L56.1730769,15 L57.4230769,21.8269231 L57.5192308,22.5 L58,23.0769231 L61.9423077,28.5576923 C62.6751723,29.5837015 62.7738431,31.30416 61.8461538,32.7884615 L58,38.1730769 L57.5192308,38.8461538 L57.4230769,39.6153846 L56.4615385,46.3461538 L56.4615385,46.4423077 C56.4052431,46.9489846 56.2379077,47.4124031 55.9807692,47.7884615 L55.7884615,47.8846154 L55.7884615,47.9807692 C55.3446831,48.5052646 54.7312215,48.8567877 53.9615385,48.9423077 L53.8653846,48.9423077 L53.7692308,48.9423077 L46.75,50.1923077 L45.9807692,50.2884615 L45.4038462,50.7692308 L39.9230769,54.7115385 C38.8970677,55.4444031 37.0804554,55.5430738 35.5961538,54.6153846 L30.5961538,50.7692308 L30.0192308,50.2884615 L29.1538462,50.1923077 L22.4230769,49.2307692 L22.3269231,49.2307692 C21.3754523,49.1250554 20.6391138,48.6352892 20.2115385,47.8846154 C20.0203446,47.5489477 19.8741969,47.1562215 19.8269231,46.7307692 L19.8269231,46.6346154 L19.8269231,46.5384615 L18.5769231,39.5192308 L18.4807692,38.75 L18,38.1730769 L14.0576923,32.6923077 C13.3248277,31.6662985 13.2261585,29.8496862 14.1538462,28.3653846 L18,23.3653846 L18.4807692,22.7884615 L18.5769231,21.9230769 L19.4423077,15.4807692 C19.4528625,15.4332726 19.5264145,15.4314314 19.5384615,15.3846154 C19.9239692,13.8865058 21.1172738,12.6932009 22.6153846,12.3076923 C22.6621846,12.2956308 22.6640308,12.2220923 22.7115385,12.2115385 L29.1538462,11.3461538 L29.9230769,11.25 L30.5961538,10.7692308 L36.0769231,6.82692308 C36.5899262,6.46049077 37.2949631,6.25 38,6.25 Z M59.25,53.0769231 L63.9615385,60.2884615 L58.5769231,60.2884615 L56.5576923,60.2884615 L55.7884615,62.2115385 L53.6730769,67.1153846 L47.1346154,57.1153846 L48.5769231,56.0576923 L54.6346154,55 L54.6346154,55.0961538 C54.7094462,55.0878462 54.7526462,55.0101538 54.8269231,55 C56.4803785,54.7739662 57.9915692,54.0702 59.25,53.0769231 Z M16.75,53.1730769 C18.0655782,54.3460492 19.7275385,55.1624185 21.5576923,55.3846154 C21.5878462,55.3883077 21.6236923,55.3812308 21.6538462,55.3846154 L27.5192308,56.1538462 L28.8653846,57.2115385 L22.3269231,67.1153846 L20.2115385,62.2115385 L19.4423077,60.2884615 L17.4230769,60.2884615 L12.0384615,60.2884615 L16.75,53.1730769 Z" id="Shape"></path>
                </g>
            </g>
        </g>
    </g>
</svg>