<?xml version="1.0" encoding="UTF-8"?>
<svg width="24px" height="24px" viewBox="0 0 24 24" version="1.1" xmlns="http://www.w3.org/2000/svg" xmlns:xlink="http://www.w3.org/1999/xlink">
    <!-- Generator: Sketch 46.2 (44496) - http://www.bohemiancoding.com/sketch -->
    <title>Group 16</title>
    <desc>Created with Sketch.</desc>
    <defs></defs>
    <g id="02.-News-Promotions" stroke="none" stroke-width="1" fill="none" fill-rule="evenodd" stroke-linecap="round" stroke-linejoin="round">
        <g id="110_Promotion_Detail_page" transform="translate(-1045.000000, -827.000000)" stroke="#212121" stroke-width="2">
            <g id="Group-16" transform="translate(1045.000000, 827.000000)">
                <g id="Group-14" transform="translate(1.000000, 1.000000)">
                    <polyline id="Stroke-283" points="20 8 20 22 2 22 2 8"></polyline>
                    <polygon id="Stroke-284" points="0 4 22 4 22 8 0 8"></polygon>
                    <path d="M5,2 C5,0.9 5.9,0 7,0 C10,0 11,4 11,4 L7,4 C5.9,4 5,3.1 5,2 L5,2 Z" id="Stroke-285"></path>
                    <path d="M17,2 C17,0.9 16.1,0 15,0 C12,0 11,4 11,4 L15,4 C16.1,4 17,3.1 17,2 L17,2 Z" id="Stroke-286"></path>
                    <path d="M9,4 L9,22" id="Stroke-287"></path>
                    <path d="M13,4 L13,22" id="Stroke-288"></path>
                </g>
            </g>
        </g>
    </g>
</svg>