<?xml version="1.0" encoding="UTF-8"?>
<svg width="30px" height="29px" viewBox="0 0 30 29" version="1.1" xmlns="http://www.w3.org/2000/svg" xmlns:xlink="http://www.w3.org/1999/xlink">
    <!-- Generator: Sketch 46.2 (44496) - http://www.bohemiancoding.com/sketch -->
    <title>Fill 821</title>
    <desc>Created with Sketch.</desc>
    <defs></defs>
    <g id="15.-ContactUs" stroke="none" stroke-width="1" fill="none" fill-rule="evenodd">
        <g id="100_Contact_us_Form" transform="translate(-369.000000, -715.000000)">
            <g id="Group-14" transform="translate(226.000000, 561.000000)">
                <g id="Group-11" transform="translate(0.000000, 70.000000)">
                    <g id="Group-9">
                        <rect id="Combined-Shape" fill="#F7F9FB" x="0" y="0" width="316" height="314" rx="4"></rect>
                        <path d="M164.25,110.249375 L160.5,110.249375 L160.5,96.499375 L164.25,96.499375 L164.25,110.249375 Z M158,93.999375 C156.62125,93.999375 155.5,92.878125 155.5,91.499375 C155.5,90.120625 156.62125,88.999375 158,88.999375 C159.37875,88.999375 160.5,90.120625 160.5,91.499375 C160.5,92.878125 159.37875,93.999375 158,93.999375 L158,93.999375 Z M155.5,110.249375 L151.75,110.249375 L151.75,96.499375 L155.5,96.499375 L155.5,110.249375 Z M172.34875,91.651875 L158.59875,84.151875 C158.225,83.949375 157.775,83.949375 157.40125,84.151875 L143.65125,91.651875 C143.25,91.870625 143,92.291875 143,92.749375 L143,95.249375 C143,95.940625 143.56,96.499375 144.25,96.499375 L146.75,96.499375 L146.75,110.249375 L144.25,110.249375 C143.56,110.249375 143,110.808125 143,111.499375 C143,112.190625 143.56,112.749375 144.25,112.749375 L171.75,112.749375 C172.44,112.749375 173,112.190625 173,111.499375 C173,110.808125 172.44,110.249375 171.75,110.249375 L169.25,110.249375 L169.25,96.499375 L171.75,96.499375 C172.44,96.499375 173,95.940625 173,95.249375 L173,92.749375 C173,92.291875 172.75,91.870625 172.34875,91.651875 L172.34875,91.651875 Z" id="Fill-821" fill="#21409A"></path>
                    </g>
                </g>
            </g>
        </g>
    </g>
</svg>