<?xml version="1.0" encoding="UTF-8"?>
<svg width="30px" height="29px" viewBox="0 0 30 29" version="1.1" xmlns="http://www.w3.org/2000/svg" xmlns:xlink="http://www.w3.org/1999/xlink">
    <!-- Generator: Sketch 46.2 (44496) - http://www.bohemiancoding.com/sketch -->
    <title>Group 5</title>
    <desc>Created with Sketch.</desc>
    <defs></defs>
    <g id="15.-ContactUs" stroke="none" stroke-width="1" fill="none" fill-rule="evenodd">
        <g id="100_Contact_us_Form" transform="translate(-1041.000000, -718.000000)">
            <g id="Group-14" transform="translate(226.000000, 561.000000)">
                <g id="Group-11" transform="translate(0.000000, 70.000000)">
                    <g id="Group-2" transform="translate(672.000000, 0.000000)">
                        <rect id="Rectangle-38-Copy-3" fill="#F7F9FB" x="0" y="0" width="316" height="314" rx="4"></rect>
                        <g id="Group-5" transform="translate(143.000000, 87.000000)" fill="#21409A">
                            <path d="M27.45625,10.71875 C27.005,17.27625 20.48,22.5 12.5,22.5 C11.91875,22.5 11.33625,22.4675 10.7575,22.41 C13.27375,24.3925 16.93125,25.38 20.69,24.86875 L27.5,28.2725 L27.5,21.75375 C29.11625,20.2 30,18.265 30,16.25 C30,14.21625 29.09625,12.2775 27.45625,10.71875" id="Fill-460"></path>
                            <path d="M12.5,0 C5.59625,0 0,4.4775 0,10 C0,12.24625 0.9375,14.3125 2.5,15.98125 L2.5,22.5 L8.54125,19.48 C9.78625,19.8125 11.115,20 12.5,20 C19.40375,20 25,15.5225 25,10 C25,4.4775 19.40375,0 12.5,0" id="Fill-461"></path>
                        </g>
                    </g>
                </g>
            </g>
        </g>
    </g>
</svg>