<svg xmlns="http://www.w3.org/2000/svg" width="24" height="24" viewBox="0 0 24 24">
    <g fill="none" fill-rule="evenodd" transform="translate(-30 -24)">
        <rect width="580" height="300" fill="#F7F9FB" rx="4"/>
        <g stroke="#222" stroke-linecap="round" stroke-linejoin="round" stroke-width="2">
            <path d="M35.19 29.19v-1.047A3.143 3.143 0 0 1 38.335 25h6.285a3.143 3.143 0 0 1 3.143 3.143v1.047M43.092 39.667H31V29.19h22v10.477h-3.187"/>
            <path d="M35.19 39.667a7.333 7.333 0 1 0 14.667 0v-7.334a3.143 3.143 0 0 0-3.142 3.143v2.095a4.19 4.19 0 0 0-4.19 4.19"/>
            <path d="M38.334 34.429a2.095 2.095 0 1 1 4.189-.002 2.095 2.095 0 0 1-4.19.002z"/>
        </g>
    </g>
</svg>
