<svg xmlns="http://www.w3.org/2000/svg" width="30" height="30" viewBox="0 0 30 30">
    <path fill="#0077B5" fill-rule="evenodd" d="M0 15C0 6.716 6.716 0 15 0c8.284 0 15 6.716 15 15 0 8.284-6.716 15-15 15-8.284 0-15-6.716-15-15zm11-3H7v11h4V12zm0-3c-.023-1.136-.772-2-1.988-2C7.795 7 7 7.864 7 9c0 1.11.772 2 1.965 2h.023C10.228 11 11 10.11 11 9zm12 7.838C23 13.536 21.222 12 18.851 12c-1.913 0-2.77 1.043-3.247 1.775v-1.522H12C12.047 13.26 12 23 12 23h3.604v-6.002c0-.321.023-.642.118-.872.26-.641.854-1.306 1.85-1.306 1.303 0 1.825.986 1.825 2.43V23H23v-6.162z"/>
</svg>
