<?xml version="1.0" encoding="UTF-8"?>
<svg width="30px" height="25px" viewBox="0 0 30 25" version="1.1" xmlns="http://www.w3.org/2000/svg" xmlns:xlink="http://www.w3.org/1999/xlink">
    <!-- Generator: Sketch 46.2 (44496) - http://www.bohemiancoding.com/sketch -->
    <title>Fill 142</title>
    <desc>Created with Sketch.</desc>
    <defs>
        <rect id="path-1" x="0" y="0" width="316" height="314" rx="4"></rect>
        <filter x="-11.1%" y="-8.0%" width="122.2%" height="122.3%" filterUnits="objectBoundingBox" id="filter-2">
            <feOffset dx="0" dy="10" in="SourceAlpha" result="shadowOffsetOuter1"></feOffset>
            <feGaussianBlur stdDeviation="10" in="shadowOffsetOuter1" result="shadowBlurOuter1"></feGaussianBlur>
            <feColorMatrix values="0 0 0 0 0.878431373   0 0 0 0 0.878431373   0 0 0 0 0.878431373  0 0 0 1 0" type="matrix" in="shadowBlurOuter1"></feColorMatrix>
        </filter>
    </defs>
    <g id="15.-ContactUs" stroke="none" stroke-width="1" fill="none" fill-rule="evenodd">
        <g id="100_Contact_us_Form" transform="translate(-705.000000, -718.000000)">
            <g id="Group-14" transform="translate(226.000000, 561.000000)">
                <g id="Group-11" transform="translate(0.000000, 70.000000)">
                    <g id="Group-7" transform="translate(336.000000, 0.000000)">
                        <g id="Rectangle-38-Copy-2">
                            <use fill="black" fill-opacity="1" filter="url(#filter-2)" xlink:href="#path-1"></use>
                            <use fill="#FFFFFF" fill-rule="evenodd" xlink:href="#path-1"></use>
                        </g>
                        <path d="M167.63375,94.13375 L158.88375,102.88375 C158.64,103.1275 158.32,103.25 158,103.25 C157.68,103.25 157.36,103.1275 157.11625,102.88375 L148.36625,94.13375 C147.8775,93.645 147.8775,92.855 148.36625,92.36625 C148.855,91.8775 149.645,91.8775 150.13375,92.36625 L158,100.2325 L165.86625,92.36625 C166.355,91.8775 167.145,91.8775 167.63375,92.36625 C168.1225,92.855 168.1225,93.645 167.63375,94.13375 L167.63375,94.13375 Z M167.63375,106.63375 C167.39,106.8775 167.07,107 166.75,107 C166.43,107 166.11,106.8775 165.86625,106.63375 L162.74125,103.50875 L164.50875,101.74125 L167.63375,104.86625 C168.1225,105.355 168.1225,106.145 167.63375,106.63375 L167.63375,106.63375 Z M153.25875,103.50875 L150.13375,106.63375 C149.89,106.8775 149.57,107 149.25,107 C148.93,107 148.61,106.8775 148.36625,106.63375 C147.8775,106.145 147.8775,105.355 148.36625,104.86625 L151.49125,101.74125 L153.25875,103.50875 Z M171.75,87 L144.25,87 C143.56,87 143,87.55875 143,88.25 L143,110.75 C143,111.44125 143.56,112 144.25,112 L171.75,112 C172.44,112 173,111.44125 173,110.75 L173,88.25 C173,87.55875 172.44,87 171.75,87 L171.75,87 Z" id="Fill-142" fill="#21409A"></path>
                    </g>
                </g>
            </g>
        </g>
    </g>
</svg>