<svg xmlns="http://www.w3.org/2000/svg" width="42" height="47" viewBox="0 0 42 47">
    <path fill="#9E9E9E" fill-rule="nonzero" stroke="#9E9E9E" stroke-width=".5" d="M18.683.535a.77.77 0 0 0-.535 1.323L20 3.708C9.43 4.235 1 12.959 1 23.659c0 1.379.14 2.727.406 4.029a19.867 19.867 0 0 0 3.01 7.154 20.076 20.076 0 0 0 5.4 5.4 19.973 19.973 0 0 0 3.399 1.845.77.77 0 1 0 .6-1.415 18.538 18.538 0 0 1-9.826-9.826 18.318 18.318 0 0 1-1.075-3.465 18.562 18.562 0 0 1-.376-3.723c0-9.806 7.63-17.794 17.281-18.404l-1.67 1.67a.77.77 0 1 0 1.087 1.088l3.077-3.077a.77.77 0 0 0 0-1.09L19.236.77a.77.77 0 0 0-.553-.235zm9.727 4.63a.77.77 0 0 0-.226 1.482 18.432 18.432 0 0 1 5.869 3.958 18.42 18.42 0 0 1 5.409 13.053c0 9.834-7.673 17.833-17.362 18.404l1.752-1.752a.77.77 0 1 0-1.088-1.088L19.687 42.3c-.3.3-.3.788 0 1.088l3.077 3.077a.77.77 0 1 0 1.088-1.088l-1.773-1.773C32.612 43.04 41 34.33 41 23.657c0-1.38-.14-2.727-.406-4.029a19.867 19.867 0 0 0-3.01-7.151 20.076 20.076 0 0 0-8.799-7.248.77.77 0 0 0-.297-.063.77.77 0 0 0-.078 0zM21 11.35c-6.788 0-12.308 5.52-12.308 12.307 0 6.789 5.52 12.308 12.308 12.308s12.308-5.52 12.308-12.308S27.788 11.35 21 11.35zm0 1.538c5.957 0 10.77 4.813 10.77 10.77 0 5.956-4.813 10.769-10.77 10.769a10.758 10.758 0 0 1-10.77-10.77c0-5.956 4.813-10.769 10.77-10.769zm-.544 3.035v1.782c-.483.06-.922.176-1.313.348a3.365 3.365 0 0 0-1 .665c-.27.27-.482.588-.632.955a3.332 3.332 0 0 0-.213 1.214c0 .48.083.904.246 1.271.171.367.412.69.725.97.32.281.705.526 1.153.737.456.205.967.387 1.536.544.427.14.789.287 1.088.438.305.151.551.315.736.493.192.178.33.369.415.574.085.205.129.43.129.673 0 .292-.053.556-.16.793-.106.233-.265.431-.471.598-.2.162-.447.29-.745.382-.292.087-.627.13-1.004.13a3.2 3.2 0 0 1-.811-.106 1.931 1.931 0 0 1-.737-.373 1.903 1.903 0 0 1-.531-.72c-.136-.303-.202-.684-.202-1.143h-1.878c0 .61.097 1.135.289 1.572.192.432.446.793.766 1.079.327.286.701.504 1.12.655.42.151.854.252 1.302.3v1.554h1.484v-1.554a5.65 5.65 0 0 0 1.44-.324c.426-.162.789-.38 1.087-.65.299-.27.53-.588.694-.955a3.08 3.08 0 0 0 .244-1.253c0-.475-.078-.894-.235-1.256a2.741 2.741 0 0 0-.694-.955 4.428 4.428 0 0 0-1.13-.722c-.448-.21-.964-.4-1.547-.567a8.971 8.971 0 0 1-1.15-.445 3.512 3.512 0 0 1-.75-.493 1.584 1.584 0 0 1-.414-.568 2.002 2.002 0 0 1-.117-.703c0-.28.039-.537.117-.77.086-.231.21-.43.373-.591.17-.167.382-.296.63-.388.25-.092.543-.138.884-.138.327 0 .619.062.875.186s.469.296.64.517c.17.221.299.485.384.787.093.303.139.633.139.995h1.869c0-1.096-.276-1.959-.824-2.59-.54-.637-1.306-1.022-2.301-1.157v-1.79h-1.506z"/>
</svg>
