<svg xmlns="http://www.w3.org/2000/svg" width="30" height="31" viewBox="0 0 30 31">
    <g fill="none" fill-rule="evenodd">
        <path fill="#21409A" d="M-1238-19H202v68h-1440z"/>
        <path fill="#FFF" d="M0 15.5C0 7.216 6.716.5 15 .5c8.284 0 15 6.716 15 15 0 8.284-6.716 15-15 15-8.284 0-15-6.716-15-15zm11-3H7v11h4v-11zm0-3c-.023-1.136-.772-2-1.988-2C7.795 7.5 7 8.364 7 9.5c0 1.11.772 2 1.965 2h.023c1.24 0 2.012-.89 2.012-2zm12 7.838c0-3.302-1.778-4.838-4.149-4.838-1.913 0-2.77 1.043-3.247 1.775v-1.522H12c.047 1.008 0 10.747 0 10.747h3.604v-6.002c0-.321.023-.642.118-.872.26-.641.854-1.306 1.85-1.306 1.303 0 1.825.986 1.825 2.43v5.75H23v-6.162z"/>
    </g>
</svg>
