<svg xmlns="http://www.w3.org/2000/svg" width="24" height="24" viewBox="0 0 24 24">
    <g fill="none" fill-rule="evenodd">
        <path stroke="#212121" stroke-linecap="round" stroke-linejoin="round" stroke-width="2" d="M19 16.29V23H1V9h10.5"/>
        <path fill="#212121" d="M8.5 16a1.5 1.5 0 1 1 3 0 1.5 1.5 0 0 1-3 0z"/>
        <path stroke="#212121" stroke-linecap="round" stroke-linejoin="round" stroke-width="2" d="M6.25 12c0 1.326-1.007 2.4-2.25 2.4v3.2c1.243 0 2.25 1.074 2.25 2.4h7.5c0-1.326 1.007-2.4 2.25-2.4v-3.2c-1.243 0-2.25-1.074-2.25-2.4h-7.5zM19.265 12.593c.276-.047.546-.113.808-.198a5.645 5.645 0 0 0 2.99-2.254 5.965 5.965 0 0 1-1.687-.231c-3.08-.884-4.886-4.019-4.03-7.002a5.46 5.46 0 0 1 .69-1.499c-2.484.015-4.743 1.596-5.442 4.034"/>
    </g>
</svg>
