<?xml version="1.0" encoding="UTF-8"?>
<svg width="32px" height="31px" viewBox="0 0 32 31" version="1.1" xmlns="http://www.w3.org/2000/svg" xmlns:xlink="http://www.w3.org/1999/xlink">
    <!-- Generator: Sketch 46.2 (44496) - http://www.bohemiancoding.com/sketch -->
    <title>Group 23</title>
    <desc>Created with Sketch.</desc>
    <defs></defs>
    <g id="07.-DigitalBanking" stroke="none" stroke-width="1" fill="none" fill-rule="evenodd" stroke-linecap="round" stroke-linejoin="round">
        <g id="0700_SmartBanking_VER.3" transform="translate(-264.000000, -1720.000000)" stroke-width="2">
            <g id="Group-15" transform="translate(230.000000, 1508.000000)">
                <g id="Group-23" transform="translate(35.000000, 213.000000)">
                    <g id="Group-5" transform="translate(0.937500, 0.937500)">
                        <path d="M9.85044968,16.8449198 L8.93291201,16.8449198 C3.99939232,16.8449198 0,20.9300134 0,25.9692513 L0,27.2727273 L28.0748663,27.2727273 L28.0748663,25.9692513 C28.0748663,20.9300134 24.075474,16.8449198 19.1419543,16.8449198 L18.2244166,16.8449198" id="Stroke-803" stroke="#21409A"></path>
                        <path d="M7.21925134,8.07072977 C8.29882997,9.0413205 9.68100915,9.62566845 11.1860487,9.62566845 C13.7149247,9.62566845 15.8877331,7.97977583 16.8740289,5.61497326 C17.6293926,7.42533055 19.0832404,8.80708295 20.855615,9.35779039" id="Stroke-805" stroke="#21409A"></path>
                        <path d="M14.0374332,17.6470588 L14.0374332,17.6470588 C10.2715241,17.6470588 7.21925134,14.4870588 7.21925134,10.5882353 L7.21925134,7.05882353 C7.21925134,3.16 10.2715241,0 14.0374332,0 C17.8033422,0 20.855615,3.16 20.855615,7.05882353 L20.855615,10.5882353 C20.855615,14.4870588 17.8033422,17.6470588 14.0374332,17.6470588 L14.0374332,17.6470588 Z" id="Stroke-807" stroke="#21409A"></path>
                        <path d="M21.657754,20.855615 L19.2513369,20.855615" id="Stroke-827" stroke="#ED1D24"></path>
                    </g>
                </g>
            </g>
        </g>
    </g>
</svg>