<?xml version="1.0" encoding="UTF-8"?>
<svg width="24px" height="24px" viewBox="0 0 24 24" version="1.1" xmlns="http://www.w3.org/2000/svg" xmlns:xlink="http://www.w3.org/1999/xlink">
    <!-- Generator: Sketch 46.2 (44496) - http://www.bohemiancoding.com/sketch -->
    <title>Group 21</title>
    <desc>Created with Sketch.</desc>
    <defs></defs>
    <g id="07.-DigitalBanking" stroke="none" stroke-width="1" fill="none" fill-rule="evenodd" stroke-linecap="round" stroke-linejoin="round">
        <g id="100_DigitalBanking" transform="translate(-160.000000, -1072.000000)" stroke="#FFFFFF" stroke-width="2">
            <g id="Group-21" transform="translate(160.000000, 1072.000000)">
                <g id="Group-3" transform="translate(1.000000, 1.000000)">
                    <path d="M7,22 L7,3" id="Stroke-4315"></path>
                    <path d="M11,22 L11,3" id="Stroke-4316"></path>
                    <path d="M19,2.9996 L19,19.9996 C19,21.1046 18.105,21.9996 17,21.9996 L5,21.9996 C3.895,21.9996 3,21.1046 3,19.9996 L3,2.9996 L19,2.9996 L19,2.9996 Z" id="Stroke-4317"></path>
                    <path d="M15,18 L15,13" id="Stroke-4318"></path>
                    <path d="M3,6 C1.343,6 0,4.657 0,3 L0,3 C0,1.343 1.343,0 3,0 L19,0 C20.657,0 22,1.343 22,3 L22,3 C22,4.657 20.657,6 19,6" id="Stroke-4513"></path>
                </g>
            </g>
        </g>
    </g>
</svg>