<?xml version="1.0" encoding="UTF-8"?>
<svg width="24px" height="21px" viewBox="0 0 24 21" version="1.1" xmlns="http://www.w3.org/2000/svg" xmlns:xlink="http://www.w3.org/1999/xlink">
    <!-- Generator: Sketch 46.2 (44496) - http://www.bohemiancoding.com/sketch -->
    <title>Group 21</title>
    <desc>Created with Sketch.</desc>
    <defs></defs>
    <g id="08.-Treasury" stroke="none" stroke-width="1" fill="none" fill-rule="evenodd" stroke-linecap="round" stroke-linejoin="round">
        <g id="100_Treasury_Services" transform="translate(-160.000000, -1074.000000)" stroke="#212121" stroke-width="2">
            <g id="Group-24" transform="translate(130.000000, 1048.000000)">
                <g id="Group-21" transform="translate(30.000000, 24.000000)">
                    <g id="Icon">
                        <g id="Group-2">
                            <g id="Group-12" transform="translate(1.000000, 3.000000)">
                                <polygon id="Stroke-1168" points="22 19 0 19 0 3 22 3"></polygon>
                                <path d="M9,11 C9,9.895 9.895,9 11,9 C12.105,9 13,9.895 13,11 C13,12.105 12.105,13 11,13 C9.895,13 9,12.105 9,11 L9,11 Z" id="Stroke-1169"></path>
                                <path d="M6,6 C6,7.657 4.657,9 3,9 L3,13 C4.657,13 6,14.343 6,16 L16,16 C16,14.343 17.343,13 19,13 L19,9 C17.343,9 16,7.657 16,6 L6,6 Z" id="Stroke-1170"></path>
                                <polyline id="Stroke-1171" points="20 3 20 0 2 0 2 3"></polyline>
                            </g>
                        </g>
                    </g>
                </g>
            </g>
        </g>
    </g>
</svg>