<svg xmlns="http://www.w3.org/2000/svg" width="24" height="24" viewBox="0 0 24 24">
    <g fill="none" fill-rule="evenodd" stroke="#212121" stroke-linecap="round" stroke-linejoin="round" stroke-width="2">
        <path d="M12 2.407a3.143 3.143 0 0 0-5.762 1.736c0 3.143 5.762 6.286 5.762 6.286s3-1.386 4.67-3.63c.645-.865 1.092-1.781 1.092-2.656A3.143 3.143 0 0 0 12 2.407zM14.07 15.667h5.787c2.95 0 3.143 2.095 3.143 2.095l-12.325 4.74a3.142 3.142 0 0 1-2.534-.122L1 18.81v-7.334h1.048c1.156 0 4.092.458 5.238 2.095h3.143a4.19 4.19 0 0 1 4.19 4.19H7.286"/>
    </g>
</svg>
