<?xml version="1.0" encoding="UTF-8"?>
<svg width="20px" height="20px" viewBox="0 0 20 20" version="1.1" xmlns="http://www.w3.org/2000/svg" xmlns:xlink="http://www.w3.org/1999/xlink">
    <!-- Generator: Sketch 46.2 (44496) - http://www.bohemiancoding.com/sketch -->
    <title>Group 5</title>
    <desc>Created with Sketch.</desc>
    <defs></defs>
    <g id="18.FAQ" stroke="none" stroke-width="1" fill="none" fill-rule="evenodd">
        <g id="Hoi&amp;Dap" transform="translate(-200.000000, -736.000000)">
            <g id="Group-5-Copy-8" transform="translate(130.000000, 716.000000)">
                <g id="Group-5" transform="translate(70.000000, 20.000000)">
                    <path d="M20,10 C20,10 15.5227273,20 10,20 C4.47727273,20 0,15.5227273 0,10 C0,4.47727273 4.47727273,0 10,0 C15.5227273,0 20,10 20,10 Z" id="Stroke-242" fill="#9E9E9E"></path>
                    <path d="M9.89655172,12 L9.89655172,11 C11.5517241,11 13,9.6 13,8 C13,6.4 11.5517241,5 9.89655172,5 C8.65517241,5 7.51724138,5.9 7,6.9" id="Stroke-491" stroke="#FFFFFF" stroke-width="2" stroke-linecap="round" stroke-linejoin="round"></path>
                    <path d="M10,15 L10,16" id="Stroke-492" stroke="#FFFFFF" stroke-width="2" stroke-linecap="round" stroke-linejoin="round"></path>
                </g>
            </g>
        </g>
    </g>
</svg>