<?xml version="1.0" encoding="UTF-8"?>
<svg width="18px" height="20px" viewBox="0 0 18 20" version="1.1" xmlns="http://www.w3.org/2000/svg" xmlns:xlink="http://www.w3.org/1999/xlink">
    <!-- Generator: Sketch 46.2 (44496) - http://www.bohemiancoding.com/sketch -->
    <title>Group 4</title>
    <desc>Created with Sketch.</desc>
    <defs></defs>
    <g id="Icon" stroke="none" stroke-width="1" fill="none" fill-rule="evenodd" stroke-linecap="round" stroke-linejoin="round">
        <g id="Icon_24x24" transform="translate(-99.000000, -50.000000)" stroke-width="2" stroke="#212121">
            <g id="Group-4" transform="translate(100.000000, 51.000000)">
                <g id="Icn_Location">
                    <g id="Group">
                        <polyline id="Stroke-3059" points="6.2872 13 2.4 13 0 18 16 18 13.6 13 9.7128 13"></polyline>
                        <path d="M7.99992,14.7 C7.90633414,14.7 2.39992,9.056 2.39992,5.6 C2.39992,2.056 5.29352,0 7.99992,0 C10.70632,0 13.59992,2.056 13.59992,5.6 C13.59992,9.056 8.09350586,14.7 7.99992,14.7 Z" id="Stroke-3169"></path>
                        <path d="M6.39992,5.6 C6.39992,4.716 7.11592,4 7.99992,4 C8.88392,4 9.59992,4.716 9.59992,5.6 C9.59992,6.484 8.88392,7.2 7.99992,7.2 C7.11592,7.2 6.39992,6.484 6.39992,5.6 L6.39992,5.6 Z" id="Stroke-3171"></path>
                    </g>
                </g>
            </g>
        </g>
    </g>
</svg>