<?xml version="1.0" encoding="UTF-8"?>
<svg width="24px" height="24px" viewBox="0 0 24 24" version="1.1" xmlns="http://www.w3.org/2000/svg" xmlns:xlink="http://www.w3.org/1999/xlink">
    <!-- Generator: Sketch 46.2 (44496) - http://www.bohemiancoding.com/sketch -->
    <title>Group 11</title>
    <desc>Created with Sketch.</desc>
    <defs></defs>
    <g id="02.-News-Promotions" stroke="none" stroke-width="1" fill="none" fill-rule="evenodd" stroke-linecap="round" stroke-linejoin="round">
        <g id="110_Promotion_Detail_page" transform="translate(-1045.000000, -663.000000)" stroke="#212121" stroke-width="2">
            <g id="Group-18" transform="translate(1045.000000, 663.000000)">
                <g id="Group-11" transform="translate(4.000000, 2.000000)">
                    <path d="M0,3.63636364 C0,1.62818182 1.62818182,0 3.63636364,0 C5.64454545,0 7.27272727,1.62818182 7.27272727,3.63636364 C7.27272727,5.64454545 5.64454545,7.27272727 3.63636364,7.27272727 C1.62818182,7.27272727 0,5.64454545 0,3.63636364 L0,3.63636364 Z" id="Stroke-4404"></path>
                    <path d="M9.09090909,16.3636364 C9.09090909,14.3554545 10.7190909,12.7272727 12.7272727,12.7272727 C14.7354545,12.7272727 16.3636364,14.3554545 16.3636364,16.3636364 C16.3636364,18.3718182 14.7354545,20 12.7272727,20 C10.7190909,20 9.09090909,18.3718182 9.09090909,16.3636364 L9.09090909,16.3636364 Z" id="Stroke-4405"></path>
                    <path d="M0.909090909,17.2727273 L15.4545455,2.72727273" id="Stroke-4406"></path>
                </g>
            </g>
        </g>
    </g>
</svg>