<?xml version="1.0" encoding="UTF-8"?>
<svg width="40px" height="40px" viewBox="0 0 40 40" version="1.1" xmlns="http://www.w3.org/2000/svg" xmlns:xlink="http://www.w3.org/1999/xlink">
    <!-- Generator: Sketch 46.2 (44496) - http://www.bohemiancoding.com/sketch -->
    <title>Icn_ATM</title>
    <desc>Created with Sketch.</desc>
    <defs></defs>
    <g id="15.-ATMs-Branches" stroke="none" stroke-width="1" fill="none" fill-rule="evenodd">
        <g id="100_VitriATM" transform="translate(-1097.000000, -679.000000)">
            <g id="Group-3" transform="translate(1077.000000, 659.000000)">
                <g id="Group-6">
                    <g id="Icn_ATM" transform="translate(20.000000, 20.000000)">
                        <g id="cluster-copy-5">
                            <circle id="pin-bg" fill="#21409A" cx="20" cy="20" r="20"></circle>
                            <circle id="pin-white" fill="#FFFFFF" opacity="0" cx="10" cy="10" r="6.75"></circle>
                        </g>
                        <g id="Group-9" transform="translate(9.000000, 10.000000)" stroke="#FFFFFF" stroke-width="2" stroke-linecap="round" stroke-linejoin="round">
                            <path d="M7,22 L7,3" id="Stroke-4315"></path>
                            <path d="M11,22 L11,3" id="Stroke-4316"></path>
                            <path d="M19,3 L19,20 C19,21.105 18.105,22 17,22 L5,22 C3.895,22 3,21.105 3,20 L3,3 L19,3 L19,3 Z" id="Stroke-4317"></path>
                            <path d="M15,18 L15,13" id="Stroke-4318"></path>
                            <path d="M3,6 C1.343,6 0,4.657 0,3 L0,3 C0,1.343 1.343,0 3,0 L19,0 C20.657,0 22,1.343 22,3 L22,3 C22,4.657 20.657,6 19,6" id="Stroke-4513"></path>
                        </g>
                    </g>
                </g>
            </g>
        </g>
    </g>
</svg>