<?xml version="1.0" encoding="UTF-8"?>
<svg width="40px" height="40px" viewBox="0 0 40 40" version="1.1" xmlns="http://www.w3.org/2000/svg" xmlns:xlink="http://www.w3.org/1999/xlink">
    <!-- Generator: Sketch 46.2 (44496) - http://www.bohemiancoding.com/sketch -->
    <title>Icn_Branch Copy 2</title>
    <desc>Created with Sketch.</desc>
    <defs></defs>
    <g id="15.-ATMs-Branches" stroke="none" stroke-width="1" fill="none" fill-rule="evenodd">
        <g id="100_VitriATM" transform="translate(-1097.000000, -761.000000)">
            <g id="Group-3" transform="translate(1077.000000, 659.000000)">
                <g id="Group-6">
                    <g id="Icn_Branch-Copy-2" transform="translate(20.000000, 102.000000)">
                        <g id="Icn_Branch">
                            <circle id="pin-bg" fill="#ED1D24" cx="20" cy="20" r="20"></circle>
                            <g id="Group-12" transform="translate(9.000000, 8.000000)" stroke="#FFFFFF" stroke-width="2" stroke-linecap="round" stroke-linejoin="round">
                                <polygon id="Stroke-958" points="11 0 0 6 0 9 22 9 22 6"></polygon>
                                <path d="M9,21 L9,9" id="Stroke-959"></path>
                                <path d="M13,9 L13,21" id="Stroke-960"></path>
                                <path d="M2,21 L2,9" id="Stroke-961"></path>
                                <path d="M6,9 L6,21" id="Stroke-962"></path>
                                <path d="M16,21 L16,9" id="Stroke-963"></path>
                                <path d="M20,9 L20,21" id="Stroke-964"></path>
                                <path d="M0,21 L22,21" id="Stroke-1210"></path>
                                <path d="M10,5 C10,4.448 10.448,4 11,4 C11.552,4 12,4.448 12,5 C12,5.552 11.552,6 11,6 C10.448,6 10,5.552 10,5 L10,5 Z" id="Stroke-1237"></path>
                            </g>
                        </g>
                    </g>
                </g>
            </g>
        </g>
    </g>
</svg>