<svg xmlns="http://www.w3.org/2000/svg" width="100" height="100" viewBox="0 0 100 100">
    <g fill="none" fill-rule="evenodd">
        <path fill-rule="nonzero" stroke="#FFF" stroke-width="4" d="M64.015 86.378l-3.683 6.507a2.21 2.21 0 0 1-4.007-.37l-4.992-14.46a13.212 13.212 0 0 0 8.756-5.423.433.433 0 0 1 .352-.181h.135a13.046 13.046 0 0 0 10.831-1.12l4.929 14.27a2.216 2.216 0 0 1-.576 2.33 2.21 2.21 0 0 1-2.358.435L66.47 85.52a1.994 1.994 0 0 0-2.455.86zm-38.98 1.952l6.956-2.847c.94-.38 2.014.01 2.496.904l3.676 6.498a2.206 2.206 0 0 0 4-.37l4.983-14.46a13.186 13.186 0 0 1-8.74-5.423.432.432 0 0 0-.351-.181h-.135a13.004 13.004 0 0 1-10.813-1.12l-4.965 14.234a2.219 2.219 0 0 0 .574 2.323c.419.397 1.192.544 2.319.442zm-6.662-46.108a6.764 6.764 0 0 0 0-8.132 6.763 6.763 0 0 1-1.037-6.188 6.86 6.86 0 0 1 4.508-4.41c2.906-.898 4.873-3.576 4.84-6.588a6.79 6.79 0 0 1 2.85-5.586 6.946 6.946 0 0 1 6.254-.929 6.917 6.917 0 0 0 7.826-2.512A6.917 6.917 0 0 1 49.24 5a6.917 6.917 0 0 1 5.625 2.877 6.917 6.917 0 0 0 7.826 2.512 6.946 6.946 0 0 1 6.286.922 6.79 6.79 0 0 1 2.846 5.62c-.025 2.995 1.927 5.656 4.813 6.56a6.86 6.86 0 0 1 4.496 4.404 6.763 6.763 0 0 1-1.026 6.177 6.764 6.764 0 0 0 0 8.132 6.763 6.763 0 0 1 1.038 6.188 6.86 6.86 0 0 1-4.508 4.41c-2.906.898-4.873 3.576-4.84 6.588a6.79 6.79 0 0 1-2.847 5.62 6.946 6.946 0 0 1-6.285.922c-2.885-.962-6.066.063-7.826 2.52a6.917 6.917 0 0 1-5.626 2.878 6.917 6.917 0 0 1-5.625-2.877c-1.76-2.458-4.941-3.483-7.826-2.521a6.946 6.946 0 0 1-6.285-.922 6.79 6.79 0 0 1-2.847-5.62c.04-2.998-1.9-5.67-4.785-6.587a6.86 6.86 0 0 1-4.496-4.404 6.763 6.763 0 0 1 1.025-6.177z"/>
        <path stroke="#FFF" stroke-width="4" d="M64.47 24.335a20.674 20.674 0 0 0-15.646-7.137c-8.944 0-16.707 5.71-19.557 13.866l35.203-6.73zM31.85 49.79a20.697 20.697 0 0 0 16.974 8.835c10.506 0 19.272-7.852 20.553-18.119L31.85 49.79z"/>
        <path stroke="#FFF" stroke-dasharray="2,2" stroke-width="2" d="M36.073 46.961a15.585 15.585 0 0 0 10.032 6.344c8.504 1.5 16.613-4.179 18.112-12.682M61.64 28.958a15.586 15.586 0 0 0-10.105-6.448c-8.504-1.5-16.613 4.179-18.112 12.683"/>
        <path fill="#FFF" d="M46.677 36.181a1.786 1.786 0 0 1-1.222-1.698v-.885c0-.989.802-1.792 1.786-1.792h3.163c.987 0 1.789.803 1.789 1.792h2.746a4.545 4.545 0 0 0-4.535-4.543h-.208v-3.374H47.45v3.374h-.209a4.543 4.543 0 0 0-4.532 4.543v.885a4.536 4.536 0 0 0 3.099 4.309l5.16 1.722a1.792 1.792 0 0 1 1.225 1.7v.884c0 .988-.802 1.791-1.79 1.791h-3.162a1.79 1.79 0 0 1-1.786-1.79h-2.746a4.542 4.542 0 0 0 4.532 4.541h.21v2.502h2.745V47.64h.208c2.5 0 4.535-2.037 4.535-4.542v-.884a4.536 4.536 0 0 0-3.102-4.31l-5.16-1.723z"/>
        <path stroke="#FFF" stroke-width="4" d="M23.926 38.785l4.368 4.371 4.368-4.37M64.985 35.294l4.368-4.371 4.368 4.37"/>
    </g>
</svg>
