<svg xmlns="http://www.w3.org/2000/svg" width="100" height="100" viewBox="0 0 100 100">
    <g fill="none" fill-rule="evenodd" stroke="#FFF">
        <g transform="translate(12 11)">
            <path stroke-width="4" d="M10.845 43.429h55.31V72a4 4 0 0 1-4 4h-47.31a4 4 0 0 1-4-4V43.429z"/>
            <rect width="73" height="17.714" x="2" y="25.886" stroke-width="4" rx="4"/>
            <g stroke-linecap="square" stroke-width="5">
                <path d="M47.357 27.492V73.83M26.751 28.5v45.329"/>
            </g>
            <g stroke-width="4">
                <path d="M37.849 24.957c.138-7.845-1.255-13.845-4.179-18.003C29.284.72 19.096.598 17.82 9.781c-.852 6.122 5.825 11.18 20.03 15.176zM38.067 24.957c-.138-7.845 1.254-13.845 4.178-18.003C46.631.72 56.82.598 58.097 9.781c.851 6.122-5.825 11.18-20.03 15.176zM44.465 3.257C42.802 1.275 40.205 0 37.289 0c-2.773 0-5.256 1.152-6.923 2.97"/>
                <path d="M60.442 25.145c1.484-2.12 2.043-4.957 1.289-7.774-.718-2.679-2.474-4.779-4.66-5.919M16.158 26.412c-1.484-2.12-2.043-4.957-1.288-7.774.717-2.679 2.473-4.779 4.66-5.919"/>
            </g>
        </g>
        <path stroke-dasharray="2" stroke-width="2" d="M30.5 55.552v30.916M67.5 55.552v30.916"/>
    </g>
</svg>
