<svg xmlns="http://www.w3.org/2000/svg" width="24" height="24" viewBox="0 0 24 24">
    <g fill="#000" fill-rule="evenodd">
        <path d="M18.667 13.631H20c.368 0 .667.297.667.662 0 .365-.3.662-.667.662h-1.333a.664.664 0 0 0-.667.661c0 .365.299.662.667.662H20c.368 0 .667.297.667.662 0 .364-.3.661-.667.661h-1.333a.664.664 0 0 0-.667.662c0 .365.299.662.667.662.367 0 .666.297.666.661 0 .365-.299.662-.666.662h-5.585a6.028 6.028 0 0 1-1.898-.306l-2.517-.832v-8.188c1.045-.197 2.069-.855 2.993-1.93.902-1.051 1.634-2.444 1.957-3.728l.237-.94H14a1.33 1.33 0 0 1 1.333 1.323v.661c0 .888-.28 2.593-.638 3.353h-1.362a.664.664 0 0 0-.666.662c0 .365.298.661.666.661H20c.368 0 .667.297.667.662 0 .365-.3.662-.667.662h-1.333a.664.664 0 0 0-.667.661c0 .366.299.662.667.662zM7.333 19.586c0 .365-.299.662-.666.662H3.333V9.661h3.334c.367 0 .666.297.666.662v9.263zM22 11.646a1.995 1.995 0 0 0-2-1.985h-3.882c.385-1.158.549-2.694.549-3.353v-.661C16.667 4.187 15.47 3 14 3h-.667a.666.666 0 0 0-.646.501l-.363 1.442c-.51 2.02-2.125 4.248-3.797 4.653a2.002 2.002 0 0 0-1.86-1.258h-4A.664.664 0 0 0 2 8.999v11.91c0 .366.299.662.667.662h4c.795 0 1.483-.462 1.805-1.131l2.29.758c.75.248 1.53.373 2.32.373h5.585c1.102 0 2-.89 2-1.985 0-.258-.05-.505-.14-.731A1.991 1.991 0 0 0 22 16.94a1.97 1.97 0 0 0-.51-1.324 1.97 1.97 0 0 0 0-2.647 1.97 1.97 0 0 0 .51-1.323z"/>
        <path d="M5.571 17.643a.714.714 0 1 1 0 1.428.714.714 0 0 1 0-1.428"/>
    </g>
</svg>
