<svg xmlns="http://www.w3.org/2000/svg" width="100" height="100" viewBox="0 0 100 100">
    <g fill="none" fill-rule="evenodd" stroke="#FFF">
        <path stroke-width="4" d="M29.5 17.284c.012 15.395.03 23.243.052 23.543.781 10.387 9.535 18.573 20.219 18.573 10.592 0 19.288-8.047 20.197-18.307.031-.353.056-8.288.073-23.807A5.28 5.28 0 0 0 64.761 12H34.779a5.28 5.28 0 0 0-5.28 5.284z"/>
        <path stroke-dasharray="2.2" stroke-width="2.2" d="M48.874 51.449c6.858 0 12.489-5.21 13.077-11.854l.044-.486m-5.992-18.352h-.008M35.75 26.762v.006"/>
        <path stroke-width="4" d="M69.5 17.004h10.3a2.2 2.2 0 0 1 2.2 2.2v14.309a5.28 5.28 0 0 1-1.765 3.94L69.5 47.029V17.004zM29.5 17.004H19.2a2.2 2.2 0 0 0-2.2 2.2v14.309a5.28 5.28 0 0 0 1.765 3.94L29.5 47.029V17.004zM30.75 83.775v-4.489c0-3.306 2.686-5.986 6-5.986h25.5c3.314 0 6 2.68 6 5.986v4.489"/>
        <path stroke-linecap="square" stroke-width="7" d="M24.981 85.553h49.038"/>
        <g stroke-width="4">
            <path d="M44.389 58.288c.429 7.982-1.617 12.965-6.139 14.95M55.806 58.288c-.43 7.982 1.617 12.965 6.139 14.95"/>
        </g>
        <path stroke-linecap="round" stroke-linejoin="round" stroke-width="3.5" d="M50.5 35.584L44.01 39l1.24-7.236L40 26.639l7.255-1.055L50.5 19l3.245 6.584L61 26.639l-5.25 5.125L56.99 39z"/>
    </g>
</svg>
