<svg xmlns="http://www.w3.org/2000/svg" width="100" height="100" viewBox="0 0 100 100">
    <g fill="none" fill-rule="evenodd">
        <g transform="translate(3 26)">
            <path fill="#E0E0E0" stroke="#15234E" stroke-width="4" d="M17 14V4a4 4 0 0 1 4-4h69a4 4 0 0 1 4 4v47a4 4 0 0 1-4 4H77"/>
            <path fill="#E5B351" d="M19 6h73v10H19zM76.983 23h9v7h-9z"/>
            <rect width="77" height="55" y="14" fill="#FFF" stroke="#15234E" stroke-width="4" rx="4"/>
            <g fill="#E5B351" transform="translate(40 43)">
                <ellipse cx="9.328" cy="9.463" rx="8.731" ry="8.744"/>
                <path d="M21.791 1.883a7.543 7.543 0 0 1 7.569 7.58 7.543 7.543 0 0 1-7.569 7.58 7.543 7.543 0 0 1-7.569-7.58c0-4.211 3.429-7.58 7.569-7.58zm0-1.296a8.842 8.842 0 0 0-8.863 8.876 8.842 8.842 0 0 0 8.863 8.876 8.842 8.842 0 0 0 8.863-8.876A8.842 8.842 0 0 0 21.79.587z"/>
            </g>
            <g fill="#E5B351" fill-rule="nonzero">
                <path d="M26.182 25.32c-.929 0-1.697.715-1.804 1.636a1.875 1.875 0 0 0 .05.706c.057.216.152.417.277.595l-1.293.65-.58.291-.072.037-.507.255-1.67.84-1.206-1.76-.324-.474-.047-.069-.37-.541-1.248-1.82a1.84 1.84 0 0 0 1.07-.734c.212-.304.336-.675.336-1.075 0-1.024-.815-1.857-1.817-1.857s-1.818.833-1.818 1.857a1.874 1.874 0 0 0 .795 1.534c.18.125.382.219.6.272l-1.232 1.798-.37.541-.08.116-.292.426-1.223 1.785-1.62-.814-.534-.27-.045-.022-.58-.291-1.407-.708a1.87 1.87 0 0 0 .464-1.235v-.003c0-1.024-.815-1.858-1.817-1.858S6 25.962 6 26.986c0 .939.686 1.718 1.574 1.84a1.79 1.79 0 0 0 1.262-.302l2.025 5.817.229.659h11.76l.23-.659 1.984-5.701a1.8 1.8 0 0 0 1.233.39c.949-.06 1.703-.869 1.703-1.853 0-1.024-.816-1.857-1.818-1.857z"/>
            </g>
        </g>
        <path fill="#E5B351" d="M55.57 21.696c-.844-2.42-2.846-4.42-5.266-5.265-.405-.14-.405-.721 0-.863 2.42-.843 4.422-2.845 5.266-5.264.141-.405.72-.405.862 0 .844 2.419 2.845 4.42 5.266 5.264.403.142.403.722 0 .863-2.421.844-4.422 2.845-5.266 5.265-.142.405-.721.405-.862 0M20.57 15.696c-.844-2.42-2.846-4.42-5.266-5.265-.405-.14-.405-.721 0-.863 2.42-.843 4.422-2.845 5.266-5.264.141-.405.72-.405.862 0 .844 2.419 2.845 4.42 5.266 5.264.403.142.403.722 0 .863-2.421.844-4.422 2.845-5.266 5.265-.142.405-.721.405-.862 0M11.785 21.848a4.355 4.355 0 0 0-2.633-2.632c-.203-.071-.203-.361 0-.432a4.354 4.354 0 0 0 2.633-2.632c.07-.203.36-.203.431 0a4.353 4.353 0 0 0 2.633 2.632c.201.071.201.361 0 .432a4.354 4.354 0 0 0-2.633 2.632c-.071.203-.36.203-.431 0"/>
        <path stroke="#E5B351" stroke-dasharray="2" stroke-width="2" d="M13.5 76.5h23.022M13.5 83.5h23.022"/>
    </g>
</svg>
