<svg xmlns="http://www.w3.org/2000/svg" width="100" height="100" viewBox="0 0 100 100">
    <g fill="none" fill-rule="evenodd" stroke="#FFF">
        <path stroke-dasharray="2" stroke-width="2" d="M74 66H43"/>
        <path stroke-width="2" d="M74 60H43"/>
        <path stroke-width="5" d="M74 53H43"/>
        <path stroke-width="4" d="M33 72.33V17a2 2 0 0 1 2-2h14.018m18.222 0H81a2 2 0 0 1 2 2v59"/>
        <path stroke-width="4" d="M64 72c0 .217.006 4.14.018 4.353C64.326 81.737 68.453 86 73.5 86c5.247 0 9.5-4.608 9.5-10.292"/>
        <path stroke-width="4" d="M66 72H14c0 .217.006 4.14.019 4.353.31 5.384 4.483 9.647 9.586 9.647"/>
        <path stroke-linecap="square" stroke-width="4" d="M24.568 86h48.299"/>
        <g stroke-linecap="round" stroke-linejoin="round" stroke-width="4">
            <path d="M48.239 28.384L43 39.414l6.083-.835 3.042 5.18 4.9-10.194M68.686 28.384l5.238 11.03-6.083-.835-3.042 5.18-4.9-10.194"/>
            <path d="M58.209 10c6.533 0 11.829 5.238 11.829 11.699 0 6.461-5.296 11.699-11.83 11.699-6.532 0-11.828-5.238-11.828-11.7C46.38 15.239 51.676 10 58.209 10z"/>
            <path d="M58.209 17.469c2.363 0 4.277 1.893 4.277 4.23 0 2.337-1.914 4.23-4.277 4.23-2.364 0-4.278-1.893-4.278-4.23 0-2.337 1.914-4.23 4.278-4.23z"/>
        </g>
    </g>
</svg>
