<svg xmlns="http://www.w3.org/2000/svg" width="36" height="36" viewBox="0 0 36 36">
    <g fill="none" fill-rule="evenodd">
        <path fill="#FFF" d="M9.571 18.647l19.6-5.252.593 2.213-19.6 5.252z"/>
        <path stroke="#345DD4" stroke-dasharray="0.9,0.9" stroke-width=".9" d="M30.357 17.82l-19.6 5.252M30.695 19.085l-19.6 5.252"/>
        <rect width="21.6" height="15.48" x="5.235" y="7.932" fill="#C4E1F7" stroke="#21409A" stroke-width="1.8" rx="1.8" transform="rotate(-15 16.035 15.672)"/>
        <path fill="#FFF" d="M7.761 18.24l19.6-5.252.593 2.213-19.6 5.252z"/>
        <path stroke="#345DD4" stroke-dasharray="0.9,0.9" stroke-width=".9" d="M28.546 17.414l-19.6 5.252M28.885 18.679l-19.6 5.251"/>
        <rect width="25.92" height="18" x="7.2" y="11.88" fill="#FFF" stroke="#345DD4" stroke-width="1.8" rx="1.8"/>
        <rect width="25.92" height="19.8" x="3.6" y="10.8" fill="#FFF" stroke="#345DD4" stroke-width="1.8" rx="1.8"/>
        <path fill="#21409A" d="M25.2 20.34c0-.695.565-1.26 1.26-1.26.695 0 1.26.565 1.26 1.26 0 .695-.565 1.26-1.26 1.26-.695 0-1.26-.565-1.26-1.26zM26.563 18c-1.347 0-2.443 1.05-2.443 2.34 0 1.29 1.096 2.34 2.443 2.34h4.217a.9.9 0 0 0 .9-.9V18.9a.9.9 0 0 0-.9-.9h-4.217z"/>
        <path fill="#C4E1F7" d="M5.22 11.52h2.7v18.36h-2.7a.9.9 0 0 1-.9-.9V12.42a.9.9 0 0 1 .9-.9z"/>
        <path fill="#D8D8D8" stroke="#C4E1F7" stroke-dasharray="0.9,0.9" stroke-width=".9" d="M9.72 13.32h18M9.72 28.08h18"/>
        <path fill="#FFCB2E" d="M31.525 9.61a3.136 3.136 0 0 0-1.896-1.895c-.145-.05-.145-.26 0-.31a3.135 3.135 0 0 0 1.896-1.896c.05-.145.26-.145.31 0a3.134 3.134 0 0 0 1.896 1.895c.145.052.145.26 0 .311a3.135 3.135 0 0 0-1.895 1.896c-.052.145-.26.145-.31 0M8.485 6.37A3.136 3.136 0 0 0 6.59 4.476c-.145-.05-.145-.26 0-.31a3.135 3.135 0 0 0 1.896-1.896c.05-.145.26-.145.31 0a3.134 3.134 0 0 0 1.896 1.895c.145.052.145.26 0 .311a3.135 3.135 0 0 0-1.895 1.896c-.052.145-.26.145-.31 0M5.323 8.585a1.568 1.568 0 0 0-.948-.947c-.073-.026-.073-.13 0-.156.435-.152.796-.512.948-.947.025-.073.13-.073.155 0 .152.435.512.795.948.947.072.026.072.13 0 .156a1.567 1.567 0 0 0-.948.947c-.026.073-.13.073-.155 0"/>
    </g>
</svg>
