<?xml version="1.0" encoding="UTF-8"?>
<svg width="100px" height="100px" viewBox="0 0 100 100" version="1.1" xmlns="http://www.w3.org/2000/svg" xmlns:xlink="http://www.w3.org/1999/xlink">
    <!-- Generator: Sketch 46.1 (44463) - http://www.bohemiancoding.com/sketch -->
    <title>Icon_30x30_Digial_Banking Copy</title>
    <desc>Created with Sketch.</desc>
    <defs>
        <path d="M26.2460476,0.955478261 C21.6550952,3.76656522 13.0311905,8.3618913 4.33495238,9.34941304 C1.92138095,9.62469565 0.107142857,11.660913 0.107142857,14.0772826 L0.107142857,39.5256304 C0.107142857,54.4375 22.4773333,64.4044783 28.271381,66.7378261 C28.7098095,66.9111522 29.170381,67 29.6294762,67 L29.6309524,0 C28.4588571,0 27.2852857,0.317521739 26.2460476,0.955478261 Z" id="path-1"></path>
        <path d="M0.108619048,67 C0.567714286,67 1.02828571,66.9111522 1.46671429,66.7378261 C7.2622381,64.4044783 29.6309524,54.4375 29.6309524,39.5256304 L29.6309524,14.0772826 C29.6309524,11.660913 27.8167143,9.62469565 25.4031429,9.34941304 C16.7054286,8.3618913 8.08152381,3.76656522 3.49204762,0.955478261 C2.45280952,0.317521739 1.2792381,0 0.107142857,0 L0.108619048,67 Z" id="path-3"></path>
    </defs>
    <g id="Icon" stroke="none" stroke-width="1" fill="none" fill-rule="evenodd">
        <g id="Icon_30x30_Digial_Banking-Copy">
            <g id="Ill/105_Insurance">
                <g id="Group-10-Copy-2"></g>
                <g id="Group-27" transform="translate(9.000000, 13.000000)">
                    <g id="Group-3" transform="translate(14.000000, 3.000000)">
                        <mask id="mask-2" fill="white">
                            <use xlink:href="#path-1"></use>
                        </mask>
                        <g id="Clip-2"></g>
                        <polygon id="Fill-1" fill="#C4E0F3" mask="url(#mask-2)" points="-7.27380952 74.2826087 37.0119048 74.2826087 37.0119048 -7.2826087 -7.27380952 -7.2826087"></polygon>
                    </g>
                    <g id="Group-6" transform="translate(43.000000, 3.000000)">
                        <mask id="mask-4" fill="white">
                            <use xlink:href="#path-3"></use>
                        </mask>
                        <g id="Clip-5"></g>
                        <polygon id="Fill-4" fill="#FEFEFE" mask="url(#mask-4)" points="-7.27380952 74.2826087 37.0119048 74.2826087 37.0119048 -7.2826087 -7.27380952 -7.2826087"></polygon>
                    </g>
                    <path d="M68.7019512,12.3526902 C59.86,11.363712 51.0926829,6.76547283 46.4317073,3.95584239 C44.32,2.68138587 41.6785366,2.68138587 39.5682927,3.95584239 C34.9073171,6.76547283 26.1385366,11.363712 17.2965854,12.3526902 C14.8439024,12.6265163 13,14.6627337 13,17.0791033 L13,42.524538 C13,57.4407772 35.7473171,67.4077554 41.6258537,69.7367337 C42.5112195,70.0877554 43.4887805,70.0877554 44.3726829,69.7367337 C50.2526829,67.4077554 73,57.4407772 73,42.524538 L73,17.0791033 C73,14.6627337 71.1560976,12.6265163 68.7019512,12.3526902 Z" id="Stroke-7" stroke="#345DD4" stroke-width="4"></path>
                    <path d="M5.57003592,11.6962372 C4.72584231,9.27571266 2.72413203,7.27525656 0.303745511,6.43101482 C-0.101248504,6.29007982 -0.101248504,5.70992018 0.303745511,5.56761688 C2.72413203,4.72474344 4.72584231,2.72291904 5.57003592,0.303762828 C5.71096289,-0.101254276 6.28972122,-0.101254276 6.43201642,0.303762828 C7.27621002,2.72291904 9.27655208,4.72474344 11.6983068,5.56761688 C12.1005644,5.70992018 12.1005644,6.29007982 11.6983068,6.43101482 C9.27655208,7.27525656 7.27621002,9.27571266 6.43201642,11.6962372 C6.28972122,12.1012543 5.71096289,12.1012543 5.57003592,11.6962372" id="Fill-1-Copy-4" fill="#FFCB2E"></path>
                    <path d="M75.5700359,68.6962372 C74.7258423,66.2757127 72.724132,64.2752566 70.3037455,63.4310148 C69.8987515,63.2900798 69.8987515,62.7099202 70.3037455,62.5676169 C72.724132,61.7247434 74.7258423,59.722919 75.5700359,57.3037628 C75.7109629,56.8987457 76.2897212,56.8987457 76.4320164,57.3037628 C77.27621,59.722919 79.2765521,61.7247434 81.6983068,62.5676169 C82.1005644,62.7099202 82.1005644,63.2900798 81.6983068,63.4310148 C79.2765521,64.2752566 77.27621,66.2757127 76.4320164,68.6962372 C76.2897212,69.1012543 75.7109629,69.1012543 75.5700359,68.6962372" id="Fill-1-Copy-6" fill="#FFCB2E"></path>
                    <path d="M66.785018,74.8481186 C66.3629212,73.6378563 65.362066,72.6376283 64.1518728,72.2155074 C63.9493757,72.1450399 63.9493757,71.8549601 64.1518728,71.7838084 C65.362066,71.3623717 66.3629212,70.3614595 66.785018,69.1518814 C66.8554814,68.9493729 67.1448606,68.9493729 67.2160082,69.1518814 C67.638105,70.3614595 68.638276,71.3623717 69.8491534,71.7838084 C70.0502822,71.8549601 70.0502822,72.1450399 69.8491534,72.2155074 C68.638276,72.6376283 67.638105,73.6378563 67.2160082,74.8481186 C67.1448606,75.0506271 66.8554814,75.0506271 66.785018,74.8481186" id="Fill-1-Copy-5" fill="#FFCB2E"></path>
                    <path d="M64,29 L64,36.8149474 C64,42.2778947 62.2525,48.0591579 57.61,51.6637895 L49,57" id="Stroke-9" stroke="#C4E0F3" stroke-width="2" stroke-dasharray="2,2"></path>
                </g>
            </g>
        </g>
    </g>
</svg>