<svg xmlns="http://www.w3.org/2000/svg" width="100" height="100" viewBox="0 0 100 100">
    <g fill="none" fill-rule="evenodd">
        <path fill="#FFF" stroke="#345DD4" stroke-width="4" d="M5.593 74.216C2.889 57.876 9.447 44.804 24.992 35h20c15.544 9.804 22.103 22.876 19.4 39.216C63.038 81.406 53.24 85 34.991 85c-18.248 0-28.048-3.595-29.4-10.784z"/>
        <path fill="#C4E1F7" d="M7.544 73.613C5.02 58.357 11.143 46.153 25.656 37h9.336C20.479 46.153 14.356 58.357 16.88 73.613 17.9 79.03 23.693 81.956 34.992 83 17.955 83 9 81 7.544 73.613z"/>
        <path fill="#21409A" d="M32.542 58.02a2.045 2.045 0 0 1-1.398-1.945v-1.012a2.05 2.05 0 0 1 2.045-2.052h3.62c1.13 0 2.047.92 2.047 2.052H42c0-2.867-2.33-5.2-5.192-5.2h-.237V46h-3.144v3.862h-.238c-2.861 0-5.189 2.334-5.189 5.2v1.013a5.193 5.193 0 0 0 3.548 4.933l5.906 1.971a2.051 2.051 0 0 1 1.402 1.946v1.012a2.05 2.05 0 0 1-2.048 2.05h-3.62a2.05 2.05 0 0 1-2.044-2.05H28c0 2.867 2.328 5.2 5.189 5.2h.238V75h3.144v-3.864h.237A5.201 5.201 0 0 0 42 65.937v-1.012a5.192 5.192 0 0 0-3.55-4.933l-5.908-1.973z"/>
        <g stroke="#345DD4" stroke-width="4">
            <path fill="#C4E1F7" d="M71.437 64.818C74.29 63.606 77.146 63 80 63c2.854 0 5.709.606 8.563 1.818A4 4 0 0 1 91 68.5v13a4 4 0 0 1-2.437 3.682C85.71 86.394 82.854 87 80 87c-2.854 0-5.709-.606-8.563-1.818A4 4 0 0 1 69 81.5v-13a4 4 0 0 1 2.437-3.682z"/>
            <path stroke-linecap="round" stroke-linejoin="round" d="M91 76c-3.667 2-7.333 3-11 3s-7.333-1-11-3M91 68c-3.667 2-7.333 3-11 3s-7.333-1-11-3"/>
        </g>
        <g stroke="#345DD4" stroke-width="4">
            <path fill="#FFF" d="M55.437 46.818C58.29 45.606 61.146 45 64 45c2.854 0 5.709.606 8.563 1.818A4 4 0 0 1 75 50.5v37a4 4 0 0 1-2.437 3.682C69.71 92.394 66.854 93 64 93c-2.854 0-5.709-.606-8.563-1.818A4 4 0 0 1 53 87.5v-37a4 4 0 0 1 2.437-3.682z"/>
            <path stroke-linecap="round" stroke-linejoin="round" d="M75 82c-3.667 2-7.333 3-11 3s-7.333-1-11-3M75 74c-3.667 2-7.333 3-11 3s-7.333-1-11-3M75 66c-3.667 2-7.333 3-11 3s-7.333-1-11-3M75 58c-3.667 2-7.333 3-11 3s-7.333-1-11-3M75 50c-3.667 2-7.333 3-11 3s-7.333-1-11-3"/>
        </g>
        <path fill="#FFF" stroke="#345DD4" stroke-linecap="round" stroke-linejoin="round" stroke-width="4" d="M26 29l-4-11c2-2 4.333-2 7 0s4.667 1.333 6-2c1.333 3.333 3.333 4 6 2s5-2 7 0l-4 11"/>
        <rect width="24" height="8" x="23" y="28" fill="#FFF" stroke="#345DD4" stroke-width="4" rx="4"/>
        <path fill="#FFCB2E" d="M14.57 14.696c-.844-2.42-2.846-4.42-5.266-5.265-.405-.14-.405-.721 0-.863 2.42-.843 4.422-2.845 5.266-5.264.141-.405.72-.405.862 0 .844 2.419 2.845 4.42 5.266 5.264.403.142.403.722 0 .863-2.421.844-4.422 2.845-5.266 5.265-.142.405-.721.405-.862 0M81.57 44.696c-.844-2.42-2.846-4.42-5.266-5.265-.405-.14-.405-.721 0-.863 2.42-.843 4.422-2.845 5.266-5.264.141-.405.72-.405.862 0 .844 2.419 2.845 4.42 5.266 5.264.403.142.403.722 0 .863-2.421.844-4.422 2.845-5.266 5.265-.142.405-.721.405-.862 0M94.785 62.848a4.355 4.355 0 0 0-2.633-2.632c-.203-.071-.203-.361 0-.432a4.354 4.354 0 0 0 2.633-2.632c.07-.203.36-.203.431 0a4.353 4.353 0 0 0 2.633 2.632c.201.071.201.361 0 .432a4.354 4.354 0 0 0-2.633 2.632c-.071.203-.36.203-.431 0"/>
    </g>
</svg>
