<svg xmlns="http://www.w3.org/2000/svg" width="100" height="100" viewBox="0 0 100 100">
    <g fill="none" fill-rule="evenodd">
        <circle cx="50" cy="50" r="34" stroke="#FFF" stroke-width="4"/>
        <path stroke="#FFF" stroke-width="4" d="M27.18 42.54l-3.094.591 2.34 2.34c.192-1.003.445-1.98.755-2.932zm41.272-7.89c.643.773 1.24 1.59 1.79 2.448l1.31-3.04-3.1.592zm0 0L27.18 42.54C30.344 32.837 39.465 26 50 26a23.957 23.957 0 0 1 18.452 8.65zM30.096 63.417A23.982 23.982 0 0 0 50 74c12.315 0 22.566-9.311 23.862-21.41L30.096 63.416z"/>
        <path stroke="#FFF" stroke-dasharray="2,2" stroke-width="2" d="M35.404 60.36a17.84 17.84 0 0 0 11.484 7.26c9.734 1.717 19.016-4.782 20.733-14.517m-2.95-13.351a17.841 17.841 0 0 0-11.568-7.382c-9.734-1.716-19.016 4.784-20.733 14.518"/>
        <path fill="#FFF" d="M47.542 48.02a2.045 2.045 0 0 1-1.398-1.945v-1.012a2.05 2.05 0 0 1 2.045-2.052h3.62c1.13 0 2.047.92 2.047 2.052H57c0-2.867-2.33-5.2-5.192-5.2h-.237V36h-3.144v3.862h-.238c-2.861 0-5.189 2.334-5.189 5.2v1.013a5.193 5.193 0 0 0 3.548 4.933l5.906 1.971a2.051 2.051 0 0 1 1.402 1.946v1.012a2.05 2.05 0 0 1-2.048 2.05h-3.62a2.05 2.05 0 0 1-2.044-2.05H43c0 2.867 2.328 5.2 5.189 5.2h.238V64h3.144v-2.864h.237A5.201 5.201 0 0 0 57 55.937v-1.012a5.192 5.192 0 0 0-3.55-4.933l-5.908-1.973z"/>
        <path stroke="#FFF" stroke-width="4" d="M21.5 51l5 5.003 5-5.003M68.5 47.003l5-5.003 5 5.003"/>
    </g>
</svg>
