<svg xmlns="http://www.w3.org/2000/svg" width="100" height="100" viewBox="0 0 100 100">
    <g fill="none" fill-rule="evenodd">
        <path stroke="#FFF" stroke-width="4" d="M14 59.5V41.08h33V81H15"/>
        <path fill="#FFF" d="M36 47h5v5h-5z"/>
        <path stroke="#FFF" stroke-width="4" d="M65.342 61.142l-.288-36.212 14.666 6.984A4 4 0 0 1 82 35.526V65.57M78.5 81h-13M46 78.393l19-17.761V20.279L46 41.758v36.635z"/>
        <path stroke="#FFF" stroke-width="4" d="M47.084 41l21.551-25h-41.05a2 2 0 0 0-1.577.77L7.098 41h39.986z"/>
        <path fill="#D8D8D8" stroke="#FFF" stroke-dasharray="2,2" stroke-width="2" d="M36 21h22"/>
        <g stroke="#FFF" stroke-width="4" transform="translate(46 60)">
            <path d="M8.475 21H0V5l18.069-3.934a4 4 0 0 1 1.934.058l25.08 7.055A4 4 0 0 1 48 12.03V21h-6.73m-8.644 0H16.341"/>
            <circle cx="12" cy="21" r="4"/>
            <circle cx="37" cy="21" r="4"/>
        </g>
        <circle cx="14" cy="70" r="11" stroke="#FFF" stroke-width="4"/>
        <path stroke="#FFF" stroke-width="4" d="M21.65 78.827A6.5 6.5 0 1 0 26.5 68"/>
    </g>
</svg>
