<svg xmlns="http://www.w3.org/2000/svg" width="100" height="100" viewBox="0 0 100 100">
    <g fill="none" fill-rule="evenodd">
        <circle cx="50" cy="50" r="34" fill="#FFF" stroke="#345DD4" stroke-width="4"/>
        <circle cx="50" cy="50" r="14" fill="#C4E1F7"/>
        <circle cx="50" cy="50" r="24" stroke="#C4E1F7" stroke-width="4"/>
        <path fill="#FFCB2E" d="M17.57 22.696c-.844-2.42-2.846-4.42-5.266-5.265-.405-.14-.405-.721 0-.863 2.42-.843 4.422-2.845 5.266-5.264.141-.405.72-.405.862 0 .844 2.419 2.845 4.42 5.266 5.264.403.142.403.722 0 .863-2.421.844-4.422 2.845-5.266 5.265-.142.405-.721.405-.862 0M79.57 87.696c-.844-2.42-2.846-4.42-5.266-5.265-.405-.14-.405-.721 0-.863 2.42-.843 4.422-2.845 5.266-5.264.141-.405.72-.405.862 0 .844 2.419 2.845 4.42 5.266 5.264.403.142.403.722 0 .863-2.421.844-4.422 2.845-5.266 5.265-.142.405-.721.405-.862 0M10.785 27.848a4.355 4.355 0 0 0-2.633-2.632c-.203-.071-.203-.361 0-.432a4.354 4.354 0 0 0 2.633-2.632c.07-.203.36-.203.431 0a4.353 4.353 0 0 0 2.633 2.632c.201.071.201.361 0 .432a4.354 4.354 0 0 0-2.633 2.632c-.071.203-.36.203-.431 0"/>
        <path stroke="#345DD4" stroke-dasharray="2,2" stroke-width="2" d="M35.404 60.36a17.84 17.84 0 0 0 11.484 7.26c9.734 1.717 19.016-4.782 20.733-14.517m-2.95-13.351a17.841 17.841 0 0 0-11.568-7.382c-9.734-1.716-19.016 4.784-20.733 14.518"/>
        <path fill="#21409A" d="M47.542 48.02a2.045 2.045 0 0 1-1.398-1.945v-1.012a2.05 2.05 0 0 1 2.045-2.052h3.62c1.13 0 2.047.92 2.047 2.052H57c0-2.867-2.33-5.2-5.192-5.2h-.237V36h-3.144v3.862h-.238c-2.861 0-5.189 2.334-5.189 5.2v1.013a5.193 5.193 0 0 0 3.548 4.933l5.906 1.971a2.051 2.051 0 0 1 1.402 1.946v1.012a2.05 2.05 0 0 1-2.048 2.05h-3.62a2.05 2.05 0 0 1-2.044-2.05H43c0 2.867 2.328 5.2 5.189 5.2h.238V64h3.144v-2.864h.237A5.201 5.201 0 0 0 57 55.937v-1.012a5.192 5.192 0 0 0-3.55-4.933l-5.908-1.973z"/>
        <path stroke="#345DD4" stroke-width="4" d="M21.5 51l5 5.003 5-5.003M68.5 47.003l5-5.003 5 5.003"/>
    </g>
</svg>
