<svg xmlns="http://www.w3.org/2000/svg" xmlns:xlink="http://www.w3.org/1999/xlink" width="36" height="36" viewBox="0 0 36 36">
    <defs>
        <path id="a" d="M15.84 14.76l8.28-9.36v24.48h-8.28z"/>
        <path id="b" d="M10.106 5.04h14.21a.9.9 0 0 1 .682 1.488L17.28 15.48H2.924a.9.9 0 0 1-.71-1.454l6.473-8.293a1.8 1.8 0 0 1 1.42-.693z"/>
    </defs>
    <g fill="none" fill-rule="evenodd">
        <path fill="#FFF" stroke="#345DD4" stroke-width="1.8" d="M5.04 14.04h11.88v15.12H5.49a.45.45 0 0 1-.45-.45V14.04z"/>
        <path fill="#345DD4" d="M12.96 16.92h1.8v1.8h-1.8z"/>
        <path fill="#C4E1F7" d="M5.76 14.04h3.6v11.88h-3.6z"/>
        <circle cx="28.44" cy="22.32" r="3.6" fill="#FFF" stroke="#21409A" stroke-width="1.8"/>
        <path fill="#C4E1F7" stroke="#345DD4" stroke-width="1.8" d="M21.96 8.28l6.534 3.111a1.8 1.8 0 0 1 1.026 1.626V29.16h-7.56V8.28z"/>
        <use fill="#FFF" xlink:href="#a"/>
        <path stroke="#345DD4" stroke-width="1.8" d="M16.74 15.1v13.88h6.48V7.776L16.74 15.1z"/>
        <path fill="#21409A" d="M19.8 19.08h2.16v5.04H19.8z"/>
        <path fill="#C4E1F7" d="M18 16.92h1.8v1.8H18z"/>
        <use fill="#FFF" xlink:href="#b"/>
        <path stroke="#345DD4" stroke-width="1.8" d="M16.868 14.58l7.448-8.64h-14.21a.9.9 0 0 0-.71.346L2.925 14.58h13.944z"/>
        <path fill="#D8D8D8" stroke="#C4E1F7" stroke-dasharray="0.9,0.9" stroke-width=".9" d="M12.96 7.56h7.92"/>
        <path fill="#FFF" stroke="#345DD4" stroke-width="1.8" d="M16.56 23.4l6.417-1.397a1.8 1.8 0 0 1 .87.026l8.68 2.442a1.8 1.8 0 0 1 1.313 1.733v2.83H16.56V23.4z"/>
        <rect width="1.44" height="1.44" x="22.68" y="24.84" fill="#C4E1F7" rx=".45"/>
        <rect width="2.16" height="2.16" x="19.8" y="24.12" fill="#C4E1F7" rx=".45"/>
        <circle cx="20.88" cy="29.16" r="1.44" fill="#FFF" stroke="#21409A" stroke-width="1.8"/>
        <circle cx="29.88" cy="29.16" r="1.44" fill="#FFF" stroke="#21409A" stroke-width="1.8"/>
        <circle cx="5.04" cy="25.2" r="3.96" fill="#FFF" stroke="#21409A" stroke-width="1.8"/>
        <circle cx="9.54" cy="26.82" r="2.34" fill="#FFF" stroke="#345DD4" stroke-width="1.8"/>
        <path fill="#FFCB2E" d="M32.605 9.97a3.136 3.136 0 0 0-1.896-1.895c-.145-.05-.145-.26 0-.31a3.135 3.135 0 0 0 1.896-1.896c.05-.145.26-.145.31 0a3.134 3.134 0 0 0 1.896 1.895c.145.052.145.26 0 .311a3.135 3.135 0 0 0-1.895 1.896c-.052.145-.26.145-.31 0M4.165 6.73A3.136 3.136 0 0 0 2.27 4.836c-.145-.05-.145-.26 0-.31a3.135 3.135 0 0 0 1.896-1.896c.05-.145.26-.145.31 0a3.134 3.134 0 0 0 1.896 1.895c.145.052.145.26 0 .311a3.135 3.135 0 0 0-1.895 1.896c-.052.145-.26.145-.31 0M32.683 19.025a1.568 1.568 0 0 0-.948-.947c-.073-.026-.073-.13 0-.156.435-.152.796-.512.948-.947.025-.073.13-.073.155 0 .152.435.512.795.948.947.072.026.072.13 0 .156a1.567 1.567 0 0 0-.948.947c-.026.073-.13.073-.155 0"/>
    </g>
</svg>
