<svg xmlns="http://www.w3.org/2000/svg" width="100" height="100" viewBox="0 0 100 100">
    <g fill="none" fill-rule="evenodd">
        <path stroke="#FFF" stroke-width="4" d="M44.992 35c.567.358 1.122.72 1.665 1.086 4.448 3 8.093 6.292 10.927 9.875m-4.643 37.287C48.331 84.416 42.348 85 34.991 85 16.745 85 6.945 81.405 5.594 74.216 2.987 58.465 8.987 45.75 23.345 36.073c.538-.362 1.086-.72 1.647-1.073"/>
        <path stroke="#FFF" stroke-dasharray="2,2" stroke-width="2" d="M11.589 70.598c-.828-9.933 2.027-17.958 8.563-24.076"/>
        <path fill="#FFF" d="M32.542 58.02a2.045 2.045 0 0 1-1.398-1.945v-1.012a2.05 2.05 0 0 1 2.045-2.052h3.62c1.13 0 2.047.92 2.047 2.052H42c0-2.867-2.33-5.2-5.192-5.2h-.237V46h-3.144v3.862h-.238c-2.861 0-5.189 2.334-5.189 5.2v1.013a5.193 5.193 0 0 0 3.548 4.933l5.906 1.971a2.051 2.051 0 0 1 1.402 1.946v1.012a2.05 2.05 0 0 1-2.048 2.05h-3.62a2.05 2.05 0 0 1-2.044-2.05H28c0 2.867 2.328 5.2 5.189 5.2h.238V75h3.144v-3.864h.237A5.201 5.201 0 0 0 42 65.937v-1.012a5.192 5.192 0 0 0-3.55-4.933l-5.908-1.973z"/>
        <g stroke="#FFF" stroke-width="4">
            <path d="M74.988 63.62299999999999A20.712 20.712 0 0 1 80 63c2.854 0 5.709.606 8.563 1.818A4 4 0 0 1 91 68.5v13a4 4 0 0 1-2.437 3.682C85.71 86.394 82.854 87 80 87a20.63 20.63 0 0 1-4.618-.529M69 68.643"/>
            <path stroke-linecap="round" stroke-linejoin="round" d="M91 76c-3.667 2-7.333 3-11 3-1.616 0-3.233-.194-4.85-.583M91 68c-3.667 2-7.333 3-11 3-1.596 0-3.191-.19-4.787-.568"/>
        </g>
        <g stroke="#FFF" stroke-width="4">
            <path d="M55.437 46.818C58.29 45.606 61.146 45 64 45c2.854 0 5.709.606 8.563 1.818A4 4 0 0 1 75 50.5v37a4 4 0 0 1-2.437 3.682C69.71 92.394 66.854 93 64 93c-2.854 0-5.709-.606-8.563-1.818A4 4 0 0 1 53 87.5v-37a4 4 0 0 1 2.437-3.682z"/>
            <path stroke-linecap="round" stroke-linejoin="round" d="M75 82c-3.667 2-7.333 3-11 3s-7.333-1-11-3M75 74c-3.667 2-7.333 3-11 3s-7.333-1-11-3M75 66c-3.667 2-7.333 3-11 3s-7.333-1-11-3M75 58c-3.667 2-7.333 3-11 3s-7.333-1-11-3M75 50c-3.667 2-7.333 3-11 3s-7.333-1-11-3"/>
        </g>
        <path stroke="#FFF" stroke-linecap="round" stroke-linejoin="round" stroke-width="4" d="M25.5 28L22 18c2-2 4.333-2 7 0s4.667 1.333 6-2c1.333 3.333 3.333 4 6 2s5-2 7 0l-3.5 10"/>
        <rect width="24" height="8" x="23" y="28" stroke="#FFF" stroke-width="4" rx="4"/>
    </g>
</svg>
