<svg xmlns="http://www.w3.org/2000/svg" width="100" height="100" viewBox="0 0 100 100">
    <g fill="none" fill-rule="evenodd">
        <g transform="translate(20 16)">
            <rect width="77" height="55" fill="#C4E1F7" stroke="#345DD4" stroke-width="4" rx="4"/>
            <path fill="#21409A" d="M2 6h73v10H2z"/>
            <path fill="#FFF" d="M7 23h62v7H7z"/>
        </g>
        <g transform="translate(3 30)">
            <rect width="77" height="55" fill="#FFF" stroke="#345DD4" stroke-width="4" rx="4"/>
            <path fill="#345DD4" d="M62 9h7v7h-7z"/>
            <path stroke="#C4E1F7" stroke-dasharray="2,2" stroke-width="2" d="M34 36H7M34 40H7"/>
            <g transform="translate(40 28)">
                <ellipse cx="21.791" cy="10.463" fill="#C4E1F7" rx="8.731" ry="8.744"/>
                <ellipse cx="9.328" cy="10.463" fill="#21409A" rx="8.731" ry="8.744"/>
                <path fill="#FFF" d="M21.791 1.719a8.701 8.701 0 0 1 8.731 8.744 8.701 8.701 0 0 1-8.731 8.744 8.701 8.701 0 0 1-8.731-8.744c0-4.858 3.955-8.744 8.731-8.744zm0-1.495a10.2 10.2 0 0 0-10.224 10.24 10.2 10.2 0 0 0 10.224 10.238 10.2 10.2 0 0 0 10.224-10.239A10.2 10.2 0 0 0 21.79.224z"/>
            </g>
        </g>
        <path fill="#FFCB2E" d="M8.57 24.696c-.844-2.42-2.846-4.42-5.266-5.265-.405-.14-.405-.721 0-.863 2.42-.843 4.422-2.845 5.266-5.264.141-.405.72-.405.862 0 .844 2.419 2.845 4.42 5.266 5.264.403.142.403.722 0 .863-2.421.844-4.422 2.845-5.266 5.265-.142.405-.721.405-.862 0M84.785 29.848a4.355 4.355 0 0 0-2.633-2.632c-.203-.071-.203-.361 0-.432a4.354 4.354 0 0 0 2.633-2.632c.07-.203.36-.203.431 0a4.353 4.353 0 0 0 2.633 2.632c.201.071.201.361 0 .432a4.354 4.354 0 0 0-2.633 2.632c-.071.203-.36.203-.431 0M15.785 14.848a4.355 4.355 0 0 0-2.633-2.632c-.203-.071-.203-.361 0-.432a4.354 4.354 0 0 0 2.633-2.632c.07-.203.36-.203.431 0a4.353 4.353 0 0 0 2.633 2.632c.201.071.201.361 0 .432a4.354 4.354 0 0 0-2.633 2.632c-.071.203-.36.203-.431 0"/>
    </g>
</svg>
