<?xml version="1.0" encoding="utf-8"?>
<!-- Generator: Adobe Illustrator 16.0.2, SVG Export Plug-In . SVG Version: 6.00 Build 0)  -->
<!DOCTYPE svg PUBLIC "-//W3C//DTD SVG 1.1//EN" "http://www.w3.org/Graphics/SVG/1.1/DTD/svg11.dtd">
<svg version="1.1" id="Layer_1" xmlns="http://www.w3.org/2000/svg" xmlns:xlink="http://www.w3.org/1999/xlink" x="0px" y="0px"
	 width="36px" height="36px" viewBox="0 0 36 36" enable-background="new 0 0 36 36" xml:space="preserve">
<path fill="#FFFFFF" d="M9.571,18.646l19.6-5.251l0.593,2.213l-19.6,5.251L9.571,18.646z"/>
<path fill="none" stroke="#ffffff" stroke-width="0.9" stroke-dasharray="0.9,0.9" d="M30.357,17.82l-19.601,5.252 M30.695,19.085
	l-19.6,5.252"/>
<path fill="#C4E1F7" stroke="#21409A" stroke-width="1.8" d="M5.338,10.525l17.386-4.659c0.961-0.257,1.947,0.313,2.205,1.273
	l3.074,11.475c0.258,0.96-0.313,1.947-1.272,2.204L9.345,25.478c-0.96,0.257-1.947-0.313-2.204-1.272L4.065,12.729
	C3.808,11.77,4.378,10.782,5.338,10.525z"/>
<path fill="#FFFFFF" d="M7.761,18.24l19.6-5.252l0.593,2.213l-19.6,5.252L7.761,18.24z"/>
<path fill="none" stroke="#ffffff" stroke-width="0.9" stroke-dasharray="0.9,0.9" d="M28.546,17.414l-19.6,5.252 M28.885,18.68
	l-19.6,5.25"/>
<path fill="#FFFFFF" stroke="#ffffff" stroke-width="1.8" d="M9,11.88h22.32c0.994,0,1.8,0.806,1.8,1.8v14.4
	c0,0.994-0.806,1.8-1.8,1.8H9c-0.994,0-1.8-0.806-1.8-1.8v-14.4C7.2,12.686,8.006,11.88,9,11.88z"/>
<path fill="#FFFFFF" stroke="#ffffff" stroke-width="1.8" d="M5.4,10.8h22.321c0.994,0,1.799,0.806,1.799,1.8v16.2
	c0,0.994-0.805,1.8-1.799,1.8H5.4c-0.994,0-1.8-0.806-1.8-1.8V12.6C3.6,11.606,4.406,10.8,5.4,10.8z"/>
<path fill="#21409A" d="M25.2,20.34c0-0.695,0.565-1.26,1.26-1.26s1.261,0.564,1.261,1.26s-0.566,1.26-1.261,1.26
	S25.2,21.035,25.2,20.34z M26.563,18c-1.347,0-2.442,1.05-2.442,2.34s1.096,2.34,2.442,2.34h4.217c0.498,0,0.9-0.402,0.9-0.899V18.9
	c0-0.498-0.402-0.9-0.9-0.9H26.563z"/>
<path fill="#C4E1F7" d="M5.22,11.52h2.7v18.36h-2.7c-0.497,0-0.9-0.403-0.9-0.899V12.42C4.32,11.923,4.723,11.52,5.22,11.52z"/>
<path fill="#D8D8D8" stroke="#C4E1F7" stroke-width="0.9" stroke-dasharray="0.9,0.9" d="M9.72,13.32h18 M9.72,28.08h18"/>
</svg>
