<svg xmlns="http://www.w3.org/2000/svg" xmlns:xlink="http://www.w3.org/1999/xlink" width="84" height="83" viewBox="0 0 84 83">
    <defs>
        <path id="a" d="M83.767 82.79V.096H0V82.79h83.767z"/>
    </defs>
    <g fill="none" fill-rule="evenodd" opacity=".099">
        <g>
            <mask id="b" fill="#fff">
                <use xlink:href="#a"/>
            </mask>
            <path fill="#21409A" d="M14.002 37.567l-7.808-6.11 7.808-6.05v12.16zm6.264-26.915h43.235c1.422 0 2.58 1.196 2.58 2.665v27.132L41.883 59.38 17.687 40.45V13.317c0-1.47 1.157-2.665 2.58-2.665zm21.397-6.68c.13-.1.312-.1.442 0l3.707 2.873h-7.857l3.708-2.873zm35.91 27.486l-7.808 6.109v-12.16l7.808 6.051zm-25.53 24.748l28.04-21.936v42.892l-28.04-20.956zm-17.248 2.403l7.088 5.545 7.089-5.546 27.263 20.376H7.533L34.795 58.61zM3.685 34.27l28.039 21.936-28.04 20.956V34.27zm66.08-13.622v-7.331c0-3.569-2.81-6.472-6.264-6.472H51.952L44.316.927a3.97 3.97 0 0 0-4.864 0l-7.638 5.918H20.266c-3.453 0-6.264 2.903-6.264 6.472v7.331L1.878 30.044A3.43 3.43 0 0 0 0 33.117v46.248c0 1.889 1.488 3.426 3.316 3.426h77.135c1.829 0 3.317-1.537 3.317-3.426V33.117a3.43 3.43 0 0 0-1.879-3.073l-12.124-9.396z" mask="url(#b)"/>
        </g>
        <path fill="#21409A" d="M26.884 23h34.232C62.156 23 63 21.88 63 20.5c0-1.381-.843-2.5-1.884-2.5H26.884C25.844 18 25 19.119 25 20.5c0 1.38.843 2.5 1.884 2.5M26.884 32h34.232C62.156 32 63 30.88 63 29.5c0-1.381-.843-2.5-1.884-2.5H26.884C25.844 27 25 28.119 25 29.5c0 1.38.843 2.5 1.884 2.5M26.884 42h34.232C62.156 42 63 40.88 63 39.5c0-1.381-.843-2.5-1.884-2.5H26.884C25.844 37 25 38.119 25 39.5c0 1.38.843 2.5 1.884 2.5"/>
    </g>
</svg>
