<svg xmlns="http://www.w3.org/2000/svg" width="24" height="24" viewBox="0 0 24 24">
    <g fill="none" fill-rule="evenodd" stroke="#FFF" stroke-linecap="round" stroke-linejoin="round" stroke-width="2">
        <path d="M8 16.628c1.293 2.009 4.027 3.399 7.201 3.399.59 0 1.163-.051 1.716-.142l4.284 2.142v-4.04c1.241-1.057 2-2.44 2-3.96 0-1.552-.792-2.961-2.081-4.027"/>
        <path d="M11 1C5.477 1 1 4.582 1 9c0 1.797.75 3.45 2 4.785V19l4.833-2.416C8.829 16.85 9.892 17 11 17c5.523 0 10-3.582 10-8s-4.477-8-10-8z"/>
    </g>
</svg>
