<svg xmlns="http://www.w3.org/2000/svg" width="573" height="283" viewBox="0 0 573 283">
    <g fill="none" fill-rule="evenodd">
        <rect width="55" height="45" x="258.5" y="142.5" fill="#FFF" rx="4"/>
        <rect width="55" height="45" x="316" y="142.5" fill="#FFF" rx="4"/>
        <rect width="55" height="45" x="373.5" y="142.5" fill="#FFF" rx="4"/>
        <rect width="55" height="45" x="431" y="142.5" fill="#FFF" rx="4"/>
        <rect width="55" height="45" x="488.5" y="142.5" fill="#FFF" rx="4"/>
        <rect width="55" height="45" x="230" y="95" fill="#FFF" rx="4"/>
        <rect width="55" height="45" x="287.5" y="95" fill="#FFF" rx="4"/>
        <rect width="55" height="45" x="345" y="95" fill="#FFF" rx="4"/>
        <text fill="#232730" font-family="HelveticaNeue, Helvetica Neue" font-size="18">
            <tspan x="253.084" y="124">T</tspan>
        </text>
        <text fill="#232730" font-family="HelveticaNeue, Helvetica Neue" font-size="18">
            <tspan x="309.668" y="124">Y</tspan>
        </text>
        <text fill="#232730" font-family="HelveticaNeue, Helvetica Neue" font-size="18">
            <tspan x="366.502" y="124">U</tspan>
        </text>
        <g transform="translate(402 95)">
            <rect width="55" height="45" x=".25" fill="#FFF" rx="4"/>
            <text fill="#232730" font-family="HelveticaNeue, Helvetica Neue" font-size="18">
                <tspan x="26.169" y="28.75">I</tspan>
            </text>
        </g>
        <g transform="translate(459.5 95)">
            <rect width="55" height="45" x=".25" fill="#FFF" rx="4"/>
            <text fill="#232730" font-family="HelveticaNeue, Helvetica Neue" font-size="18">
                <tspan x="21.66" y="28.75">O</tspan>
            </text>
        </g>
        <text fill="#232730" font-family="HelveticaNeue, Helvetica Neue" font-size="18">
            <tspan x="278.669" y="171.5">G</tspan>
        </text>
        <text fill="#232730" font-family="HelveticaNeue, Helvetica Neue" font-size="18">
            <tspan x="336.502" y="171.5">H</tspan>
        </text>
        <text fill="#232730" font-family="HelveticaNeue, Helvetica Neue" font-size="18">
            <tspan x="396.079" y="171.5">J</tspan>
        </text>
        <text fill="#232730" font-family="HelveticaNeue, Helvetica Neue" font-size="18">
            <tspan x="452.247" y="171.5">K</tspan>
        </text>
        <text fill="#232730" font-family="HelveticaNeue, Helvetica Neue" font-size="18">
            <tspan x="510.746" y="171.5">L</tspan>
        </text>
        <g transform="translate(517 95)">
            <rect width="55" height="45" x=".25" fill="#FFF" rx="4"/>
            <text fill="#232730" font-family="HelveticaNeue, Helvetica Neue" font-size="18">
                <tspan x="22.668" y="28.75">P</tspan>
            </text>
        </g>
        <rect width="55" height="45" x="28.5" y="142.5" fill="#FFF" rx="4"/>
        <rect width="55" height="45" x="86" y="142.5" fill="#FFF" rx="4"/>
        <rect width="55" height="45" x="143.5" y="142.5" fill="#FFF" rx="4"/>
        <rect width="55" height="45" x="201" y="142.5" fill="#FFF" rx="4"/>
        <rect width="55" height="45" y="95" fill="#FFF" rx="4"/>
        <rect width="55" height="45" x="57.5" y="95" fill="#FFF" rx="4"/>
        <rect width="55" height="45" x="115" y="95" fill="#FFF" rx="4"/>
        <rect width="55" height="45" x="172.5" y="95" fill="#FFF" rx="4"/>
        <text fill="#232730" font-family="HelveticaNeue, Helvetica Neue" font-size="18">
            <tspan x="21.66" y="124">Q</tspan>
        </text>
        <text fill="#232730" font-family="HelveticaNeue, Helvetica Neue" font-size="18">
            <tspan x="77.166" y="124">W</tspan>
        </text>
        <text fill="#232730" font-family="HelveticaNeue, Helvetica Neue" font-size="18">
            <tspan x="137.501" y="124">E</tspan>
        </text>
        <text fill="#232730" font-family="HelveticaNeue, Helvetica Neue" font-size="18">
            <tspan x="194.585" y="124">R</tspan>
        </text>
        <text fill="#232730" font-family="HelveticaNeue, Helvetica Neue" font-size="18">
            <tspan x="49.668" y="171.5">A</tspan>
        </text>
        <text fill="#232730" font-family="HelveticaNeue, Helvetica Neue" font-size="18">
            <tspan x="107.168" y="171.5">S</tspan>
        </text>
        <text fill="#232730" font-family="HelveticaNeue, Helvetica Neue" font-size="18">
            <tspan x="164.164" y="171.5">D</tspan>
        </text>
        <text fill="#232730" font-family="HelveticaNeue, Helvetica Neue" font-size="18">
            <tspan x="223.084" y="171.5">F</tspan>
        </text>
        <g transform="translate(86 190)">
            <rect width="55" height="45" x="172.5" fill="#FFF" rx="4"/>
            <rect width="55" height="45" x="230" fill="#FFF" rx="4"/>
            <rect width="55" height="45" x="287.5" fill="#FFF" rx="4"/>
            <rect width="55" height="45" x="345" fill="#FFF" rx="4"/>
            <text fill="#232730" font-family="HelveticaNeue, Helvetica Neue" font-size="18">
                <tspan x="194.085" y="29">B</tspan>
            </text>
            <text fill="#232730" font-family="HelveticaNeue, Helvetica Neue" font-size="18">
                <tspan x="251.002" y="29">N</tspan>
            </text>
            <text fill="#232730" font-family="HelveticaNeue, Helvetica Neue" font-size="18">
                <tspan x="307.161" y="29">M</tspan>
            </text>
            <text fill="#232730" font-family="HelveticaNeue, Helvetica Neue" font-size="18">
                <tspan x="370.248" y="29">,</tspan>
            </text>
            <rect width="55" height="45" fill="#FFF" rx="4"/>
            <rect width="55" height="45" x="57.5" fill="#FFF" rx="4"/>
            <rect width="55" height="45" x="115" fill="#FFF" rx="4"/>
            <text fill="#232730" font-family="HelveticaNeue, Helvetica Neue" font-size="18">
                <tspan x="22.001" y="29">X</tspan>
            </text>
            <text fill="#232730" font-family="HelveticaNeue, Helvetica Neue" font-size="18">
                <tspan x="78.502" y="29">C</tspan>
            </text>
            <text fill="#232730" font-family="HelveticaNeue, Helvetica Neue" font-size="18">
                <tspan x="137.001" y="29">V</tspan>
            </text>
        </g>
        <g transform="translate(86)">
            <rect width="55" height="45" x="172.5" fill="#FFF" rx="4"/>
            <rect width="55" height="45" x="230" fill="#FFF" rx="4"/>
            <rect width="55" height="45" x="287.5" fill="#FFF" rx="4"/>
            <rect width="55" height="45" x="345" fill="#FFF" rx="4"/>
            <text fill="#232730" font-family="HelveticaNeue, Helvetica Neue" font-size="18">
                <tspan x="194.085" y="29">B</tspan>
            </text>
            <text fill="#232730" font-family="HelveticaNeue, Helvetica Neue" font-size="18">
                <tspan x="251.002" y="29">N</tspan>
            </text>
            <text fill="#232730" font-family="HelveticaNeue, Helvetica Neue" font-size="18">
                <tspan x="307.161" y="29">M</tspan>
            </text>
            <text fill="#232730" font-family="HelveticaNeue, Helvetica Neue" font-size="18">
                <tspan x="370.248" y="29">,</tspan>
            </text>
            <rect width="55" height="45" fill="#FFF" rx="4"/>
            <rect width="55" height="45" x="57.5" fill="#FFF" rx="4"/>
            <rect width="55" height="45" x="115" fill="#FFF" rx="4"/>
            <text fill="#232730" font-family="HelveticaNeue, Helvetica Neue" font-size="18">
                <tspan x="22.001" y="29">X</tspan>
            </text>
            <text fill="#232730" font-family="HelveticaNeue, Helvetica Neue" font-size="18">
                <tspan x="78.502" y="29">C</tspan>
            </text>
            <text fill="#232730" font-family="HelveticaNeue, Helvetica Neue" font-size="18">
                <tspan x="137.001" y="29">V</tspan>
            </text>
        </g>
        <g transform="translate(28.5 47.5)">
            <rect width="55" height="45" x="230" fill="#FFF" rx="4"/>
            <rect width="55" height="45" x="287.5" fill="#FFF" rx="4"/>
            <rect width="55" height="45" x="345" fill="#FFF" rx="4"/>
            <rect width="55" height="45" x="402.5" fill="#FFF" rx="4"/>
            <rect width="55" height="45" x="460" fill="#FFF" rx="4"/>
            <text fill="#232730" font-family="HelveticaNeue, Helvetica Neue" font-size="18">
                <tspan x="251.585" y="29">B</tspan>
            </text>
            <text fill="#232730" font-family="HelveticaNeue, Helvetica Neue" font-size="18">
                <tspan x="308.502" y="29">N</tspan>
            </text>
            <text fill="#232730" font-family="HelveticaNeue, Helvetica Neue" font-size="18">
                <tspan x="364.661" y="29">M</tspan>
            </text>
            <text fill="#232730" font-family="HelveticaNeue, Helvetica Neue" font-size="18">
                <tspan x="427.748" y="29">,</tspan>
            </text>
            <text fill="#232730" font-family="HelveticaNeue, Helvetica Neue" font-size="18">
                <tspan x="485.248" y="29">.</tspan>
            </text>
            <rect width="55" height="45" fill="#FFF" rx="4"/>
            <rect width="55" height="45" x="57.5" fill="#FFF" rx="4"/>
            <rect width="55" height="45" x="115" fill="#FFF" rx="4"/>
            <rect width="55" height="45" x="172.5" fill="#FFF" rx="4"/>
            <text fill="#232730" font-family="HelveticaNeue, Helvetica Neue" font-size="18">
                <tspan x="22.001" y="29">Z</tspan>
            </text>
            <text fill="#232730" font-family="HelveticaNeue, Helvetica Neue" font-size="18">
                <tspan x="79.501" y="29">X</tspan>
            </text>
            <text fill="#232730" font-family="HelveticaNeue, Helvetica Neue" font-size="18">
                <tspan x="136.002" y="29">C</tspan>
            </text>
            <text fill="#232730" font-family="HelveticaNeue, Helvetica Neue" font-size="18">
                <tspan x="194.501" y="29">V</tspan>
            </text>
        </g>
        <rect width="285" height="45" x="143.5" y="237.5" fill="#FFF" rx="4"/>
    </g>
</svg>
