<svg xmlns="http://www.w3.org/2000/svg" xmlns:xlink="http://www.w3.org/1999/xlink" width="129" height="70" viewBox="0 0 129 70">
    <defs>
        <path id="a" d="M4.724.253C4.032 2.27 2.39 3.937.402 4.64c-.332.12-.332.603 0 .72 1.987.704 3.63 2.371 4.322 4.388.116.337.59.337.707 0 .694-2.017 2.334-3.684 4.321-4.388.33-.117.33-.6 0-.72C7.765 3.937 6.125 2.27 5.431.253a.367.367 0 0 0-.354-.252.365.365 0 0 0-.353.252z"/>
        <path id="c" d="M4.724.253C4.032 2.27 2.39 3.937.402 4.64c-.332.12-.332.603 0 .72 1.987.704 3.63 2.371 4.322 4.388.116.337.59.337.707 0 .694-2.017 2.334-3.684 4.321-4.388.33-.117.33-.6 0-.72C7.765 3.937 6.125 2.27 5.431.253a.367.367 0 0 0-.354-.252.365.365 0 0 0-.353.252z"/>
        <path id="e" d="M4.724.253C4.032 2.27 2.39 3.937.402 4.64c-.332.12-.332.603 0 .72 1.987.704 3.63 2.371 4.322 4.388.116.337.59.337.707 0 .694-2.017 2.334-3.684 4.321-4.388.33-.117.33-.6 0-.72C7.765 3.937 6.125 2.27 5.431.253a.367.367 0 0 0-.354-.252.365.365 0 0 0-.353.252z"/>
        <path id="g" d="M4.724.253C4.032 2.27 2.39 3.937.402 4.64c-.332.12-.332.603 0 .72 1.987.704 3.63 2.371 4.322 4.388.116.337.59.337.707 0 .694-2.017 2.334-3.684 4.321-4.388.33-.117.33-.6 0-.72C7.765 3.937 6.125 2.27 5.431.253a.367.367 0 0 0-.354-.252.365.365 0 0 0-.353.252z"/>
        <path id="i" d="M4.724.253C4.032 2.27 2.39 3.937.402 4.64c-.332.12-.332.603 0 .72 1.987.704 3.63 2.371 4.322 4.388.116.337.59.337.707 0 .694-2.017 2.334-3.684 4.321-4.388.33-.117.33-.6 0-.72C7.765 3.937 6.125 2.27 5.431.253a.367.367 0 0 0-.354-.252.365.365 0 0 0-.353.252z"/>
        <path id="k" d="M2.32.127A3.628 3.628 0 0 1 .128 2.319c-.17.06-.17.302 0 .36A3.628 3.628 0 0 1 2.32 4.873c.058.169.299.169.359 0A3.626 3.626 0 0 1 4.874 2.68c.168-.058.168-.3 0-.36A3.626 3.626 0 0 1 2.68.127.188.188 0 0 0 2.5 0a.186.186 0 0 0-.18.127z"/>
        <path id="m" d="M2.32.127A3.628 3.628 0 0 1 .128 2.319c-.17.06-.17.302 0 .36A3.628 3.628 0 0 1 2.32 4.873c.058.169.299.169.359 0A3.626 3.626 0 0 1 4.874 2.68c.168-.058.168-.3 0-.36A3.626 3.626 0 0 1 2.68.127.188.188 0 0 0 2.5 0a.186.186 0 0 0-.18.127z"/>
    </defs>
    <g fill="none" fill-rule="evenodd">
        <g fill="#9E9E9E" fill-rule="nonzero">
            <path d="M69.87 63.962H64.42v-49.93h22.961l-9.726 15.433a1.675 1.675 0 0 0 2.835 1.786l8.434-13.385 8.435 13.385a1.675 1.675 0 0 0 2.834-1.786l-9.725-15.433h.122a2.596 2.596 0 0 0 0-5.192H71.492a8.498 8.498 0 0 0-4.534-3.321 5.91 5.91 0 0 0-11.774 0 8.497 8.497 0 0 0-4.533 3.32h-19.1a2.596 2.596 0 1 0 0 5.193h.123L21.95 29.465a1.675 1.675 0 0 0 2.834 1.786l8.434-13.385 8.435 13.385a1.675 1.675 0 0 0 2.834-1.786l-9.725-15.433h22.96v49.93h-5.447a5.904 5.904 0 0 0-5.904 5.904h29.403a5.904 5.904 0 0 0-5.903-5.904z"/>
            <path d="M45.542 33.814h-24.65c-.492 0-.892.4-.892.893 0 7.288 5.93 13.217 13.218 13.217s13.217-5.929 13.217-13.217c0-.493-.4-.893-.893-.893zM101.25 33.814H76.6c-.492 0-.892.4-.892.893 0 7.288 5.93 13.217 13.218 13.217s13.217-5.929 13.217-13.217c0-.493-.4-.893-.893-.893z"/>
        </g>
        <g transform="translate(0 43)">
            <mask id="b" fill="#fff">
                <use xlink:href="#a"/>
            </mask>
            <path fill="#FFCB2E" d="M-3.949 14.167h18.052V-4.167H-3.95z" mask="url(#b)"/>
        </g>
        <g transform="translate(19 53)">
            <mask id="d" fill="#fff">
                <use xlink:href="#c"/>
            </mask>
            <path fill="#FFCB2E" d="M-3.949 14.167h18.052V-4.167H-3.95z" mask="url(#d)"/>
        </g>
        <g transform="translate(99 13)">
            <mask id="f" fill="#fff">
                <use xlink:href="#e"/>
            </mask>
            <path fill="#FFCB2E" d="M-3.949 14.167h18.052V-4.167H-3.95z" mask="url(#f)"/>
        </g>
        <g transform="translate(119 33)">
            <mask id="h" fill="#fff">
                <use xlink:href="#g"/>
            </mask>
            <path fill="#FFCB2E" d="M-3.949 14.167h18.052V-4.167H-3.95z" mask="url(#h)"/>
        </g>
        <g transform="translate(99 44)">
            <mask id="j" fill="#fff">
                <use xlink:href="#i"/>
            </mask>
            <path fill="#FFCB2E" d="M-3.949 14.167h18.052V-4.167H-3.95z" mask="url(#j)"/>
        </g>
        <g transform="translate(9 35)">
            <mask id="l" fill="#fff">
                <use xlink:href="#k"/>
            </mask>
            <path fill="#FFCB2E" d="M-4.167 9.167H9.167V-4.167H-4.167z" mask="url(#l)"/>
        </g>
        <g transform="translate(114 15)">
            <mask id="n" fill="#fff">
                <use xlink:href="#m"/>
            </mask>
            <path fill="#FFCB2E" d="M-4.167 9.167H9.167V-4.167H-4.167z" mask="url(#n)"/>
        </g>
    </g>
</svg>
