<svg xmlns="http://www.w3.org/2000/svg" xmlns:xlink="http://www.w3.org/1999/xlink" width="125" height="40" viewBox="0 0 125 40">
    <defs>
        <path id="a" d="M0 0v28h24V0H0z"/>
        <path id="c" d="M40 40V0H0v40z"/>
    </defs>
    <g fill="none" fill-rule="evenodd">
        <path fill="#FFF" d="M27 34h6V6h-6zM71.031 24.159C70.327 22.344 63.887 6 63.887 6L57 6.005l.12.298L68.036 34h5.972L85 6.005h-6.908s-5.937 15.142-7.06 18.154M55.253 8.752C52.593 6.76 49.36 5.997 43.659 6H36v28h7.251c5.642 0 8.6-.56 11.174-2.143 3.67-2.279 5.578-6.434 5.575-11.895.003-5.023-1.601-8.85-4.747-11.21M49.686 27.51C48.272 28.49 46.09 29 43.056 29H42V10h.86c4.003.005 5.397.313 6.94 1.414 2.026 1.508 3.2 4.45 3.2 8.087 0 3.636-1.214 6.574-3.314 8.008"/>
        <g transform="translate(0 6)">
            <mask id="b" fill="#fff">
                <use xlink:href="#a"/>
            </mask>
            <path fill="#FFF" d="M17.867 13.7c3.593-.967 5.388-3.052 5.365-6.193.003-2.733-1.521-5.089-4.121-6.21C16.917.317 14.609-.002 9.7 0H0v28h10.849c4.588 0 6.893-.362 8.987-1.385 2.686-1.352 4.165-3.67 4.164-6.442.022-3.397-2.08-5.573-6.133-6.473zM6 4.007h1.9c3.119.002 5.208-.111 6.37.51 1.072.56 1.73 1.344 1.73 2.884-.002 1.417-.6 2.21-1.683 2.817-.95.533-3.357.785-6.171.782H6V4.007zm8.789 18.573c-1.138.476-3.022.418-6.318.418H6V16h2.52c2.64 0 4.792.098 6.087.484C16.186 16.952 17 17.912 17 19.51c0 1.855-.915 2.532-2.211 3.07z" mask="url(#b)"/>
        </g>
        <path fill="#FFF" d="M104.998 1L86 19.502 104.989 38l.008-.004L124 19.508 105 1.006"/>
        <path fill="#ED1D24" d="M102.003 8L102 22.998l3.128.001 2.87.001L108 8.001 105.13 8"/>
        <path fill="#21409A" d="M109.787 19.997L108 20l.002-9h1.788c1.816 0 3.2 2.019 3.21 4.498.02 2.423-1.391 4.499-3.213 4.499zM98 11h3v9h-3v-9z"/>
        <g transform="translate(85)">
            <mask id="d" fill="#fff">
                <use xlink:href="#c"/>
            </mask>
            <path fill="#ED1D24" d="M0 20l.164.168L19.248 39.25l.75.75.75-.75L40 20.006 20.004 0 0 20zm19.497 17.996L19.49 38 1 19.502 19.499 1l.001.006L38 19.508 19.497 37.996z" mask="url(#d)"/>
        </g>
        <path fill="#ED1D24" d="M104.995 29.084L95.914 20H87l15.694 15.699.167.167L104.993 38 123 20h-8.917"/>
    </g>
</svg>
