<?xml version="1.0" encoding="UTF-8"?>
<svg width="58px" height="56px" viewBox="0 0 58 56" version="1.1" xmlns="http://www.w3.org/2000/svg" xmlns:xlink="http://www.w3.org/1999/xlink">
    <!-- Generator: Sketch 46.2 (44496) - http://www.bohemiancoding.com/sketch -->
    <title>Group 5</title>
    <desc>Created with Sketch.</desc>
    <defs>
        <polygon id="path-1" points="56.9528972 55.5399716 56.9528972 0.215376543 0.17850118 0.215376543 0.17850118 55.5399716"></polygon>
    </defs>
    <g id="12.-AboutBIDV" stroke="none" stroke-width="1" fill="none" fill-rule="evenodd">
        <g id="100_AboutBIDV" transform="translate(-691.000000, -622.000000)">
            <g id="Group-5" transform="translate(691.000000, 622.000000)">
                <polyline id="Fill-9" fill="#FFFFFF" points="29.2504397 1.9827785 2.67181353 27.8767201 29.2369892 53.7655742 29.2487041 53.7596386 55.8334047 27.8856235 29.253043 1.99125789"></polyline>
                <polyline id="Fill-11" fill="#ED1D24" points="24.8107326 10.4979954 24.8059599 32.1272271 29.4442137 32.1293469 33.6989112 32.1306188 33.7023823 10.4996913 29.4463831 10.4979954"></polyline>
                <path d="M36.5367069,27.8941877 L34.1368769,27.8992753 L34.1390464,14.8045511 L36.5414796,14.8045511 C38.9803594,14.8045511 40.8373964,17.7418123 40.8517147,21.3485215 C40.8799174,24.8738285 38.9838305,27.8941877 36.5367069,27.8941877 L36.5367069,27.8941877 Z M19.93575,14.7998874 L24.3804901,14.7998874 L24.3804901,27.8980034 L19.93575,27.8967315 L19.93575,14.7998874 Z" id="Fill-13" fill="#21409A"></path>
                <g id="Group-17" transform="translate(0.688342, 0.000000)">
                    <mask id="mask-2" fill="white">
                        <use xlink:href="#path-1"></use>
                    </mask>
                    <g id="Clip-16"></g>
                    <path d="M0.17850118,27.8768049 L0.411064701,28.1095642 L27.4982066,54.502942 L28.5620979,55.5399716 L29.6264231,54.502942 L56.9535047,27.8857083 L28.5716434,0.215334146 L0.17850118,27.8768049 Z M28.5603624,53.7597234 L28.5486474,53.7656589 L1.98347179,27.8768049 L28.5620979,1.98286329 L28.5647013,1.99134269 L55.1446291,27.8857083 L28.5603624,53.7597234 Z" id="Fill-15" fill="#ED1D24" mask="url(#mask-2)"></path>
                </g>
                <polyline id="Fill-18" fill="#ED1D24" points="29.2470554 40.3615641 16.4387062 27.8769321 3.86595779 27.8769321 26.0020132 49.4527437 26.237614 49.6829592 29.2448859 52.6151327 54.6429051 27.8769321 42.0658178 27.8769321"></polyline>
            </g>
        </g>
    </g>
</svg>