<?xml version="1.0" encoding="utf-8"?>
<!-- Generator: Adobe Illustrator 19.0.0, SVG Export Plug-In . SVG Version: 6.00 Build 0)  -->
<svg version="1.1" id="Layer_1" xmlns="http://www.w3.org/2000/svg" xmlns:xlink="http://www.w3.org/1999/xlink" x="0px" y="0px"
	 viewBox="-259 382 92 29" style="enable-background:new -259 382 92 29;" xml:space="preserve">
<style type="text/css">
	.st0{fill:#21409A;}
	.st1{fill:#FFFFFF;}
	.st2{fill:#ED1D24;}
	.st3{enable-background:new    ;}
	.st4{fill:#1C2E36;}
</style>
<g>
	<path class="st0" d="M-239.4,407.1h4.6v-20.3h-4.6V407.1z M-207.1,400c-0.5-1.3-5.2-13.2-5.2-13.2h-5l0.1,0.2l7.9,20.1h4.3l8-20.3
		h-5C-202,386.8-206.3,397.8-207.1,400 M-218.5,388.8c-1.9-1.4-4.3-2-8.4-2h-5.6v20.3h5.3c4.1,0,6.3-0.4,8.1-1.6
		c2.7-1.6,4.1-4.7,4.1-8.6C-215,393.3-216.2,390.5-218.5,388.8 M-222.1,402.8c-1.1,0.7-2.7,1.1-5,1.1h-0.8v-14h0.6
		c3,0,4.1,0.2,5.2,1c1.5,1.1,2.4,3.3,2.4,6C-219.6,399.6-220.5,401.8-222.1,402.8 M-246.1,396.7c2.6-0.7,3.9-2.2,3.9-4.5
		c0-2-1.1-3.7-3-4.5c-1.6-0.7-3.3-0.9-6.8-0.9h-7v20.3h7.8c3.3,0,5-0.3,6.5-1c1.9-1,3-2.7,3-4.7
		C-241.6,398.9-243.2,397.3-246.1,396.7z M-254.4,389.9h1.4c2.4,0,3.9-0.1,4.8,0.4c0.8,0.4,1.3,1,1.3,2s-0.5,1.6-1.3,2
		c-0.7,0.4-2.5,0.6-4.7,0.6h-1.6v-5H-254.4z M-247.9,403.6c-0.8,0.4-2.2,0.3-4.7,0.3h-1.8v-5.2h1.9c1.9,0,3.5,0.1,4.5,0.4
		c1.2,0.4,1.8,1.1,1.8,2.3C-246.3,402.7-247,403.2-247.9,403.6L-247.9,403.6z"/>
	<path class="st1" d="M-182.4,383.3l-13.7,13.4l13.7,13.4l0,0l13.7-13.4L-182.4,383.3"/>
	<path class="st2" d="M-184.7,387.7v11.2h2.4h2.2v-11.2h-2.2"/>
	<path class="st0" d="M-178.6,396.8h-1.2V390h1.2c1.3,0,2.2,1.5,2.2,3.4C-176.4,395.2-177.3,396.8-178.6,396.8z M-187.2,390h2.3v6.8
		h-2.3V390L-187.2,390z"/>
	<path class="st2" d="M-197,396.7l0.1,0.1l14,13.7l0.6,0.5l0.6-0.5l14.1-13.8l-14.7-14.3L-197,396.7L-197,396.7z M-182.4,410.2
		L-182.4,410.2l-13.7-13.4l13.7-13.4l0,0l13.7,13.4L-182.4,410.2z"/>
	<path class="st2" d="M-182.4,403.2l-6.6-6.5h-6.5l11.4,11.2l0.1,0.1l1.6,1.5l13.1-12.8h-6.5"/>
</g>
<g class="st3">
	<path class="st4" d="M-143.4,385.3c1.9,0,3.3,0,4.2,0.1c1.6,0.2,2.8,0.7,3.8,1.5c1.7-1,3.7-1.5,5.9-1.5c1.2,0,2.3,0.2,3.3,0.5
		c1.5,0.7,2.5,1.3,3.1,2c-0.1,0.1-0.2,0.1-0.3,0.1c-0.1,0-0.2-0.1-0.5-0.4s-0.5-0.4-0.6-0.4c-1.4-0.7-3-1-4.9-1
		c-1.8,0-3.6,0.3-5.3,0.9c0.9,1.1,1.5,2.3,1.6,3.4c-0.3,1.8-0.8,3-1.6,3.6c-0.4,0.3-1.2,0.8-2.4,1.3c0.2,0.4,0.6,0.9,1,1.5
		c0.3,0.7,0.4,1.3,0.4,2c0,1.6-0.9,3.5-2.8,5.8c-1.8,1.4-3.4,2.2-4.8,2.2c-1.6,0-2.5-0.6-2.9-1.7c-0.1-1,0.2-1.8,1-2.3h0.3
		c-0.2,0.3-0.3,0.6-0.3,0.9c0,0.5,0.2,1.2,0.6,1.8c0.5,0.4,1.2,0.6,2.1,0.6c0.4,0,0.8,0,1.2-0.1c1.3-0.4,2.3-1.3,3.1-2.5
		c0.8-1.1,1.2-2.4,1.4-3.9c0.2-1.7-0.4-2.9-1.8-3.7l-2.1-0.1v-0.3c0.6-0.1,1.7-0.3,3.3-0.7c1.2-0.3,2-0.9,2.4-1.9
		c0.4-0.7,0.6-1.3,0.6-2c0-1-0.4-2.1-1.2-3.2c-0.6,0.1-1.3,0.5-2,1.2c-0.5,0.6-1.1,1.2-1.6,1.8c-1.5,2.6-2.9,4.9-4.2,6.8
		c-1.7,2.8-3.4,4.9-4.9,6.3c-2.3,2-4.7,3-7.2,3c-0.8,0-1.7-0.1-2.5-0.3c-1.1-0.5-1.8-1.1-2.1-1.8c0-0.7,0-1.1,0-1.2
		c0.1-0.4,0.3-0.7,0.8-0.8h0.5c0.2,0,0.3,0.1,0.4,0.3c-0.4,0.3-0.7,0.7-0.7,1.3c0,0.3,0.1,0.5,0.3,0.7c1.1,1,2.5,1.5,4.2,1.5
		c0.7,0,1.3-0.1,1.9-0.2c2.1-0.8,3.9-2.3,5.4-4.5c0.2-0.3,1.5-2.4,3.8-6.3c1.6-2.6,3.1-4.5,4.5-5.7l2.8-2.2
		c-1.5-1.3-3.6-1.9-6.4-1.9c-1.8,0-3.3,0.2-4.4,0.6c-4.3,1.6-6.6,4.2-7,7.8c0,1.3,0.7,2.3,2,3.1c2.1,0.1,3.5-0.2,4.3-0.9
		c1.1-1,1.7-2,1.7-3.1c0-0.3-0.1-0.7-0.2-1c-0.2-0.2-0.5-0.3-0.7-0.3c-0.1,0-0.3,0-0.6,0s-0.4,0-0.3,0c0-0.1-0.1-0.3-0.1-0.4
		c0-0.4,0.2-0.6,0.7-0.8c0.2,0,0.3,0,0.5,0c0.8,0,1.3,0.4,1.5,1.2c0.1,1.1-0.2,2.2-0.9,3.3c-0.7,1-1.6,1.8-2.6,2.3
		c-1.4,0.3-2.4,0.5-2.9,0.5c-1.1,0-1.9-0.3-2.5-1c-0.6-0.6-0.9-1.5-0.9-2.6c0-0.7,0.1-1.4,0.3-2.2
		C-153.1,388.6-149.3,386.2-143.4,385.3z"/>
	<path class="st4" d="M-128,392.6c0.1-0.1,0.3-0.1,0.6-0.1c0.5,0,0.8,0.1,0.7,0.1c0,0.2-0.4,0.8-1.1,1.9c-2.3,3.7-4.6,7.5-7,11.7
		c-0.1,0.1-0.1,0.3,0,0.4c0.1,0.2,0.3,0.2,0.5,0.2c0.6-0.1,1.2-0.4,1.8-0.9c0.1-0.1,0.6-0.6,1.5-1.5c-0.6,0.9-1.2,1.6-1.8,2
		c-0.7,0.5-1.5,0.7-2.5,0.7c-0.5,0-0.8-0.1-0.8-0.4c0-0.1,0-0.2,0.1-0.2c0.5-1.2,1.7-3.3,3.6-6.4
		C-130.2,396.7-128.8,394.2-128,392.6z"/>
	<path class="st4" d="M-126,400.2c0.2-0.1,0.5-0.1,0.8-0.1c1,0,1.5,0.3,1.5,0.9c0.2,2.1-1.1,4-4,5.6c-0.5,0.3-1,0.4-1.4,0.4
		c-1.1,0-1.7-0.5-1.7-1.5c0-0.3,0.1-0.8,0.2-1.2C-129.9,402.5-128.4,401.1-126,400.2z M-126.9,401c-1.8,1.4-2.6,2.8-2.6,4.3
		c0,0.9,0.4,1.4,1.1,1.4c0.2,0,0.4,0,0.5-0.1c0.9-0.5,1.6-1.2,2.2-2c0.6-0.8,0.9-1.7,0.9-2.6c0-0.8-0.4-1.2-1.2-1.2
		C-126.3,400.7-126.6,400.8-126.9,401z M-123.9,405.7c0.3-0.3,0.8-0.8,1.5-1.4c-0.4,1.2-1.5,2.2-3.4,2.9
		C-125.5,406.8-124.8,406.4-123.9,405.7z"/>
	<path class="st4" d="M-116.5,399.7c1,0.3,1.6,0.5,1.6,0.5c0.3,0,0.5-0.1,0.7-0.3c-0.9,1.6-2.2,3.9-4,7c2.1-0.7,3.6-1.8,4.6-3.3h0.1
		c0,0.6-0.7,1.4-2,2.5c-0.7,0.6-1.7,1.1-3.2,1.6c-1.8,3.2-3.8,5.1-6,5.7c-0.9,0.2-1.4,0.2-1.5,0.2c-0.3,0-0.6-0.1-0.8-0.3
		c-0.3-0.3-0.5-0.7-0.5-1.1c0-0.3,0.1-0.5,0.3-0.7c0.7-1.1,1.9-2,3.3-2.6c0.6-0.2,1.9-0.7,3.9-1.5c0.4-0.4,0.7-0.7,0.7-0.9
		c-0.2,0-0.5,0.1-0.9,0.2s-0.7,0.2-0.9,0.2c-0.3,0-0.5-0.1-0.8-0.2c-0.6-0.3-0.9-0.9-0.9-1.6c0-0.3,0-0.5,0.1-0.7
		c0.3-1.3,1.1-2.3,2.4-3.2C-119.1,400.6-117.9,400-116.5,399.7z M-126.2,411.4c-0.1,0.2-0.2,0.4-0.2,0.6c0,0.3,0.2,0.6,0.5,0.8
		c0.3,0.1,0.7,0.1,1,0.1c1,0,1.9-0.6,2.8-1.7c0.4-0.6,1.1-1.6,2-3c-1,0.3-2.1,0.7-3.2,1.1C-124.6,409.7-125.5,410.4-126.2,411.4z
		 M-118.4,400.6c-1.9,1.7-3,3.3-3.2,4.9c0.1,0.6,0.5,0.9,1.4,0.9c0.9-0.4,1.7-1.2,2.4-2.4c0.2-0.3,0.7-1.3,1.7-3
		c-0.3-0.4-0.7-0.6-1.2-0.6C-117.6,400.4-118,400.5-118.4,400.6z"/>
</g>
</svg>
