<svg xmlns="http://www.w3.org/2000/svg" width="42" height="24" viewBox="0 0 42 24">
    <g fill="none" fill-rule="evenodd" stroke="#212121" stroke-linecap="round" stroke-linejoin="round" stroke-width="2">
        <path d="M1 12C1 5.925 5.925 1 12 1s11 4.925 11 11-4.925 11-11 11S1 18.075 1 12z"/>
        <path d="M9 14.5a2.5 2.5 0 0 0 2.5 2.5h1a2.5 2.5 0 0 0 2.5-2.5c0-3.5-6-1.5-6-5A2.5 2.5 0 0 1 11.5 7h1A2.5 2.5 0 0 1 15 9.5M12 6v12"/>
        <g>
            <path d="M22.42 4.028A10.963 10.963 0 0 1 30 1c6.075 0 11 4.925 11 11s-4.925 11-11 11a10.961 10.961 0 0 1-7.49-2.943"/>
            <path d="M27 8l3 4 3-4M30 12v5M27 12h6M27 15h6"/>
        </g>
    </g>
</svg>
