<svg xmlns="http://www.w3.org/2000/svg" width="25" height="25" viewBox="0 0 25 25">
    <g fill="none" fill-rule="evenodd" stroke="#212121" stroke-linecap="round" stroke-linejoin="round" stroke-width="2">
        <path d="M18.726 16.302c3.173.744 5.274 2.041 5.274 3.516C24 22.128 18.851 24 12.5 24S1 22.128 1 19.818c0-1.462 2.064-2.75 5.19-3.497"/>
        <path d="M15.636 11.455H9.364a3.136 3.136 0 0 0-3.137 3.136v4.182h12.546V14.59a3.136 3.136 0 0 0-3.137-3.136zM12.5 8.318a3.136 3.136 0 0 1-3.136-3.136V4.136a3.136 3.136 0 1 1 6.272 0v1.046A3.136 3.136 0 0 1 12.5 8.318z"/>
    </g>
</svg>
