<svg xmlns="http://www.w3.org/2000/svg" width="24" height="24" viewBox="0 0 24 24">
    <g fill="none" fill-rule="evenodd" stroke="#212121" stroke-linecap="round" stroke-linejoin="round" stroke-width="2">
        <path d="M11.63 1.732A7.415 7.415 0 0 0 2.287 12.59l.163.178"/>
        <path d="M17.023 7.386c-2.588 2.588-7.27-.022-7.27-.022-2.72 2.72-5.242 1.05-5.242 1.05L9.753 3.17a7.412 7.412 0 0 1 10.483 0 7.412 7.412 0 0 1 0 10.483l-.355.355M7.421 21.232l-4.95-4.95a2.5 2.5 0 1 1 3.536-3.535l4.95 4.949a2.501 2.501 0 0 1-3.536 3.536z"/>
        <path d="M14.693 8.504l4.5 4.499a3.311 3.311 0 0 1 0 4.68l-3.806 3.805a3.31 3.31 0 0 1-4.68 0l-.003-.003"/>
    </g>
</svg>
