<svg xmlns="http://www.w3.org/2000/svg" width="23" height="22" viewBox="0 0 23 22">
    <g fill="none" fill-rule="evenodd" stroke="#212121" stroke-linecap="round" stroke-linejoin="round" stroke-width="2">
        <path d="M14.088 15.024H19c2.417 0 3 2 3 2l-10.602 3.85a4.678 4.678 0 0 1-2.492-.09L4 18.45"/>
        <path d="M4 12.024h1.016c1.642 0 3.134.731 3.984 2h3c1.453 0 3 1.547 3 3H8M14 8.5a2.5 2.5 0 1 1 5 0 2.5 2.5 0 0 1-5 0zM7 3.5a2.5 2.5 0 1 1 5 0 2.5 2.5 0 0 1-5 0zM4 19H1v-8h3z"/>
    </g>
</svg>
