<svg xmlns="http://www.w3.org/2000/svg" width="25" height="25" viewBox="0 0 25 25">
    <g fill="none" fill-rule="evenodd" stroke="#212121" stroke-linecap="round" stroke-linejoin="round" stroke-width="2">
        <path d="M24 12.5a2.09 2.09 0 0 0-2.09-2.09h-1.32a8.33 8.33 0 0 0-.891-2.152l.933-.933a2.09 2.09 0 1 0-2.957-2.957l-.933.933a8.33 8.33 0 0 0-2.151-.89V3.09a2.091 2.091 0 0 0-4.182 0v1.32a8.33 8.33 0 0 0-2.151.89l-.933-.933a2.09 2.09 0 1 0-2.957 2.957l.933.933a8.33 8.33 0 0 0-.89 2.151H3.09a2.091 2.091 0 0 0 0 4.182h1.32a8.33 8.33 0 0 0 .89 2.151l-.933.933a2.09 2.09 0 1 0 2.957 2.957l.933-.933a8.315 8.315 0 0 0 2.151.89v1.32a2.091 2.091 0 0 0 4.182 0v-1.32a8.33 8.33 0 0 0 2.151-.89l.933.933a2.09 2.09 0 1 0 2.957-2.957l-.933-.933a8.315 8.315 0 0 0 .89-2.151h1.32c1.154 0 2.091-.936 2.091-2.091z"/>
        <path d="M12.5 9.364a3.136 3.136 0 1 1 0 6.272 3.136 3.136 0 0 1 0-6.272z"/>
    </g>
</svg>
