<svg xmlns="http://www.w3.org/2000/svg" width="30" height="30" viewBox="0 0 30 30">
    <path fill="#21409A" fill-rule="nonzero" d="M29.94 23.674c.063.488-.085.911-.445 1.271l-4.217 4.193c-.19.212-.439.392-.745.54a3.075 3.075 0 0 1-.904.286c-.02 0-.084.005-.19.016a4.31 4.31 0 0 1-.412.016c-.402 0-1.052-.07-1.95-.207-.899-.138-1.998-.476-3.298-1.016s-2.775-1.35-4.424-2.43c-1.649-1.08-3.403-2.563-5.264-4.447-1.48-1.462-2.706-2.86-3.678-4.193-.972-1.334-1.755-2.568-2.347-3.7-.591-1.134-1.035-2.16-1.331-3.082C.439 10 .238 9.206.132 8.539.026 7.872-.016 7.347.005 6.966c.021-.38.032-.593.032-.635.042-.297.137-.598.285-.905a2.38 2.38 0 0 1 .54-.747L5.078.454C5.375.158 5.713.01 6.094.01c.274 0 .518.08.729.238.211.159.391.355.539.588l3.393 6.448c.19.339.243.71.158 1.112a1.98 1.98 0 0 1-.539 1.016L8.821 10.97a.53.53 0 0 0-.111.206.785.785 0 0 0-.048.238c.085.445.275.953.57 1.525.255.508.646 1.128 1.174 1.858.529.73 1.28 1.573 2.252 2.525.95.975 1.796 1.732 2.536 2.272.74.54 1.359.937 1.855 1.19.497.255.878.409 1.142.461l.396.08a.755.755 0 0 0 .206-.048.53.53 0 0 0 .206-.111l1.808-1.842a1.94 1.94 0 0 1 1.332-.509c.36 0 .644.064.856.19h.032l6.12 3.622c.444.276.708.625.792 1.048z"/>
</svg>
